<svg xmlns="http://www.w3.org/2000/svg" xmlns:xlink="http://www.w3.org/1999/xlink" width="500" zoomAndPan="magnify" viewBox="0 0 375 179.999997" height="240" preserveAspectRatio="xMidYMid meet" version="1.0"><defs><g/><clipPath id="55db8c9a9c"><path d="M 0 0 L 159.46875 0 L 159.46875 90 L 0 90 Z M 0 0 " clip-rule="nonzero"/></clipPath><clipPath id="125709cef2"><path d="M 93.75 0 L 271.542969 0 L 271.542969 90 L 93.75 90 Z M 93.75 0 " clip-rule="nonzero"/></clipPath><clipPath id="5480a686bd"><path d="M 187.5 0 L 375 0 L 375 90 L 187.5 90 Z M 187.5 0 " clip-rule="nonzero"/></clipPath><clipPath id="608453d16a"><path d="M 281.25 0 L 375 0 L 375 90 L 281.25 90 Z M 281.25 0 " clip-rule="nonzero"/></clipPath><clipPath id="3a7e4ee6f8"><path d="M 0 90 L 159.46875 90 L 159.46875 180 L 0 180 Z M 0 90 " clip-rule="nonzero"/></clipPath><clipPath id="29fa9c72a5"><path d="M 93.75 90 L 271.542969 90 L 271.542969 180 L 93.75 180 Z M 93.75 90 " clip-rule="nonzero"/></clipPath><clipPath id="80dc034463"><path d="M 187.5 90 L 375 90 L 375 180 L 187.5 180 Z M 187.5 90 " clip-rule="nonzero"/></clipPath><clipPath id="4eac4a640e"><path d="M 281.25 90 L 375 90 L 375 180 L 281.25 180 Z M 281.25 90 " clip-rule="nonzero"/></clipPath></defs><g clip-path="url(#55db8c9a9c)"><path fill="#fffafa" d="M 0 0 L 159.609375 0 L 159.609375 90 L 0 90 Z M 0 0 " fill-opacity="1" fill-rule="nonzero"/></g><g clip-path="url(#125709cef2)"><path fill="#f2f2f2" d="M 93.75 0 L 271.640625 0 L 271.640625 90 L 93.75 90 Z M 93.75 0 " fill-opacity="1" fill-rule="nonzero"/></g><g clip-path="url(#5480a686bd)"><path fill="#e0e0e0" d="M 187.5 0 L 374.882812 0 L 374.882812 90 L 187.5 90 Z M 187.5 0 " fill-opacity="1" fill-rule="nonzero"/></g><g clip-path="url(#608453d16a)"><path fill="#d7d7d7" d="M 281.25 0 L 375.117188 0 L 375.117188 90 L 281.25 90 Z M 281.25 0 " fill-opacity="1" fill-rule="nonzero"/></g><g clip-path="url(#3a7e4ee6f8)"><path fill="#000000" d="M 0 90 L 159.609375 90 L 159.609375 180 L 0 180 Z M 0 90 " fill-opacity="1" fill-rule="nonzero"/></g><g clip-path="url(#29fa9c72a5)"><path fill="#ff0000" d="M 93.75 90 L 271.640625 90 L 271.640625 180 L 93.75 180 Z M 93.75 90 " fill-opacity="1" fill-rule="nonzero"/></g><g clip-path="url(#80dc034463)"><path fill="#00ff00" d="M 187.5 90 L 374.882812 90 L 374.882812 180 L 187.5 180 Z M 187.5 90 " fill-opacity="1" fill-rule="nonzero"/></g><g clip-path="url(#4eac4a640e)"><path fill="#0000ff" d="M 281.25 90 L 375.117188 90 L 375.117188 180 L 281.25 180 Z M 281.25 90 " fill-opacity="1" fill-rule="nonzero"/></g><g fill="#000000" fill-opacity="1"><g transform="translate(231.36327, 63.379998)"><g><path d="M 4.9375 0.328125 C 3.375 0.328125 2.222656 -0.0625 1.484375 -0.84375 C 0.753906 -1.632812 0.390625 -2.941406 0.390625 -4.765625 C 0.390625 -6.222656 0.632812 -7.785156 1.125 -9.453125 C 1.625 -11.128906 2.414062 -12.566406 3.5 -13.765625 C 4.582031 -14.960938 5.960938 -15.5625 7.640625 -15.5625 C 8.671875 -15.5625 9.503906 -15.332031 10.140625 -14.875 C 10.773438 -14.414062 11.09375 -13.71875 11.09375 -12.78125 C 11.09375 -12.1875 10.972656 -11.71875 10.734375 -11.375 C 10.503906 -11.039062 10.144531 -10.875 9.65625 -10.875 C 9.15625 -10.875 8.757812 -11.050781 8.46875 -11.40625 C 8.71875 -11.53125 8.9375 -11.78125 9.125 -12.15625 C 9.320312 -12.53125 9.421875 -12.921875 9.421875 -13.328125 C 9.421875 -13.691406 9.316406 -13.992188 9.109375 -14.234375 C 8.910156 -14.472656 8.59375 -14.59375 8.15625 -14.59375 C 7.425781 -14.59375 6.726562 -14.085938 6.0625 -13.078125 C 5.394531 -12.078125 4.859375 -10.816406 4.453125 -9.296875 C 4.046875 -7.773438 3.84375 -6.304688 3.84375 -4.890625 C 3.84375 -3.835938 4.019531 -3.035156 4.375 -2.484375 C 4.738281 -1.929688 5.390625 -1.65625 6.328125 -1.65625 C 7.140625 -1.65625 7.890625 -1.832031 8.578125 -2.1875 C 9.273438 -2.550781 9.875 -3.066406 10.375 -3.734375 L 10.859375 -3.53125 C 10.503906 -2.65625 9.988281 -1.925781 9.3125 -1.34375 C 8.632812 -0.769531 7.90625 -0.347656 7.125 -0.078125 C 6.351562 0.191406 5.625 0.328125 4.9375 0.328125 Z M 4.9375 0.328125 "/></g></g></g><g fill="#000000" fill-opacity="1"><g transform="translate(241.672164, 63.379998)"><g><path d="M 1.40625 -10.375 L 4.40625 -10.375 L 4.125 -9.09375 C 4.59375 -9.507812 5.015625 -9.828125 5.390625 -10.046875 C 5.773438 -10.265625 6.191406 -10.375 6.640625 -10.375 C 7.078125 -10.375 7.425781 -10.222656 7.6875 -9.921875 C 7.945312 -9.617188 8.078125 -9.25 8.078125 -8.8125 C 8.078125 -8.414062 7.941406 -8.0625 7.671875 -7.75 C 7.410156 -7.445312 7.046875 -7.296875 6.578125 -7.296875 C 6.273438 -7.296875 6.070312 -7.367188 5.96875 -7.515625 C 5.863281 -7.660156 5.785156 -7.875 5.734375 -8.15625 C 5.691406 -8.332031 5.648438 -8.460938 5.609375 -8.546875 C 5.566406 -8.628906 5.488281 -8.671875 5.375 -8.671875 C 5.082031 -8.671875 4.835938 -8.613281 4.640625 -8.5 C 4.441406 -8.382812 4.179688 -8.179688 3.859375 -7.890625 L 2.203125 0 L -0.78125 0 Z M 1.40625 -10.375 "/></g></g></g><g fill="#000000" fill-opacity="1"><g transform="translate(249.471244, 63.379998)"><g><path d="M 2.96875 0.125 C 1.945312 0.125 1.148438 -0.140625 0.578125 -0.671875 C 0.015625 -1.203125 -0.265625 -2.035156 -0.265625 -3.171875 C -0.265625 -4.128906 -0.0820312 -5.179688 0.28125 -6.328125 C 0.65625 -7.472656 1.265625 -8.460938 2.109375 -9.296875 C 2.953125 -10.140625 4.023438 -10.5625 5.328125 -10.5625 C 6.847656 -10.5625 7.609375 -9.894531 7.609375 -8.5625 C 7.609375 -7.789062 7.382812 -7.078125 6.9375 -6.421875 C 6.5 -5.773438 5.914062 -5.253906 5.1875 -4.859375 C 4.457031 -4.472656 3.675781 -4.25 2.84375 -4.1875 C 2.8125 -3.769531 2.796875 -3.492188 2.796875 -3.359375 C 2.796875 -2.679688 2.910156 -2.222656 3.140625 -1.984375 C 3.378906 -1.742188 3.765625 -1.625 4.296875 -1.625 C 5.046875 -1.625 5.6875 -1.796875 6.21875 -2.140625 C 6.75 -2.484375 7.332031 -3.007812 7.96875 -3.71875 L 8.671875 -3.71875 C 7.140625 -1.15625 5.238281 0.125 2.96875 0.125 Z M 3.015625 -5.1875 C 3.523438 -5.21875 4.007812 -5.394531 4.46875 -5.71875 C 4.9375 -6.050781 5.3125 -6.472656 5.59375 -6.984375 C 5.875 -7.503906 6.015625 -8.046875 6.015625 -8.609375 C 6.015625 -9.179688 5.84375 -9.46875 5.5 -9.46875 C 5 -9.46875 4.507812 -9.03125 4.03125 -8.15625 C 3.550781 -7.28125 3.210938 -6.289062 3.015625 -5.1875 Z M 3.015625 -5.1875 "/></g></g></g><g fill="#000000" fill-opacity="1"><g transform="translate(257.436263, 63.379998)"><g><path d="M 2.484375 0.125 C 1.703125 0.125 1.046875 -0.144531 0.515625 -0.6875 C -0.00390625 -1.226562 -0.265625 -2.070312 -0.265625 -3.21875 C -0.265625 -4.238281 -0.0625 -5.3125 0.34375 -6.4375 C 0.75 -7.570312 1.351562 -8.53125 2.15625 -9.3125 C 2.96875 -10.09375 3.9375 -10.484375 5.0625 -10.484375 C 5.625 -10.484375 6.046875 -10.382812 6.328125 -10.1875 C 6.609375 -9.988281 6.75 -9.734375 6.75 -9.421875 L 6.75 -9.28125 L 6.96875 -10.375 L 9.953125 -10.375 L 8.46875 -3.3125 C 8.414062 -3.113281 8.390625 -2.894531 8.390625 -2.65625 C 8.390625 -2.0625 8.671875 -1.765625 9.234375 -1.765625 C 9.617188 -1.765625 9.953125 -1.941406 10.234375 -2.296875 C 10.523438 -2.660156 10.753906 -3.132812 10.921875 -3.71875 L 11.78125 -3.71875 C 11.269531 -2.21875 10.632812 -1.203125 9.875 -0.671875 C 9.125 -0.140625 8.367188 0.125 7.609375 0.125 C 7.035156 0.125 6.570312 -0.0351562 6.21875 -0.359375 C 5.863281 -0.679688 5.648438 -1.15625 5.578125 -1.78125 C 5.179688 -1.21875 4.734375 -0.757812 4.234375 -0.40625 C 3.742188 -0.0507812 3.160156 0.125 2.484375 0.125 Z M 3.84375 -1.890625 C 4.1875 -1.890625 4.523438 -2.050781 4.859375 -2.375 C 5.203125 -2.695312 5.4375 -3.144531 5.5625 -3.71875 L 6.5625 -8.40625 C 6.5625 -8.582031 6.488281 -8.753906 6.34375 -8.921875 C 6.207031 -9.097656 5.992188 -9.1875 5.703125 -9.1875 C 5.148438 -9.1875 4.648438 -8.863281 4.203125 -8.21875 C 3.765625 -7.582031 3.421875 -6.8125 3.171875 -5.90625 C 2.921875 -5 2.796875 -4.195312 2.796875 -3.5 C 2.796875 -2.8125 2.894531 -2.367188 3.09375 -2.171875 C 3.300781 -1.984375 3.550781 -1.890625 3.84375 -1.890625 Z M 3.84375 -1.890625 "/></g></g></g><g fill="#000000" fill-opacity="1"><g transform="translate(268.346681, 63.379998)"><g><path d="M 2.046875 0.125 C 1.390625 0.125 0.851562 -0.0820312 0.4375 -0.5 C 0.03125 -0.914062 -0.171875 -1.535156 -0.171875 -2.359375 C -0.171875 -2.710938 -0.113281 -3.164062 0 -3.71875 L 1.25 -9.546875 L 0.5625 -9.546875 L 0.71875 -10.375 L 1.40625 -10.375 L 2.03125 -13.234375 L 5.109375 -13.65625 L 4.40625 -10.375 L 5.640625 -10.375 L 5.484375 -9.546875 L 4.234375 -9.546875 L 2.90625 -3.3125 C 2.851562 -3.113281 2.828125 -2.894531 2.828125 -2.65625 C 2.828125 -2.375 2.890625 -2.175781 3.015625 -2.0625 C 3.148438 -1.945312 3.367188 -1.890625 3.671875 -1.890625 C 4.078125 -1.890625 4.453125 -2.054688 4.796875 -2.390625 C 5.140625 -2.734375 5.390625 -3.175781 5.546875 -3.71875 L 6.40625 -3.71875 C 5.894531 -2.21875 5.238281 -1.203125 4.4375 -0.671875 C 3.632812 -0.140625 2.835938 0.125 2.046875 0.125 Z M 2.046875 0.125 "/></g></g></g><g fill="#000000" fill-opacity="1"><g transform="translate(273.884855, 63.379998)"><g><path d="M 3.46875 -11.5 C 3.007812 -11.5 2.617188 -11.65625 2.296875 -11.96875 C 1.984375 -12.289062 1.828125 -12.679688 1.828125 -13.140625 C 1.828125 -13.585938 1.984375 -13.972656 2.296875 -14.296875 C 2.617188 -14.628906 3.007812 -14.796875 3.46875 -14.796875 C 3.925781 -14.796875 4.316406 -14.628906 4.640625 -14.296875 C 4.960938 -13.972656 5.125 -13.585938 5.125 -13.140625 C 5.125 -12.679688 4.960938 -12.289062 4.640625 -11.96875 C 4.316406 -11.65625 3.925781 -11.5 3.46875 -11.5 Z M 2.046875 0.125 C 1.390625 0.125 0.851562 -0.0820312 0.4375 -0.5 C 0.03125 -0.914062 -0.171875 -1.535156 -0.171875 -2.359375 C -0.171875 -2.710938 -0.113281 -3.164062 0 -3.71875 L 1.40625 -10.375 L 4.40625 -10.375 L 2.90625 -3.3125 C 2.851562 -3.113281 2.828125 -2.894531 2.828125 -2.65625 C 2.828125 -2.375 2.890625 -2.175781 3.015625 -2.0625 C 3.148438 -1.945312 3.367188 -1.890625 3.671875 -1.890625 C 4.078125 -1.890625 4.453125 -2.054688 4.796875 -2.390625 C 5.140625 -2.734375 5.390625 -3.175781 5.546875 -3.71875 L 6.40625 -3.71875 C 5.894531 -2.21875 5.238281 -1.203125 4.4375 -0.671875 C 3.632812 -0.140625 2.835938 0.125 2.046875 0.125 Z M 2.046875 0.125 "/></g></g></g><g fill="#000000" fill-opacity="1"><g transform="translate(279.423028, 63.379998)"><g><path d="M 2.359375 0.125 C 1.554688 0.125 0.929688 -0.078125 0.484375 -0.484375 C 0.0351562 -0.890625 -0.1875 -1.503906 -0.1875 -2.328125 C -0.1875 -2.660156 -0.148438 -2.988281 -0.078125 -3.3125 L 1.40625 -10.375 L 4.40625 -10.375 L 2.90625 -3.3125 C 2.832031 -2.96875 2.796875 -2.722656 2.796875 -2.578125 C 2.796875 -2.117188 3.03125 -1.890625 3.5 -1.890625 C 4.144531 -1.890625 4.738281 -2.289062 5.28125 -3.09375 C 5.820312 -3.894531 6.257812 -4.847656 6.59375 -5.953125 C 6.925781 -7.054688 7.09375 -8.007812 7.09375 -8.8125 C 7.070312 -8.75 6.984375 -8.695312 6.828125 -8.65625 C 6.671875 -8.625 6.539062 -8.609375 6.4375 -8.609375 C 6.195312 -8.609375 6.007812 -8.71875 5.875 -8.9375 C 5.75 -9.164062 5.6875 -9.410156 5.6875 -9.671875 C 5.6875 -10.003906 5.789062 -10.273438 6 -10.484375 C 6.21875 -10.691406 6.539062 -10.796875 6.96875 -10.796875 C 7.425781 -10.796875 7.757812 -10.625 7.96875 -10.28125 C 8.175781 -9.9375 8.28125 -9.503906 8.28125 -8.984375 C 8.28125 -7.742188 8.066406 -6.410156 7.640625 -4.984375 C 7.210938 -3.566406 6.554688 -2.359375 5.671875 -1.359375 C 4.785156 -0.367188 3.679688 0.125 2.359375 0.125 Z M 2.359375 0.125 "/></g></g></g><g fill="#000000" fill-opacity="1"><g transform="translate(288.010319, 63.379998)"><g><path d="M 2.96875 0.125 C 1.945312 0.125 1.148438 -0.140625 0.578125 -0.671875 C 0.015625 -1.203125 -0.265625 -2.035156 -0.265625 -3.171875 C -0.265625 -4.128906 -0.0820312 -5.179688 0.28125 -6.328125 C 0.65625 -7.472656 1.265625 -8.460938 2.109375 -9.296875 C 2.953125 -10.140625 4.023438 -10.5625 5.328125 -10.5625 C 6.847656 -10.5625 7.609375 -9.894531 7.609375 -8.5625 C 7.609375 -7.789062 7.382812 -7.078125 6.9375 -6.421875 C 6.5 -5.773438 5.914062 -5.253906 5.1875 -4.859375 C 4.457031 -4.472656 3.675781 -4.25 2.84375 -4.1875 C 2.8125 -3.769531 2.796875 -3.492188 2.796875 -3.359375 C 2.796875 -2.679688 2.910156 -2.222656 3.140625 -1.984375 C 3.378906 -1.742188 3.765625 -1.625 4.296875 -1.625 C 5.046875 -1.625 5.6875 -1.796875 6.21875 -2.140625 C 6.75 -2.484375 7.332031 -3.007812 7.96875 -3.71875 L 8.671875 -3.71875 C 7.140625 -1.15625 5.238281 0.125 2.96875 0.125 Z M 3.015625 -5.1875 C 3.523438 -5.21875 4.007812 -5.394531 4.46875 -5.71875 C 4.9375 -6.050781 5.3125 -6.472656 5.59375 -6.984375 C 5.875 -7.503906 6.015625 -8.046875 6.015625 -8.609375 C 6.015625 -9.179688 5.84375 -9.46875 5.5 -9.46875 C 5 -9.46875 4.507812 -9.03125 4.03125 -8.15625 C 3.550781 -7.28125 3.210938 -6.289062 3.015625 -5.1875 Z M 3.015625 -5.1875 "/></g></g></g><g fill="#000000" fill-opacity="1"><g transform="translate(295.975338, 63.379998)"><g/></g></g><g fill="#000000" fill-opacity="1"><g transform="translate(300.476402, 63.379998)"><g><path d="M 6.203125 -13.734375 L 5.953125 -13.734375 C 4.722656 -13.734375 3.765625 -13.425781 3.078125 -12.8125 C 2.390625 -12.195312 2.046875 -11.109375 2.046875 -9.546875 C 2.046875 -9.035156 2.09375 -8.675781 2.1875 -8.46875 C 2.289062 -8.269531 2.34375 -8.160156 2.34375 -8.140625 C 1.59375 -8.140625 1.035156 -8.289062 0.671875 -8.59375 C 0.304688 -8.90625 0.125 -9.421875 0.125 -10.140625 C 0.125 -11.128906 0.363281 -12.023438 0.84375 -12.828125 C 1.332031 -13.640625 2.101562 -14.296875 3.15625 -14.796875 C 4.21875 -15.296875 5.566406 -15.546875 7.203125 -15.546875 C 8.109375 -15.546875 9.085938 -15.460938 10.140625 -15.296875 C 11.023438 -15.140625 11.816406 -15.0625 12.515625 -15.0625 C 13.398438 -15.0625 14.203125 -15.207031 14.921875 -15.5 C 14.890625 -14.601562 14.660156 -13.9375 14.234375 -13.5 C 13.804688 -13.070312 13.171875 -12.859375 12.328125 -12.859375 C 11.878906 -12.859375 11.429688 -12.894531 10.984375 -12.96875 C 10.546875 -13.039062 9.921875 -13.160156 9.109375 -13.328125 L 6.25 0 L 3.25 0 Z M 6.203125 -13.734375 "/></g></g></g><g fill="#000000" fill-opacity="1"><g transform="translate(310.453418, 63.379998)"><g><path d="M 7.484375 0.125 C 6.640625 0.125 6.019531 -0.0976562 5.625 -0.546875 C 5.238281 -0.992188 5.046875 -1.550781 5.046875 -2.21875 C 5.046875 -2.507812 5.078125 -2.835938 5.140625 -3.203125 C 5.210938 -3.566406 5.285156 -3.921875 5.359375 -4.265625 C 5.441406 -4.617188 5.492188 -4.84375 5.515625 -4.9375 C 5.628906 -5.425781 5.734375 -5.90625 5.828125 -6.375 C 5.921875 -6.84375 5.96875 -7.222656 5.96875 -7.515625 C 5.96875 -8.210938 5.722656 -8.5625 5.234375 -8.5625 C 4.867188 -8.5625 4.546875 -8.382812 4.265625 -8.03125 C 3.992188 -7.6875 3.773438 -7.226562 3.609375 -6.65625 L 2.203125 0 L -0.78125 0 L 2.21875 -14.109375 L 5.296875 -14.53125 L 4.171875 -9.296875 C 4.859375 -10.066406 5.664062 -10.453125 6.59375 -10.453125 C 7.300781 -10.453125 7.863281 -10.257812 8.28125 -9.875 C 8.695312 -9.488281 8.90625 -8.898438 8.90625 -8.109375 C 8.90625 -7.710938 8.851562 -7.265625 8.75 -6.765625 C 8.65625 -6.273438 8.519531 -5.679688 8.34375 -4.984375 C 8.226562 -4.554688 8.125 -4.132812 8.03125 -3.71875 C 7.945312 -3.3125 7.90625 -2.992188 7.90625 -2.765625 C 7.90625 -2.484375 7.96875 -2.265625 8.09375 -2.109375 C 8.21875 -1.960938 8.429688 -1.890625 8.734375 -1.890625 C 9.148438 -1.890625 9.484375 -2.035156 9.734375 -2.328125 C 9.984375 -2.628906 10.234375 -3.09375 10.484375 -3.71875 L 11.34375 -3.71875 C 10.832031 -2.195312 10.238281 -1.175781 9.5625 -0.65625 C 8.894531 -0.132812 8.203125 0.125 7.484375 0.125 Z M 7.484375 0.125 "/></g></g></g><g fill="#000000" fill-opacity="1"><g transform="translate(320.928252, 63.379998)"><g><path d="M 2.96875 0.125 C 1.945312 0.125 1.148438 -0.140625 0.578125 -0.671875 C 0.015625 -1.203125 -0.265625 -2.035156 -0.265625 -3.171875 C -0.265625 -4.128906 -0.0820312 -5.179688 0.28125 -6.328125 C 0.65625 -7.472656 1.265625 -8.460938 2.109375 -9.296875 C 2.953125 -10.140625 4.023438 -10.5625 5.328125 -10.5625 C 6.847656 -10.5625 7.609375 -9.894531 7.609375 -8.5625 C 7.609375 -7.789062 7.382812 -7.078125 6.9375 -6.421875 C 6.5 -5.773438 5.914062 -5.253906 5.1875 -4.859375 C 4.457031 -4.472656 3.675781 -4.25 2.84375 -4.1875 C 2.8125 -3.769531 2.796875 -3.492188 2.796875 -3.359375 C 2.796875 -2.679688 2.910156 -2.222656 3.140625 -1.984375 C 3.378906 -1.742188 3.765625 -1.625 4.296875 -1.625 C 5.046875 -1.625 5.6875 -1.796875 6.21875 -2.140625 C 6.75 -2.484375 7.332031 -3.007812 7.96875 -3.71875 L 8.671875 -3.71875 C 7.140625 -1.15625 5.238281 0.125 2.96875 0.125 Z M 3.015625 -5.1875 C 3.523438 -5.21875 4.007812 -5.394531 4.46875 -5.71875 C 4.9375 -6.050781 5.3125 -6.472656 5.59375 -6.984375 C 5.875 -7.503906 6.015625 -8.046875 6.015625 -8.609375 C 6.015625 -9.179688 5.84375 -9.46875 5.5 -9.46875 C 5 -9.46875 4.507812 -9.03125 4.03125 -8.15625 C 3.550781 -7.28125 3.210938 -6.289062 3.015625 -5.1875 Z M 3.015625 -5.1875 "/></g></g></g><g fill="#000000" fill-opacity="1"><g transform="translate(328.89327, 63.379998)"><g><path d="M 12.609375 0.125 C 11.765625 0.125 11.144531 -0.0976562 10.75 -0.546875 C 10.363281 -0.992188 10.171875 -1.550781 10.171875 -2.21875 C 10.171875 -2.507812 10.203125 -2.835938 10.265625 -3.203125 C 10.335938 -3.566406 10.410156 -3.921875 10.484375 -4.265625 C 10.566406 -4.617188 10.617188 -4.84375 10.640625 -4.9375 C 10.753906 -5.425781 10.859375 -5.90625 10.953125 -6.375 C 11.046875 -6.84375 11.09375 -7.222656 11.09375 -7.515625 C 11.09375 -8.210938 10.847656 -8.5625 10.359375 -8.5625 C 9.992188 -8.5625 9.671875 -8.382812 9.390625 -8.03125 C 9.117188 -7.6875 8.898438 -7.226562 8.734375 -6.65625 L 7.328125 0 L 4.34375 0 L 5.84375 -7.15625 C 5.882812 -7.320312 5.90625 -7.492188 5.90625 -7.671875 C 5.90625 -8.285156 5.703125 -8.59375 5.296875 -8.59375 C 4.898438 -8.59375 4.5625 -8.414062 4.28125 -8.0625 C 4 -7.707031 3.773438 -7.238281 3.609375 -6.65625 L 2.203125 0 L -0.78125 0 L 1.40625 -10.375 L 4.40625 -10.375 L 4.171875 -9.296875 C 4.878906 -10.085938 5.722656 -10.484375 6.703125 -10.484375 C 7.921875 -10.484375 8.632812 -9.882812 8.84375 -8.6875 C 9.601562 -9.863281 10.5625 -10.453125 11.71875 -10.453125 C 12.425781 -10.453125 12.988281 -10.257812 13.40625 -9.875 C 13.820312 -9.488281 14.03125 -8.898438 14.03125 -8.109375 C 14.03125 -7.710938 13.976562 -7.265625 13.875 -6.765625 C 13.78125 -6.273438 13.644531 -5.679688 13.46875 -4.984375 C 13.351562 -4.554688 13.25 -4.132812 13.15625 -3.71875 C 13.070312 -3.3125 13.03125 -2.992188 13.03125 -2.765625 C 13.03125 -2.484375 13.09375 -2.265625 13.21875 -2.109375 C 13.34375 -1.960938 13.554688 -1.890625 13.859375 -1.890625 C 14.273438 -1.890625 14.609375 -2.035156 14.859375 -2.328125 C 15.109375 -2.628906 15.359375 -3.09375 15.609375 -3.71875 L 16.46875 -3.71875 C 15.957031 -2.195312 15.363281 -1.175781 14.6875 -0.65625 C 14.019531 -0.132812 13.328125 0.125 12.609375 0.125 Z M 12.609375 0.125 "/></g></g></g><g fill="#000000" fill-opacity="1"><g transform="translate(344.491429, 63.379998)"><g><path d="M 2.96875 0.125 C 1.945312 0.125 1.148438 -0.140625 0.578125 -0.671875 C 0.015625 -1.203125 -0.265625 -2.035156 -0.265625 -3.171875 C -0.265625 -4.128906 -0.0820312 -5.179688 0.28125 -6.328125 C 0.65625 -7.472656 1.265625 -8.460938 2.109375 -9.296875 C 2.953125 -10.140625 4.023438 -10.5625 5.328125 -10.5625 C 6.847656 -10.5625 7.609375 -9.894531 7.609375 -8.5625 C 7.609375 -7.789062 7.382812 -7.078125 6.9375 -6.421875 C 6.5 -5.773438 5.914062 -5.253906 5.1875 -4.859375 C 4.457031 -4.472656 3.675781 -4.25 2.84375 -4.1875 C 2.8125 -3.769531 2.796875 -3.492188 2.796875 -3.359375 C 2.796875 -2.679688 2.910156 -2.222656 3.140625 -1.984375 C 3.378906 -1.742188 3.765625 -1.625 4.296875 -1.625 C 5.046875 -1.625 5.6875 -1.796875 6.21875 -2.140625 C 6.75 -2.484375 7.332031 -3.007812 7.96875 -3.71875 L 8.671875 -3.71875 C 7.140625 -1.15625 5.238281 0.125 2.96875 0.125 Z M 3.015625 -5.1875 C 3.523438 -5.21875 4.007812 -5.394531 4.46875 -5.71875 C 4.9375 -6.050781 5.3125 -6.472656 5.59375 -6.984375 C 5.875 -7.503906 6.015625 -8.046875 6.015625 -8.609375 C 6.015625 -9.179688 5.84375 -9.46875 5.5 -9.46875 C 5 -9.46875 4.507812 -9.03125 4.03125 -8.15625 C 3.550781 -7.28125 3.210938 -6.289062 3.015625 -5.1875 Z M 3.015625 -5.1875 "/></g></g></g><g fill="#000000" fill-opacity="1"><g transform="translate(352.464825, 63.379998)"><g/></g></g><g fill="#000000" fill-opacity="1"><g transform="translate(122.730465, 25.874998)"><g><path d="M 9.0625 0.09375 C 7.476562 0.09375 6.097656 -0.191406 4.921875 -0.765625 C 3.742188 -1.347656 2.84375 -2.171875 2.21875 -3.234375 C 1.59375 -4.304688 1.28125 -5.546875 1.28125 -6.953125 C 1.28125 -8.921875 1.648438 -10.660156 2.390625 -12.171875 C 3.128906 -13.691406 4.128906 -14.867188 5.390625 -15.703125 C 6.660156 -16.535156 8.070312 -16.953125 9.625 -16.953125 C 11.0625 -16.953125 12.148438 -16.582031 12.890625 -15.84375 C 13.640625 -15.101562 14.015625 -14.128906 14.015625 -12.921875 C 14.015625 -12.109375 13.867188 -11.453125 13.578125 -10.953125 C 13.296875 -10.460938 12.890625 -10.21875 12.359375 -10.21875 C 11.984375 -10.21875 11.6875 -10.300781 11.46875 -10.46875 C 11.257812 -10.644531 11.15625 -10.898438 11.15625 -11.234375 C 11.15625 -11.359375 11.179688 -11.582031 11.234375 -11.90625 C 11.316406 -12.300781 11.359375 -12.617188 11.359375 -12.859375 C 11.359375 -14.078125 10.710938 -14.6875 9.421875 -14.6875 C 8.535156 -14.6875 7.691406 -14.394531 6.890625 -13.8125 C 6.097656 -13.238281 5.453125 -12.394531 4.953125 -11.28125 C 4.460938 -10.175781 4.21875 -8.851562 4.21875 -7.3125 C 4.21875 -5.71875 4.664062 -4.484375 5.5625 -3.609375 C 6.457031 -2.734375 7.773438 -2.296875 9.515625 -2.296875 C 10.378906 -2.296875 11.253906 -2.40625 12.140625 -2.625 C 13.035156 -2.84375 14.019531 -3.179688 15.09375 -3.640625 C 15.300781 -3.722656 15.46875 -3.765625 15.59375 -3.765625 C 15.8125 -3.765625 15.972656 -3.679688 16.078125 -3.515625 C 16.179688 -3.359375 16.234375 -3.15625 16.234375 -2.90625 C 16.234375 -2.09375 15.796875 -1.488281 14.921875 -1.09375 C 13.972656 -0.6875 12.988281 -0.382812 11.96875 -0.1875 C 10.945312 0 9.976562 0.09375 9.0625 0.09375 Z M 9.0625 0.09375 "/></g></g></g><g fill="#000000" fill-opacity="1"><g transform="translate(136.445053, 25.874998)"><g><path d="M 2.375 0.09375 C 1.875 0.09375 1.519531 -0.171875 1.3125 -0.703125 C 1.101562 -1.234375 1 -2.085938 1 -3.265625 C 1 -4.992188 1.242188 -6.640625 1.734375 -8.203125 C 1.859375 -8.585938 2.054688 -8.867188 2.328125 -9.046875 C 2.597656 -9.222656 2.984375 -9.3125 3.484375 -9.3125 C 3.742188 -9.3125 3.925781 -9.28125 4.03125 -9.21875 C 4.144531 -9.15625 4.203125 -9.03125 4.203125 -8.84375 C 4.203125 -8.625 4.101562 -8.144531 3.90625 -7.40625 C 3.769531 -6.863281 3.660156 -6.394531 3.578125 -6 C 3.492188 -5.601562 3.425781 -5.109375 3.375 -4.515625 C 3.820312 -5.660156 4.316406 -6.59375 4.859375 -7.3125 C 5.410156 -8.039062 5.945312 -8.554688 6.46875 -8.859375 C 7 -9.160156 7.484375 -9.3125 7.921875 -9.3125 C 8.785156 -9.3125 9.21875 -8.878906 9.21875 -8.015625 C 9.21875 -7.847656 9.160156 -7.429688 9.046875 -6.765625 C 8.929688 -6.222656 8.875 -5.890625 8.875 -5.765625 C 8.875 -5.296875 9.039062 -5.0625 9.375 -5.0625 C 9.75 -5.0625 10.226562 -5.351562 10.8125 -5.9375 C 10.988281 -6.113281 11.171875 -6.203125 11.359375 -6.203125 C 11.535156 -6.203125 11.671875 -6.125 11.765625 -5.96875 C 11.867188 -5.8125 11.921875 -5.609375 11.921875 -5.359375 C 11.921875 -4.867188 11.785156 -4.484375 11.515625 -4.203125 C 11.140625 -3.816406 10.703125 -3.484375 10.203125 -3.203125 C 9.703125 -2.929688 9.175781 -2.796875 8.625 -2.796875 C 7.914062 -2.796875 7.375 -2.972656 7 -3.328125 C 6.632812 -3.691406 6.453125 -4.179688 6.453125 -4.796875 C 6.453125 -4.992188 6.472656 -5.195312 6.515625 -5.40625 C 6.546875 -5.664062 6.5625 -5.84375 6.5625 -5.9375 C 6.5625 -6.15625 6.488281 -6.265625 6.34375 -6.265625 C 6.144531 -6.265625 5.878906 -6.039062 5.546875 -5.59375 C 5.222656 -5.144531 4.898438 -4.550781 4.578125 -3.8125 C 4.253906 -3.082031 3.992188 -2.3125 3.796875 -1.5 C 3.648438 -0.875 3.476562 -0.453125 3.28125 -0.234375 C 3.09375 -0.015625 2.789062 0.09375 2.375 0.09375 Z M 2.375 0.09375 "/></g></g></g><g fill="#000000" fill-opacity="1"><g transform="translate(145.541468, 25.874998)"><g><path d="M 9.875 -4.453125 C 10.050781 -4.453125 10.1875 -4.375 10.28125 -4.21875 C 10.382812 -4.0625 10.4375 -3.84375 10.4375 -3.5625 C 10.4375 -3.03125 10.3125 -2.613281 10.0625 -2.3125 C 9.5625 -1.71875 8.863281 -1.164062 7.96875 -0.65625 C 7.070312 -0.15625 6.109375 0.09375 5.078125 0.09375 C 3.679688 0.09375 2.59375 -0.285156 1.8125 -1.046875 C 1.039062 -1.804688 0.65625 -2.84375 0.65625 -4.15625 C 0.65625 -5.082031 0.847656 -5.941406 1.234375 -6.734375 C 1.617188 -7.523438 2.15625 -8.148438 2.84375 -8.609375 C 3.53125 -9.078125 4.3125 -9.3125 5.1875 -9.3125 C 5.957031 -9.3125 6.570312 -9.082031 7.03125 -8.625 C 7.5 -8.164062 7.734375 -7.546875 7.734375 -6.765625 C 7.734375 -5.835938 7.40625 -5.046875 6.75 -4.390625 C 6.09375 -3.734375 4.976562 -3.207031 3.40625 -2.8125 C 3.738281 -2.207031 4.367188 -1.90625 5.296875 -1.90625 C 5.898438 -1.90625 6.582031 -2.113281 7.34375 -2.53125 C 8.113281 -2.945312 8.78125 -3.5 9.34375 -4.1875 C 9.5 -4.363281 9.675781 -4.453125 9.875 -4.453125 Z M 4.84375 -7.359375 C 4.34375 -7.359375 3.921875 -7.070312 3.578125 -6.5 C 3.242188 -5.925781 3.078125 -5.234375 3.078125 -4.421875 L 3.078125 -4.375 C 3.867188 -4.5625 4.488281 -4.84375 4.9375 -5.21875 C 5.394531 -5.59375 5.625 -6.023438 5.625 -6.515625 C 5.625 -6.773438 5.550781 -6.976562 5.40625 -7.125 C 5.269531 -7.28125 5.082031 -7.359375 4.84375 -7.359375 Z M 4.84375 -7.359375 "/></g></g></g><g fill="#000000" fill-opacity="1"><g transform="translate(153.398363, 25.874998)"><g><path d="M 3.421875 0.09375 C 2.597656 0.09375 1.9375 -0.203125 1.4375 -0.796875 C 0.945312 -1.398438 0.703125 -2.1875 0.703125 -3.15625 C 0.703125 -4.226562 0.945312 -5.238281 1.4375 -6.1875 C 1.9375 -7.144531 2.59375 -7.910156 3.40625 -8.484375 C 4.226562 -9.066406 5.097656 -9.359375 6.015625 -9.359375 C 6.304688 -9.359375 6.503906 -9.300781 6.609375 -9.1875 C 6.710938 -9.070312 6.796875 -8.867188 6.859375 -8.578125 C 7.140625 -8.628906 7.429688 -8.65625 7.734375 -8.65625 C 8.390625 -8.65625 8.71875 -8.421875 8.71875 -7.953125 C 8.71875 -7.679688 8.617188 -7.015625 8.421875 -5.953125 C 8.109375 -4.421875 7.953125 -3.359375 7.953125 -2.765625 C 7.953125 -2.554688 8.003906 -2.390625 8.109375 -2.265625 C 8.210938 -2.148438 8.34375 -2.09375 8.5 -2.09375 C 8.75 -2.09375 9.050781 -2.253906 9.40625 -2.578125 C 9.769531 -2.910156 10.257812 -3.445312 10.875 -4.1875 C 11.039062 -4.363281 11.222656 -4.453125 11.421875 -4.453125 C 11.597656 -4.453125 11.734375 -4.375 11.828125 -4.21875 C 11.929688 -4.0625 11.984375 -3.84375 11.984375 -3.5625 C 11.984375 -3.03125 11.851562 -2.613281 11.59375 -2.3125 C 11.050781 -1.632812 10.472656 -1.0625 9.859375 -0.59375 C 9.242188 -0.132812 8.648438 0.09375 8.078125 0.09375 C 7.640625 0.09375 7.234375 -0.0507812 6.859375 -0.34375 C 6.492188 -0.644531 6.222656 -1.054688 6.046875 -1.578125 C 5.347656 -0.460938 4.472656 0.09375 3.421875 0.09375 Z M 4.140625 -1.921875 C 4.429688 -1.921875 4.707031 -2.09375 4.96875 -2.4375 C 5.238281 -2.78125 5.4375 -3.238281 5.5625 -3.8125 L 6.296875 -7.5 C 5.734375 -7.488281 5.21875 -7.28125 4.75 -6.875 C 4.28125 -6.46875 3.90625 -5.929688 3.625 -5.265625 C 3.34375 -4.597656 3.203125 -3.890625 3.203125 -3.140625 C 3.203125 -2.722656 3.285156 -2.414062 3.453125 -2.21875 C 3.617188 -2.019531 3.847656 -1.921875 4.140625 -1.921875 Z M 4.140625 -1.921875 "/></g></g></g><g fill="#000000" fill-opacity="1"><g transform="translate(162.79466, 25.874998)"><g><path d="M 9.875 -4.453125 C 10.050781 -4.453125 10.1875 -4.375 10.28125 -4.21875 C 10.382812 -4.0625 10.4375 -3.84375 10.4375 -3.5625 C 10.4375 -3.03125 10.3125 -2.613281 10.0625 -2.3125 C 9.488281 -1.613281 8.859375 -1.035156 8.171875 -0.578125 C 7.492188 -0.128906 6.71875 0.09375 5.84375 0.09375 C 3.125 0.09375 1.765625 -1.816406 1.765625 -5.640625 C 1.765625 -6.222656 1.78125 -6.816406 1.8125 -7.421875 L 1.046875 -7.421875 C 0.640625 -7.421875 0.363281 -7.492188 0.21875 -7.640625 C 0.0820312 -7.785156 0.015625 -8.019531 0.015625 -8.34375 C 0.015625 -9.082031 0.316406 -9.453125 0.921875 -9.453125 L 2.0625 -9.453125 C 2.289062 -10.921875 2.632812 -12.257812 3.09375 -13.46875 C 3.5625 -14.6875 4.125 -15.65625 4.78125 -16.375 C 5.445312 -17.09375 6.160156 -17.453125 6.921875 -17.453125 C 7.484375 -17.453125 7.921875 -17.207031 8.234375 -16.71875 C 8.554688 -16.226562 8.71875 -15.609375 8.71875 -14.859375 C 8.71875 -12.796875 7.851562 -10.992188 6.125 -9.453125 L 8.359375 -9.453125 C 8.578125 -9.453125 8.726562 -9.40625 8.8125 -9.3125 C 8.90625 -9.226562 8.953125 -9.054688 8.953125 -8.796875 C 8.953125 -7.878906 8.203125 -7.421875 6.703125 -7.421875 L 4.265625 -7.421875 C 4.234375 -6.753906 4.21875 -6.234375 4.21875 -5.859375 C 4.21875 -4.472656 4.378906 -3.5 4.703125 -2.9375 C 5.035156 -2.375 5.554688 -2.09375 6.265625 -2.09375 C 6.835938 -2.09375 7.34375 -2.265625 7.78125 -2.609375 C 8.21875 -2.960938 8.738281 -3.488281 9.34375 -4.1875 C 9.5 -4.363281 9.675781 -4.453125 9.875 -4.453125 Z M 6.375 -15.546875 C 6.175781 -15.546875 5.953125 -15.296875 5.703125 -14.796875 C 5.460938 -14.296875 5.234375 -13.597656 5.015625 -12.703125 C 4.796875 -11.816406 4.609375 -10.835938 4.453125 -9.765625 C 5.242188 -10.441406 5.832031 -11.203125 6.21875 -12.046875 C 6.613281 -12.890625 6.8125 -13.660156 6.8125 -14.359375 C 6.8125 -15.148438 6.664062 -15.546875 6.375 -15.546875 Z M 6.375 -15.546875 "/></g></g></g><g fill="#000000" fill-opacity="1"><g transform="translate(170.651555, 25.874998)"><g><path d="M 3.421875 0.09375 C 2.554688 0.09375 1.925781 -0.207031 1.53125 -0.8125 C 1.132812 -1.425781 0.9375 -2.242188 0.9375 -3.265625 C 0.9375 -3.859375 1.015625 -4.625 1.171875 -5.5625 C 1.328125 -6.507812 1.523438 -7.390625 1.765625 -8.203125 C 1.878906 -8.628906 2.035156 -8.921875 2.234375 -9.078125 C 2.441406 -9.234375 2.765625 -9.3125 3.203125 -9.3125 C 3.878906 -9.3125 4.21875 -9.085938 4.21875 -8.640625 C 4.21875 -8.304688 4.09375 -7.53125 3.84375 -6.3125 C 3.519531 -4.851562 3.359375 -3.863281 3.359375 -3.34375 C 3.359375 -2.9375 3.410156 -2.625 3.515625 -2.40625 C 3.628906 -2.195312 3.8125 -2.09375 4.0625 -2.09375 C 4.300781 -2.09375 4.597656 -2.257812 4.953125 -2.59375 C 5.316406 -2.925781 5.800781 -3.457031 6.40625 -4.1875 C 6.5625 -4.363281 6.738281 -4.453125 6.9375 -4.453125 C 7.113281 -4.453125 7.25 -4.375 7.34375 -4.21875 C 7.445312 -4.0625 7.5 -3.84375 7.5 -3.5625 C 7.5 -3.03125 7.375 -2.613281 7.125 -2.3125 C 5.800781 -0.707031 4.566406 0.09375 3.421875 0.09375 Z M 3.40625 -10.640625 C 2.851562 -10.640625 2.4375 -10.769531 2.15625 -11.03125 C 1.875 -11.289062 1.734375 -11.65625 1.734375 -12.125 C 1.734375 -12.582031 1.914062 -12.96875 2.28125 -13.28125 C 2.644531 -13.601562 3.101562 -13.765625 3.65625 -13.765625 C 4.144531 -13.765625 4.539062 -13.644531 4.84375 -13.40625 C 5.15625 -13.164062 5.3125 -12.820312 5.3125 -12.375 C 5.3125 -11.84375 5.132812 -11.421875 4.78125 -11.109375 C 4.4375 -10.796875 3.976562 -10.640625 3.40625 -10.640625 Z M 3.40625 -10.640625 "/></g></g></g><g fill="#000000" fill-opacity="1"><g transform="translate(175.569619, 25.874998)"><g><path d="M 10.859375 -6.078125 C 10.898438 -6.085938 10.96875 -6.09375 11.0625 -6.09375 C 11.257812 -6.09375 11.410156 -6.023438 11.515625 -5.890625 C 11.628906 -5.765625 11.6875 -5.585938 11.6875 -5.359375 C 11.6875 -4.941406 11.601562 -4.617188 11.4375 -4.390625 C 11.28125 -4.160156 11.039062 -3.988281 10.71875 -3.875 C 10.101562 -3.675781 9.453125 -3.578125 8.765625 -3.578125 C 8.171875 -3.578125 7.613281 -3.65625 7.09375 -3.8125 C 6.707031 -3.1875 6.28125 -2.539062 5.8125 -1.875 C 5.28125 -1.113281 4.820312 -0.59375 4.4375 -0.3125 C 4.050781 -0.0390625 3.613281 0.09375 3.125 0.09375 C 2.570312 0.09375 2.140625 -0.117188 1.828125 -0.546875 C 1.515625 -0.972656 1.316406 -1.644531 1.234375 -2.5625 C 1.078125 -4.425781 1 -6.054688 1 -7.453125 L 1 -8.15625 C 1.007812 -8.59375 1.128906 -8.898438 1.359375 -9.078125 C 1.585938 -9.253906 1.925781 -9.34375 2.375 -9.34375 C 2.726562 -9.34375 2.988281 -9.265625 3.15625 -9.109375 C 3.320312 -8.953125 3.40625 -8.695312 3.40625 -8.34375 C 3.40625 -6.8125 3.5 -4.816406 3.6875 -2.359375 C 4.476562 -3.546875 5.078125 -4.492188 5.484375 -5.203125 C 5.285156 -5.585938 5.1875 -6.046875 5.1875 -6.578125 C 5.1875 -7.035156 5.285156 -7.476562 5.484375 -7.90625 C 5.679688 -8.332031 5.953125 -8.675781 6.296875 -8.9375 C 6.640625 -9.207031 7.035156 -9.34375 7.484375 -9.34375 C 7.867188 -9.34375 8.179688 -9.203125 8.421875 -8.921875 C 8.660156 -8.648438 8.78125 -8.253906 8.78125 -7.734375 C 8.78125 -7.140625 8.617188 -6.457031 8.296875 -5.6875 C 8.804688 -5.707031 9.476562 -5.804688 10.3125 -5.984375 Z M 10.859375 -6.078125 "/></g></g></g><g fill="#000000" fill-opacity="1"><g transform="translate(184.546078, 25.874998)"><g><path d="M 9.875 -4.453125 C 10.050781 -4.453125 10.1875 -4.375 10.28125 -4.21875 C 10.382812 -4.0625 10.4375 -3.84375 10.4375 -3.5625 C 10.4375 -3.03125 10.3125 -2.613281 10.0625 -2.3125 C 9.5625 -1.71875 8.863281 -1.164062 7.96875 -0.65625 C 7.070312 -0.15625 6.109375 0.09375 5.078125 0.09375 C 3.679688 0.09375 2.59375 -0.285156 1.8125 -1.046875 C 1.039062 -1.804688 0.65625 -2.84375 0.65625 -4.15625 C 0.65625 -5.082031 0.847656 -5.941406 1.234375 -6.734375 C 1.617188 -7.523438 2.15625 -8.148438 2.84375 -8.609375 C 3.53125 -9.078125 4.3125 -9.3125 5.1875 -9.3125 C 5.957031 -9.3125 6.570312 -9.082031 7.03125 -8.625 C 7.5 -8.164062 7.734375 -7.546875 7.734375 -6.765625 C 7.734375 -5.835938 7.40625 -5.046875 6.75 -4.390625 C 6.09375 -3.734375 4.976562 -3.207031 3.40625 -2.8125 C 3.738281 -2.207031 4.367188 -1.90625 5.296875 -1.90625 C 5.898438 -1.90625 6.582031 -2.113281 7.34375 -2.53125 C 8.113281 -2.945312 8.78125 -3.5 9.34375 -4.1875 C 9.5 -4.363281 9.675781 -4.453125 9.875 -4.453125 Z M 4.84375 -7.359375 C 4.34375 -7.359375 3.921875 -7.070312 3.578125 -6.5 C 3.242188 -5.925781 3.078125 -5.234375 3.078125 -4.421875 L 3.078125 -4.375 C 3.867188 -4.5625 4.488281 -4.84375 4.9375 -5.21875 C 5.394531 -5.59375 5.625 -6.023438 5.625 -6.515625 C 5.625 -6.773438 5.550781 -6.976562 5.40625 -7.125 C 5.269531 -7.28125 5.082031 -7.359375 4.84375 -7.359375 Z M 4.84375 -7.359375 "/></g></g></g><g fill="#000000" fill-opacity="1"><g transform="translate(192.402973, 25.874998)"><g/></g></g><g fill="#000000" fill-opacity="1"><g transform="translate(197.700878, 25.874998)"><g><path d="M 16.8125 -16.59375 C 17.226562 -16.519531 17.539062 -16.378906 17.75 -16.171875 C 17.957031 -15.972656 18.0625 -15.742188 18.0625 -15.484375 C 18.0625 -15.035156 17.9375 -14.710938 17.6875 -14.515625 C 17.4375 -14.316406 17.046875 -14.238281 16.515625 -14.28125 C 15.316406 -14.375 14.378906 -14.4375 13.703125 -14.46875 C 13.035156 -14.5 12.15625 -14.523438 11.0625 -14.546875 C 10.5625 -12.085938 10.109375 -9.617188 9.703125 -7.140625 C 9.554688 -6.234375 9.398438 -5.179688 9.234375 -3.984375 C 9.078125 -2.796875 8.972656 -1.832031 8.921875 -1.09375 C 8.890625 -0.707031 8.726562 -0.410156 8.4375 -0.203125 C 8.144531 -0.00390625 7.789062 0.09375 7.375 0.09375 C 6.9375 0.09375 6.597656 -0.0078125 6.359375 -0.21875 C 6.117188 -0.4375 6 -0.71875 6 -1.0625 C 6 -1.382812 6.046875 -1.914062 6.140625 -2.65625 C 6.242188 -3.394531 6.363281 -4.171875 6.5 -4.984375 C 6.644531 -5.796875 6.757812 -6.5 6.84375 -7.09375 C 6.988281 -8.113281 7.15625 -9.125 7.34375 -10.125 C 7.53125 -11.125 7.71875 -12.066406 7.90625 -12.953125 C 7.9375 -13.160156 7.976562 -13.394531 8.03125 -13.65625 C 8.09375 -13.914062 8.15625 -14.203125 8.21875 -14.515625 C 6.914062 -14.472656 5.890625 -14.363281 5.140625 -14.1875 C 4.390625 -14.019531 3.859375 -13.78125 3.546875 -13.46875 C 3.234375 -13.15625 3.078125 -12.753906 3.078125 -12.265625 C 3.078125 -11.804688 3.210938 -11.367188 3.484375 -10.953125 C 3.535156 -10.859375 3.5625 -10.757812 3.5625 -10.65625 C 3.5625 -10.40625 3.410156 -10.171875 3.109375 -9.953125 C 2.804688 -9.734375 2.5 -9.625 2.1875 -9.625 C 1.957031 -9.625 1.769531 -9.6875 1.625 -9.8125 C 1.351562 -10.039062 1.128906 -10.363281 0.953125 -10.78125 C 0.785156 -11.207031 0.703125 -11.6875 0.703125 -12.21875 C 0.703125 -13.351562 1.070312 -14.265625 1.8125 -14.953125 C 2.550781 -15.640625 3.675781 -16.140625 5.1875 -16.453125 C 6.695312 -16.773438 8.640625 -16.9375 11.015625 -16.9375 C 12.484375 -16.9375 13.65625 -16.910156 14.53125 -16.859375 C 15.40625 -16.804688 16.164062 -16.71875 16.8125 -16.59375 Z M 16.8125 -16.59375 "/></g></g></g><g fill="#000000" fill-opacity="1"><g transform="translate(211.635374, 25.874998)"><g><path d="M 12.0625 -4.453125 C 12.226562 -4.453125 12.363281 -4.375 12.46875 -4.21875 C 12.570312 -4.0625 12.625 -3.84375 12.625 -3.5625 C 12.625 -3.03125 12.492188 -2.613281 12.234375 -2.3125 C 11.617188 -1.613281 10.988281 -1.035156 10.34375 -0.578125 C 9.695312 -0.128906 8.960938 0.09375 8.140625 0.09375 C 7.460938 0.09375 6.945312 -0.0976562 6.59375 -0.484375 C 6.25 -0.878906 6.078125 -1.453125 6.078125 -2.203125 C 6.078125 -2.578125 6.171875 -3.242188 6.359375 -4.203125 C 6.535156 -5.035156 6.625 -5.613281 6.625 -5.9375 C 6.625 -6.15625 6.550781 -6.265625 6.40625 -6.265625 C 6.226562 -6.265625 5.976562 -6.039062 5.65625 -5.59375 C 5.34375 -5.144531 5.023438 -4.550781 4.703125 -3.8125 C 4.378906 -3.082031 4.117188 -2.3125 3.921875 -1.5 C 3.671875 -0.4375 3.046875 0.09375 2.046875 0.09375 C 1.640625 0.09375 1.375 -0.046875 1.25 -0.328125 C 1.125 -0.617188 1.0625 -1.132812 1.0625 -1.875 C 1.0625 -2.300781 1.066406 -2.644531 1.078125 -2.90625 L 1.09375 -4.5 C 1.09375 -6.550781 1.300781 -8.691406 1.71875 -10.921875 C 2.144531 -13.148438 2.765625 -15.019531 3.578125 -16.53125 C 4.398438 -18.039062 5.390625 -18.796875 6.546875 -18.796875 C 7.148438 -18.796875 7.640625 -18.53125 8.015625 -18 C 8.398438 -17.476562 8.59375 -16.796875 8.59375 -15.953125 C 8.59375 -14.609375 8.195312 -13.210938 7.40625 -11.765625 C 6.625 -10.316406 5.347656 -8.628906 3.578125 -6.703125 C 3.535156 -6.003906 3.515625 -5.289062 3.515625 -4.5625 C 3.960938 -5.695312 4.453125 -6.617188 4.984375 -7.328125 C 5.523438 -8.046875 6.054688 -8.554688 6.578125 -8.859375 C 7.109375 -9.160156 7.597656 -9.3125 8.046875 -9.3125 C 8.910156 -9.3125 9.34375 -8.878906 9.34375 -8.015625 C 9.34375 -7.492188 9.195312 -6.554688 8.90625 -5.203125 C 8.644531 -4.035156 8.515625 -3.269531 8.515625 -2.90625 C 8.515625 -2.363281 8.707031 -2.09375 9.09375 -2.09375 C 9.363281 -2.09375 9.679688 -2.253906 10.046875 -2.578125 C 10.410156 -2.910156 10.898438 -3.445312 11.515625 -4.1875 C 11.679688 -4.363281 11.863281 -4.453125 12.0625 -4.453125 Z M 6.125 -16.8125 C 5.882812 -16.8125 5.613281 -16.46875 5.3125 -15.78125 C 5.019531 -15.101562 4.738281 -14.179688 4.46875 -13.015625 C 4.195312 -11.847656 3.972656 -10.578125 3.796875 -9.203125 C 4.628906 -10.171875 5.3125 -11.226562 5.84375 -12.375 C 6.382812 -13.519531 6.65625 -14.5625 6.65625 -15.5 C 6.65625 -15.925781 6.609375 -16.25 6.515625 -16.46875 C 6.421875 -16.695312 6.289062 -16.8125 6.125 -16.8125 Z M 6.125 -16.8125 "/></g></g></g><g fill="#000000" fill-opacity="1"><g transform="translate(221.671419, 25.874998)"><g><path d="M 9.875 -4.453125 C 10.050781 -4.453125 10.1875 -4.375 10.28125 -4.21875 C 10.382812 -4.0625 10.4375 -3.84375 10.4375 -3.5625 C 10.4375 -3.03125 10.3125 -2.613281 10.0625 -2.3125 C 9.5625 -1.71875 8.863281 -1.164062 7.96875 -0.65625 C 7.070312 -0.15625 6.109375 0.09375 5.078125 0.09375 C 3.679688 0.09375 2.59375 -0.285156 1.8125 -1.046875 C 1.039062 -1.804688 0.65625 -2.84375 0.65625 -4.15625 C 0.65625 -5.082031 0.847656 -5.941406 1.234375 -6.734375 C 1.617188 -7.523438 2.15625 -8.148438 2.84375 -8.609375 C 3.53125 -9.078125 4.3125 -9.3125 5.1875 -9.3125 C 5.957031 -9.3125 6.570312 -9.082031 7.03125 -8.625 C 7.5 -8.164062 7.734375 -7.546875 7.734375 -6.765625 C 7.734375 -5.835938 7.40625 -5.046875 6.75 -4.390625 C 6.09375 -3.734375 4.976562 -3.207031 3.40625 -2.8125 C 3.738281 -2.207031 4.367188 -1.90625 5.296875 -1.90625 C 5.898438 -1.90625 6.582031 -2.113281 7.34375 -2.53125 C 8.113281 -2.945312 8.78125 -3.5 9.34375 -4.1875 C 9.5 -4.363281 9.675781 -4.453125 9.875 -4.453125 Z M 4.84375 -7.359375 C 4.34375 -7.359375 3.921875 -7.070312 3.578125 -6.5 C 3.242188 -5.925781 3.078125 -5.234375 3.078125 -4.421875 L 3.078125 -4.375 C 3.867188 -4.5625 4.488281 -4.84375 4.9375 -5.21875 C 5.394531 -5.59375 5.625 -6.023438 5.625 -6.515625 C 5.625 -6.773438 5.550781 -6.976562 5.40625 -7.125 C 5.269531 -7.28125 5.082031 -7.359375 4.84375 -7.359375 Z M 4.84375 -7.359375 "/></g></g></g><g fill="#000000" fill-opacity="1"><g transform="translate(229.528314, 25.874998)"><g><path d="M 2.375 0.09375 C 1.875 0.09375 1.519531 -0.171875 1.3125 -0.703125 C 1.101562 -1.234375 1 -2.085938 1 -3.265625 C 1 -4.992188 1.242188 -6.640625 1.734375 -8.203125 C 1.859375 -8.585938 2.054688 -8.867188 2.328125 -9.046875 C 2.597656 -9.222656 2.984375 -9.3125 3.484375 -9.3125 C 3.742188 -9.3125 3.925781 -9.28125 4.03125 -9.21875 C 4.144531 -9.15625 4.203125 -9.03125 4.203125 -8.84375 C 4.203125 -8.625 4.101562 -8.144531 3.90625 -7.40625 C 3.769531 -6.863281 3.660156 -6.394531 3.578125 -6 C 3.492188 -5.613281 3.425781 -5.128906 3.375 -4.546875 C 3.738281 -5.578125 4.171875 -6.453125 4.671875 -7.171875 C 5.171875 -7.898438 5.679688 -8.4375 6.203125 -8.78125 C 6.734375 -9.132812 7.234375 -9.3125 7.703125 -9.3125 C 8.171875 -9.3125 8.5 -9.207031 8.6875 -9 C 8.882812 -8.789062 8.984375 -8.460938 8.984375 -8.015625 C 8.984375 -7.585938 8.851562 -6.816406 8.59375 -5.703125 C 8.488281 -5.222656 8.414062 -4.863281 8.375 -4.625 C 9.039062 -6.257812 9.78125 -7.445312 10.59375 -8.1875 C 11.40625 -8.9375 12.164062 -9.3125 12.875 -9.3125 C 13.75 -9.3125 14.1875 -8.878906 14.1875 -8.015625 C 14.1875 -7.492188 14.035156 -6.554688 13.734375 -5.203125 C 13.484375 -4.035156 13.359375 -3.269531 13.359375 -2.90625 C 13.359375 -2.363281 13.550781 -2.09375 13.9375 -2.09375 C 14.207031 -2.09375 14.523438 -2.253906 14.890625 -2.578125 C 15.253906 -2.910156 15.742188 -3.445312 16.359375 -4.1875 C 16.515625 -4.363281 16.695312 -4.453125 16.90625 -4.453125 C 17.070312 -4.453125 17.203125 -4.375 17.296875 -4.21875 C 17.398438 -4.0625 17.453125 -3.84375 17.453125 -3.5625 C 17.453125 -3.03125 17.328125 -2.613281 17.078125 -2.3125 C 16.503906 -1.613281 15.882812 -1.035156 15.21875 -0.578125 C 14.5625 -0.128906 13.816406 0.09375 12.984375 0.09375 C 12.296875 0.09375 11.78125 -0.0976562 11.4375 -0.484375 C 11.09375 -0.878906 10.921875 -1.453125 10.921875 -2.203125 C 10.921875 -2.578125 11.015625 -3.242188 11.203125 -4.203125 C 11.367188 -5.035156 11.453125 -5.613281 11.453125 -5.9375 C 11.453125 -6.15625 11.378906 -6.265625 11.234375 -6.265625 C 11.066406 -6.265625 10.820312 -6.039062 10.5 -5.59375 C 10.175781 -5.144531 9.851562 -4.550781 9.53125 -3.8125 C 9.21875 -3.082031 8.960938 -2.3125 8.765625 -1.5 C 8.617188 -0.863281 8.445312 -0.4375 8.25 -0.21875 C 8.050781 -0.0078125 7.738281 0.09375 7.3125 0.09375 C 6.875 0.09375 6.546875 -0.113281 6.328125 -0.53125 C 6.109375 -0.945312 6 -1.457031 6 -2.0625 C 6 -2.5625 6.066406 -3.296875 6.203125 -4.265625 C 6.304688 -5.117188 6.359375 -5.675781 6.359375 -5.9375 C 6.359375 -6.15625 6.285156 -6.265625 6.140625 -6.265625 C 5.941406 -6.265625 5.6875 -6.019531 5.375 -5.53125 C 5.070312 -5.050781 4.773438 -4.4375 4.484375 -3.6875 C 4.203125 -2.945312 3.972656 -2.21875 3.796875 -1.5 C 3.648438 -0.875 3.476562 -0.453125 3.28125 -0.234375 C 3.09375 -0.015625 2.789062 0.09375 2.375 0.09375 Z M 2.375 0.09375 "/></g></g></g><g fill="#000000" fill-opacity="1"><g transform="translate(244.402451, 25.874998)"><g><path d="M 9.875 -4.453125 C 10.050781 -4.453125 10.1875 -4.375 10.28125 -4.21875 C 10.382812 -4.0625 10.4375 -3.84375 10.4375 -3.5625 C 10.4375 -3.03125 10.3125 -2.613281 10.0625 -2.3125 C 9.5625 -1.71875 8.863281 -1.164062 7.96875 -0.65625 C 7.070312 -0.15625 6.109375 0.09375 5.078125 0.09375 C 3.679688 0.09375 2.59375 -0.285156 1.8125 -1.046875 C 1.039062 -1.804688 0.65625 -2.84375 0.65625 -4.15625 C 0.65625 -5.082031 0.847656 -5.941406 1.234375 -6.734375 C 1.617188 -7.523438 2.15625 -8.148438 2.84375 -8.609375 C 3.53125 -9.078125 4.3125 -9.3125 5.1875 -9.3125 C 5.957031 -9.3125 6.570312 -9.082031 7.03125 -8.625 C 7.5 -8.164062 7.734375 -7.546875 7.734375 -6.765625 C 7.734375 -5.835938 7.40625 -5.046875 6.75 -4.390625 C 6.09375 -3.734375 4.976562 -3.207031 3.40625 -2.8125 C 3.738281 -2.207031 4.367188 -1.90625 5.296875 -1.90625 C 5.898438 -1.90625 6.582031 -2.113281 7.34375 -2.53125 C 8.113281 -2.945312 8.78125 -3.5 9.34375 -4.1875 C 9.5 -4.363281 9.675781 -4.453125 9.875 -4.453125 Z M 4.84375 -7.359375 C 4.34375 -7.359375 3.921875 -7.070312 3.578125 -6.5 C 3.242188 -5.925781 3.078125 -5.234375 3.078125 -4.421875 L 3.078125 -4.375 C 3.867188 -4.5625 4.488281 -4.84375 4.9375 -5.21875 C 5.394531 -5.59375 5.625 -6.023438 5.625 -6.515625 C 5.625 -6.773438 5.550781 -6.976562 5.40625 -7.125 C 5.269531 -7.28125 5.082031 -7.359375 4.84375 -7.359375 Z M 4.84375 -7.359375 "/></g></g></g><g fill="#000000" fill-opacity="1"><g transform="translate(23.777346, 61.879998)"><g><path d="M 4.09375 1.625 C 3.257812 1.625 2.5625 1.410156 2 0.984375 C 1.445312 0.566406 1.039062 0.015625 0.78125 -0.671875 C 0.53125 -1.367188 0.40625 -2.125 0.40625 -2.9375 C 0.40625 -4.53125 0.796875 -6.144531 1.578125 -7.78125 C 2.367188 -9.425781 3.363281 -10.78125 4.5625 -11.84375 C 5.757812 -12.914062 6.9375 -13.453125 8.09375 -13.453125 C 8.632812 -13.453125 9.054688 -13.316406 9.359375 -13.046875 C 9.660156 -12.785156 9.8125 -12.382812 9.8125 -11.84375 C 9.8125 -11.351562 9.695312 -10.789062 9.46875 -10.15625 C 9.25 -9.519531 8.972656 -8.976562 8.640625 -8.53125 C 8.304688 -8.082031 7.976562 -7.859375 7.65625 -7.859375 C 7.40625 -7.859375 7.207031 -8 7.0625 -8.28125 C 7.53125 -8.8125 7.984375 -9.445312 8.421875 -10.1875 C 8.859375 -10.9375 9.078125 -11.554688 9.078125 -12.046875 C 9.078125 -12.304688 9 -12.507812 8.84375 -12.65625 C 8.695312 -12.8125 8.46875 -12.890625 8.15625 -12.890625 C 7.289062 -12.890625 6.363281 -12.328125 5.375 -11.203125 C 4.394531 -10.085938 3.570312 -8.71875 2.90625 -7.09375 C 2.238281 -5.476562 1.90625 -3.988281 1.90625 -2.625 C 1.90625 -1.59375 2.125 -0.734375 2.5625 -0.046875 C 3 0.640625 3.660156 0.984375 4.546875 0.984375 C 5.179688 0.984375 5.828125 0.800781 6.484375 0.4375 C 7.148438 0.0703125 7.753906 -0.410156 8.296875 -1.015625 C 8.847656 -1.628906 9.289062 -2.300781 9.625 -3.03125 L 9.890625 -2.84375 C 9.222656 -1.519531 8.382812 -0.445312 7.375 0.375 C 6.375 1.207031 5.28125 1.625 4.09375 1.625 Z M 4.09375 1.625 "/></g></g></g><g fill="#000000" fill-opacity="1"><g transform="translate(33.758562, 61.879998)"><g><path d="M 3.234375 0.484375 C 2.804688 0.484375 2.472656 0.367188 2.234375 0.140625 C 1.992188 -0.078125 1.875 -0.367188 1.875 -0.734375 C 1.875 -1.148438 2.050781 -1.757812 2.40625 -2.5625 C 2.570312 -2.96875 2.695312 -3.289062 2.78125 -3.53125 C 2.863281 -3.78125 2.90625 -4.015625 2.90625 -4.234375 C 2.90625 -4.535156 2.832031 -4.773438 2.6875 -4.953125 C 2.539062 -5.140625 2.378906 -5.289062 2.203125 -5.40625 C 2.023438 -5.53125 1.910156 -5.609375 1.859375 -5.640625 C 1.578125 -4.941406 1.28125 -4.257812 0.96875 -3.59375 C 0.65625 -2.925781 0.394531 -2.414062 0.1875 -2.0625 L 0.015625 -2.375 C 0.617188 -3.53125 1.125 -4.710938 1.53125 -5.921875 C 1.40625 -6.046875 1.34375 -6.195312 1.34375 -6.375 C 1.34375 -6.601562 1.390625 -6.816406 1.484375 -7.015625 C 1.578125 -7.210938 1.6875 -7.367188 1.8125 -7.484375 C 1.945312 -7.597656 2.050781 -7.65625 2.125 -7.65625 C 2.300781 -7.65625 2.390625 -7.503906 2.390625 -7.203125 C 2.390625 -7.148438 2.359375 -7.035156 2.296875 -6.859375 C 2.234375 -6.691406 2.195312 -6.578125 2.1875 -6.515625 C 2.1875 -6.390625 2.238281 -6.269531 2.34375 -6.15625 C 2.445312 -6.050781 2.617188 -5.921875 2.859375 -5.765625 C 3.242188 -5.484375 3.546875 -5.207031 3.765625 -4.9375 C 3.984375 -4.675781 4.09375 -4.332031 4.09375 -3.90625 C 4.09375 -3.632812 4.046875 -3.363281 3.953125 -3.09375 C 3.867188 -2.820312 3.742188 -2.46875 3.578125 -2.03125 C 3.296875 -1.4375 3.15625 -1.007812 3.15625 -0.75 C 3.15625 -0.375 3.34375 -0.1875 3.71875 -0.1875 C 4.09375 -0.1875 4.492188 -0.332031 4.921875 -0.625 C 5.359375 -0.925781 5.753906 -1.296875 6.109375 -1.734375 C 6.472656 -2.179688 6.738281 -2.59375 6.90625 -2.96875 L 7.140625 -2.78125 C 6.753906 -1.925781 6.191406 -1.164062 5.453125 -0.5 C 4.722656 0.15625 3.984375 0.484375 3.234375 0.484375 Z M 3.234375 0.484375 "/></g></g></g><g fill="#000000" fill-opacity="1"><g transform="translate(40.263177, 61.879998)"><g><path d="M 2.015625 0.828125 C 1.285156 0.828125 0.722656 0.625 0.328125 0.21875 C -0.0664062 -0.1875 -0.265625 -0.707031 -0.265625 -1.34375 C -0.265625 -2.082031 -0.0195312 -2.875 0.46875 -3.71875 C 0.957031 -4.570312 1.570312 -5.285156 2.3125 -5.859375 C 3.050781 -6.441406 3.773438 -6.734375 4.484375 -6.734375 C 5.253906 -6.734375 5.640625 -6.351562 5.640625 -5.59375 C 5.640625 -4.976562 5.410156 -4.40625 4.953125 -3.875 C 4.492188 -3.351562 3.898438 -2.921875 3.171875 -2.578125 C 2.453125 -2.242188 1.734375 -2.039062 1.015625 -1.96875 C 0.960938 -1.75 0.9375 -1.523438 0.9375 -1.296875 C 0.9375 -0.847656 1.046875 -0.472656 1.265625 -0.171875 C 1.492188 0.128906 1.875 0.28125 2.40625 0.28125 C 3.164062 0.28125 3.929688 -0.0351562 4.703125 -0.671875 C 5.484375 -1.304688 6.117188 -2.09375 6.609375 -3.03125 L 6.828125 -2.859375 C 6.328125 -1.753906 5.632812 -0.863281 4.75 -0.1875 C 3.863281 0.488281 2.953125 0.828125 2.015625 0.828125 Z M 1.109375 -2.3125 C 1.628906 -2.5 2.175781 -2.757812 2.75 -3.09375 C 3.320312 -3.4375 3.8125 -3.832031 4.21875 -4.28125 C 4.625 -4.738281 4.828125 -5.21875 4.828125 -5.71875 C 4.828125 -5.875 4.796875 -5.984375 4.734375 -6.046875 C 4.679688 -6.117188 4.582031 -6.15625 4.4375 -6.15625 C 4.050781 -6.15625 3.628906 -5.960938 3.171875 -5.578125 C 2.710938 -5.191406 2.289062 -4.695312 1.90625 -4.09375 C 1.53125 -3.5 1.265625 -2.90625 1.109375 -2.3125 Z M 1.109375 -2.3125 "/></g></g></g><g fill="#000000" fill-opacity="1"><g transform="translate(46.487424, 61.879998)"><g><path d="M 0.890625 0.875 C 0.484375 0.875 0.15625 0.738281 -0.09375 0.46875 C -0.351562 0.207031 -0.484375 -0.171875 -0.484375 -0.671875 C -0.484375 -1.410156 -0.21875 -2.234375 0.3125 -3.140625 C 0.84375 -4.046875 1.507812 -4.816406 2.3125 -5.453125 C 3.125 -6.097656 3.914062 -6.421875 4.6875 -6.421875 C 5.175781 -6.421875 5.582031 -6.285156 5.90625 -6.015625 C 6.226562 -5.753906 6.390625 -5.421875 6.390625 -5.015625 C 6.390625 -4.722656 6.304688 -4.515625 6.140625 -4.390625 C 5.984375 -4.265625 5.765625 -4.203125 5.484375 -4.203125 C 5.546875 -4.429688 5.578125 -4.648438 5.578125 -4.859375 C 5.578125 -5.171875 5.5 -5.421875 5.34375 -5.609375 C 5.195312 -5.804688 4.96875 -5.90625 4.65625 -5.90625 C 4.101562 -5.90625 3.523438 -5.597656 2.921875 -4.984375 C 2.316406 -4.378906 1.8125 -3.648438 1.40625 -2.796875 C 1 -1.953125 0.796875 -1.226562 0.796875 -0.625 C 0.796875 -0.132812 0.96875 0.109375 1.3125 0.109375 C 1.8125 0.109375 2.394531 -0.285156 3.0625 -1.078125 C 3.738281 -1.867188 4.460938 -2.832031 5.234375 -3.96875 C 5.398438 -3.9375 5.566406 -3.878906 5.734375 -3.796875 C 5.898438 -3.722656 5.984375 -3.625 5.984375 -3.5 C 5.984375 -3.394531 5.921875 -3.234375 5.796875 -3.015625 C 5.679688 -2.796875 5.613281 -2.671875 5.59375 -2.640625 C 5.382812 -2.273438 5.21875 -1.953125 5.09375 -1.671875 C 4.96875 -1.390625 4.90625 -1.128906 4.90625 -0.890625 C 4.90625 -0.679688 4.957031 -0.492188 5.0625 -0.328125 C 5.164062 -0.160156 5.320312 -0.078125 5.53125 -0.078125 C 5.894531 -0.078125 6.347656 -0.332031 6.890625 -0.84375 C 7.441406 -1.363281 7.988281 -2.09375 8.53125 -3.03125 L 8.71875 -2.84375 C 8.457031 -2.1875 8.117188 -1.597656 7.703125 -1.078125 C 7.296875 -0.554688 6.851562 -0.15625 6.375 0.125 C 5.90625 0.414062 5.453125 0.5625 5.015625 0.5625 C 4.578125 0.5625 4.242188 0.429688 4.015625 0.171875 C 3.785156 -0.078125 3.671875 -0.382812 3.671875 -0.75 C 3.671875 -0.90625 3.6875 -1.085938 3.71875 -1.296875 C 3.15625 -0.546875 2.648438 0 2.203125 0.34375 C 1.765625 0.695312 1.328125 0.875 0.890625 0.875 Z M 0.890625 0.875 "/></g></g></g><g fill="#000000" fill-opacity="1"><g transform="translate(54.636887, 61.879998)"><g><path d="M 1.59375 0.859375 C 0.476562 0.859375 -0.078125 0.242188 -0.078125 -0.984375 C -0.078125 -1.523438 0.015625 -2.191406 0.203125 -2.984375 C 0.398438 -3.773438 0.671875 -4.613281 1.015625 -5.5 C 0.710938 -5.550781 0.488281 -5.597656 0.34375 -5.640625 L 0.34375 -5.984375 C 0.789062 -5.929688 1.0625 -5.90625 1.15625 -5.90625 C 1.707031 -7.332031 2.296875 -8.566406 2.921875 -9.609375 C 3.554688 -10.648438 4.050781 -11.171875 4.40625 -11.171875 C 4.507812 -11.171875 4.601562 -11.128906 4.6875 -11.046875 C 4.769531 -10.972656 4.8125 -10.875 4.8125 -10.75 C 4.8125 -10.59375 4.734375 -10.359375 4.578125 -10.046875 C 4.421875 -9.734375 4.15625 -9.253906 3.78125 -8.609375 C 3.71875 -8.484375 3.523438 -8.132812 3.203125 -7.5625 C 2.878906 -7 2.582031 -6.429688 2.3125 -5.859375 L 3.015625 -5.859375 C 4.046875 -5.859375 4.9375 -5.894531 5.6875 -5.96875 L 5.6875 -5.625 C 4.320312 -5.476562 3.222656 -5.40625 2.390625 -5.40625 L 2.109375 -5.40625 C 1.421875 -3.832031 1.078125 -2.472656 1.078125 -1.328125 C 1.078125 -0.796875 1.160156 -0.410156 1.328125 -0.171875 C 1.492188 0.0546875 1.757812 0.171875 2.125 0.171875 C 2.769531 0.171875 3.398438 -0.109375 4.015625 -0.671875 C 4.640625 -1.242188 5.195312 -2.03125 5.6875 -3.03125 L 5.921875 -2.84375 C 5.460938 -1.757812 4.835938 -0.867188 4.046875 -0.171875 C 3.265625 0.515625 2.445312 0.859375 1.59375 0.859375 Z M 1.59375 0.859375 "/></g></g></g><g fill="#000000" fill-opacity="1"><g transform="translate(59.96394, 61.879998)"><g><path d="M 1.34375 0.484375 C 0.882812 0.484375 0.53125 0.335938 0.28125 0.046875 C 0.03125 -0.242188 -0.09375 -0.617188 -0.09375 -1.078125 C -0.09375 -1.566406 0.046875 -2.238281 0.328125 -3.09375 C 0.609375 -3.957031 0.957031 -4.710938 1.375 -5.359375 C 1.789062 -6.015625 2.195312 -6.34375 2.59375 -6.34375 C 2.707031 -6.34375 2.804688 -6.300781 2.890625 -6.21875 C 2.972656 -6.144531 3.015625 -6.046875 3.015625 -5.921875 C 3.015625 -5.753906 2.8125 -5.335938 2.40625 -4.671875 C 2 -3.984375 1.671875 -3.367188 1.421875 -2.828125 C 1.179688 -2.285156 1.0625 -1.773438 1.0625 -1.296875 C 1.0625 -0.859375 1.132812 -0.5625 1.28125 -0.40625 C 1.425781 -0.25 1.660156 -0.171875 1.984375 -0.171875 C 2.953125 -0.171875 3.910156 -1.125 4.859375 -3.03125 L 5.03125 -2.84375 C 4.675781 -1.789062 4.160156 -0.972656 3.484375 -0.390625 C 2.804688 0.191406 2.09375 0.484375 1.34375 0.484375 Z M 3.484375 -7.65625 C 3.265625 -7.65625 3.085938 -7.707031 2.953125 -7.8125 C 2.816406 -7.925781 2.75 -8.082031 2.75 -8.28125 C 2.75 -8.539062 2.878906 -8.757812 3.140625 -8.9375 C 3.398438 -9.113281 3.671875 -9.203125 3.953125 -9.203125 C 4.390625 -9.203125 4.609375 -8.992188 4.609375 -8.578125 C 4.609375 -8.335938 4.488281 -8.125 4.25 -7.9375 C 4.019531 -7.75 3.765625 -7.65625 3.484375 -7.65625 Z M 3.484375 -7.65625 "/></g></g></g><g fill="#000000" fill-opacity="1"><g transform="translate(64.487262, 61.879998)"><g><path d="M 1.21875 0.734375 C 0.84375 0.734375 0.578125 0.550781 0.421875 0.1875 C 0.265625 -0.164062 0.1875 -0.671875 0.1875 -1.328125 C 0.1875 -1.566406 0.222656 -2.382812 0.296875 -3.78125 C 0.328125 -4.15625 0.375 -4.394531 0.4375 -4.5 C 0.5 -4.601562 0.648438 -4.65625 0.890625 -4.65625 C 1.109375 -4.65625 1.242188 -4.613281 1.296875 -4.53125 C 1.359375 -4.445312 1.390625 -4.289062 1.390625 -4.0625 C 1.390625 -3.8125 1.363281 -3.347656 1.3125 -2.671875 C 1.25 -2.078125 1.21875 -1.535156 1.21875 -1.046875 C 1.21875 -0.671875 1.25 -0.398438 1.3125 -0.234375 C 1.375 -0.078125 1.484375 0 1.640625 0 C 2.054688 0 2.554688 -0.421875 3.140625 -1.265625 C 3.722656 -2.109375 4.253906 -3.050781 4.734375 -4.09375 C 4.753906 -4.882812 4.835938 -5.429688 4.984375 -5.734375 C 5.128906 -6.046875 5.332031 -6.203125 5.59375 -6.203125 C 5.800781 -6.203125 5.960938 -6.125 6.078125 -5.96875 C 6.203125 -5.8125 6.265625 -5.65625 6.265625 -5.5 C 6.265625 -5.375 6.203125 -5.195312 6.078125 -4.96875 C 5.929688 -4.6875 5.816406 -4.40625 5.734375 -4.125 C 5.648438 -3.84375 5.609375 -3.46875 5.609375 -3 C 5.609375 -2.582031 5.664062 -2.238281 5.78125 -1.96875 C 5.90625 -1.707031 6.140625 -1.578125 6.484375 -1.578125 C 6.765625 -1.578125 7.019531 -1.679688 7.25 -1.890625 C 7.488281 -2.097656 7.726562 -2.453125 7.96875 -2.953125 L 8.203125 -2.765625 C 7.753906 -1.722656 7.140625 -1.203125 6.359375 -1.203125 C 5.929688 -1.203125 5.582031 -1.351562 5.3125 -1.65625 C 5.050781 -1.957031 4.875 -2.410156 4.78125 -3.015625 C 4.269531 -1.992188 3.6875 -1.113281 3.03125 -0.375 C 2.382812 0.363281 1.78125 0.734375 1.21875 0.734375 Z M 1.21875 0.734375 "/></g></g></g><g fill="#000000" fill-opacity="1"><g transform="translate(72.094665, 61.879998)"><g><path d="M 2.015625 0.828125 C 1.285156 0.828125 0.722656 0.625 0.328125 0.21875 C -0.0664062 -0.1875 -0.265625 -0.707031 -0.265625 -1.34375 C -0.265625 -2.082031 -0.0195312 -2.875 0.46875 -3.71875 C 0.957031 -4.570312 1.570312 -5.285156 2.3125 -5.859375 C 3.050781 -6.441406 3.773438 -6.734375 4.484375 -6.734375 C 5.253906 -6.734375 5.640625 -6.351562 5.640625 -5.59375 C 5.640625 -4.976562 5.410156 -4.40625 4.953125 -3.875 C 4.492188 -3.351562 3.898438 -2.921875 3.171875 -2.578125 C 2.453125 -2.242188 1.734375 -2.039062 1.015625 -1.96875 C 0.960938 -1.75 0.9375 -1.523438 0.9375 -1.296875 C 0.9375 -0.847656 1.046875 -0.472656 1.265625 -0.171875 C 1.492188 0.128906 1.875 0.28125 2.40625 0.28125 C 3.164062 0.28125 3.929688 -0.0351562 4.703125 -0.671875 C 5.484375 -1.304688 6.117188 -2.09375 6.609375 -3.03125 L 6.828125 -2.859375 C 6.328125 -1.753906 5.632812 -0.863281 4.75 -0.1875 C 3.863281 0.488281 2.953125 0.828125 2.015625 0.828125 Z M 1.109375 -2.3125 C 1.628906 -2.5 2.175781 -2.757812 2.75 -3.09375 C 3.320312 -3.4375 3.8125 -3.832031 4.21875 -4.28125 C 4.625 -4.738281 4.828125 -5.21875 4.828125 -5.71875 C 4.828125 -5.875 4.796875 -5.984375 4.734375 -6.046875 C 4.679688 -6.117188 4.582031 -6.15625 4.4375 -6.15625 C 4.050781 -6.15625 3.628906 -5.960938 3.171875 -5.578125 C 2.710938 -5.191406 2.289062 -4.695312 1.90625 -4.09375 C 1.53125 -3.5 1.265625 -2.90625 1.109375 -2.3125 Z M 1.109375 -2.3125 "/></g></g></g><g fill="#000000" fill-opacity="1"><g transform="translate(78.318911, 61.879998)"><g/></g></g><g fill="#000000" fill-opacity="1"><g transform="translate(83.178679, 61.879998)"><g><path d="M 3.5 1.625 C 2.957031 1.625 2.570312 1.507812 2.34375 1.28125 C 2.125 1.050781 2.015625 0.722656 2.015625 0.296875 C 2.015625 -0.0234375 2.070312 -0.398438 2.1875 -0.828125 C 2.3125 -1.265625 2.488281 -1.800781 2.71875 -2.4375 C 3.238281 -3.9375 3.851562 -5.613281 4.5625 -7.46875 C 5.269531 -9.332031 5.925781 -10.90625 6.53125 -12.1875 C 5.175781 -12.164062 4.160156 -12.132812 3.484375 -12.09375 C 2.816406 -12.050781 2.085938 -11.960938 1.296875 -11.828125 C 1.335938 -12.410156 1.757812 -12.828125 2.5625 -13.078125 C 3.363281 -13.335938 4.460938 -13.46875 5.859375 -13.46875 C 6.867188 -13.46875 8.070312 -13.390625 9.46875 -13.234375 C 9.875 -13.191406 10.289062 -13.148438 10.71875 -13.109375 C 11.144531 -13.078125 11.53125 -13.0625 11.875 -13.0625 C 11.476562 -12.707031 11.023438 -12.46875 10.515625 -12.34375 C 10.003906 -12.226562 9.390625 -12.171875 8.671875 -12.171875 L 7.34375 -12.1875 C 6.320312 -9.632812 5.34375 -6.660156 4.40625 -3.265625 L 4.25 -2.65625 C 3.957031 -1.601562 3.753906 -0.816406 3.640625 -0.296875 C 3.535156 0.210938 3.484375 0.71875 3.484375 1.21875 C 3.484375 1.40625 3.488281 1.539062 3.5 1.625 Z M 3.5 1.625 "/></g></g></g><g fill="#000000" fill-opacity="1"><g transform="translate(92.337477, 61.879998)"><g><path d="M 0.875 0.703125 C 0.65625 0.703125 0.472656 0.507812 0.328125 0.125 C 0.179688 -0.257812 0.109375 -0.710938 0.109375 -1.234375 C 0.109375 -2.378906 0.457031 -3.925781 1.15625 -5.875 C 1.863281 -7.820312 2.664062 -9.554688 3.5625 -11.078125 C 4.46875 -12.597656 5.179688 -13.359375 5.703125 -13.359375 C 5.898438 -13.359375 6.050781 -13.234375 6.15625 -12.984375 C 6.269531 -12.742188 6.328125 -12.472656 6.328125 -12.171875 C 6.328125 -11.585938 6.113281 -10.804688 5.6875 -9.828125 C 5.269531 -8.859375 4.726562 -7.925781 4.0625 -7.03125 C 3.394531 -6.132812 2.710938 -5.472656 2.015625 -5.046875 C 1.796875 -4.523438 1.625 -3.914062 1.5 -3.21875 C 1.382812 -2.53125 1.328125 -1.910156 1.328125 -1.359375 C 1.328125 -1.160156 1.335938 -0.953125 1.359375 -0.734375 C 1.859375 -2.179688 2.421875 -3.347656 3.046875 -4.234375 C 3.679688 -5.128906 4.382812 -5.578125 5.15625 -5.578125 C 5.632812 -5.578125 5.988281 -5.410156 6.21875 -5.078125 C 6.457031 -4.742188 6.578125 -4.347656 6.578125 -3.890625 C 6.578125 -3.617188 6.539062 -3.359375 6.46875 -3.109375 C 6.40625 -2.859375 6.300781 -2.53125 6.15625 -2.125 C 6.03125 -1.789062 5.9375 -1.523438 5.875 -1.328125 C 5.8125 -1.128906 5.78125 -0.9375 5.78125 -0.75 C 5.78125 -0.507812 5.828125 -0.328125 5.921875 -0.203125 C 6.023438 -0.0859375 6.164062 -0.03125 6.34375 -0.03125 C 6.757812 -0.03125 7.253906 -0.328125 7.828125 -0.921875 C 8.410156 -1.515625 8.890625 -2.21875 9.265625 -3.03125 L 9.5 -2.8125 C 9.09375 -1.863281 8.566406 -1.082031 7.921875 -0.46875 C 7.273438 0.144531 6.601562 0.453125 5.90625 0.453125 C 5.5 0.453125 5.179688 0.34375 4.953125 0.125 C 4.734375 -0.09375 4.625 -0.378906 4.625 -0.734375 C 4.625 -1.003906 4.71875 -1.445312 4.90625 -2.0625 C 5.101562 -2.726562 5.203125 -3.222656 5.203125 -3.546875 C 5.203125 -3.859375 5.132812 -4.085938 5 -4.234375 C 4.875 -4.378906 4.703125 -4.453125 4.484375 -4.453125 C 4.023438 -4.453125 3.625 -4.179688 3.28125 -3.640625 C 2.9375 -3.097656 2.566406 -2.332031 2.171875 -1.34375 C 1.867188 -0.625 1.628906 -0.101562 1.453125 0.21875 C 1.285156 0.539062 1.09375 0.703125 0.875 0.703125 Z M 2.265625 -5.78125 C 2.796875 -6.207031 3.328125 -6.820312 3.859375 -7.625 C 4.390625 -8.425781 4.828125 -9.222656 5.171875 -10.015625 C 5.515625 -10.804688 5.6875 -11.363281 5.6875 -11.6875 C 5.6875 -11.789062 5.660156 -11.84375 5.609375 -11.84375 C 5.472656 -11.84375 5.1875 -11.53125 4.75 -10.90625 C 4.320312 -10.289062 3.867188 -9.515625 3.390625 -8.578125 C 2.921875 -7.648438 2.546875 -6.71875 2.265625 -5.78125 Z M 2.265625 -5.78125 "/></g></g></g><g fill="#000000" fill-opacity="1"><g transform="translate(101.234594, 61.879998)"><g><path d="M 2.015625 0.828125 C 1.285156 0.828125 0.722656 0.625 0.328125 0.21875 C -0.0664062 -0.1875 -0.265625 -0.707031 -0.265625 -1.34375 C -0.265625 -2.082031 -0.0195312 -2.875 0.46875 -3.71875 C 0.957031 -4.570312 1.570312 -5.285156 2.3125 -5.859375 C 3.050781 -6.441406 3.773438 -6.734375 4.484375 -6.734375 C 5.253906 -6.734375 5.640625 -6.351562 5.640625 -5.59375 C 5.640625 -4.976562 5.410156 -4.40625 4.953125 -3.875 C 4.492188 -3.351562 3.898438 -2.921875 3.171875 -2.578125 C 2.453125 -2.242188 1.734375 -2.039062 1.015625 -1.96875 C 0.960938 -1.75 0.9375 -1.523438 0.9375 -1.296875 C 0.9375 -0.847656 1.046875 -0.472656 1.265625 -0.171875 C 1.492188 0.128906 1.875 0.28125 2.40625 0.28125 C 3.164062 0.28125 3.929688 -0.0351562 4.703125 -0.671875 C 5.484375 -1.304688 6.117188 -2.09375 6.609375 -3.03125 L 6.828125 -2.859375 C 6.328125 -1.753906 5.632812 -0.863281 4.75 -0.1875 C 3.863281 0.488281 2.953125 0.828125 2.015625 0.828125 Z M 1.109375 -2.3125 C 1.628906 -2.5 2.175781 -2.757812 2.75 -3.09375 C 3.320312 -3.4375 3.8125 -3.832031 4.21875 -4.28125 C 4.625 -4.738281 4.828125 -5.21875 4.828125 -5.71875 C 4.828125 -5.875 4.796875 -5.984375 4.734375 -6.046875 C 4.679688 -6.117188 4.582031 -6.15625 4.4375 -6.15625 C 4.050781 -6.15625 3.628906 -5.960938 3.171875 -5.578125 C 2.710938 -5.191406 2.289062 -4.695312 1.90625 -4.09375 C 1.53125 -3.5 1.265625 -2.90625 1.109375 -2.3125 Z M 1.109375 -2.3125 "/></g></g></g><g fill="#000000" fill-opacity="1"><g transform="translate(107.45884, 61.879998)"><g><path d="M 9.421875 0.578125 C 9.015625 0.578125 8.703125 0.445312 8.484375 0.1875 C 8.273438 -0.0625 8.171875 -0.382812 8.171875 -0.78125 C 8.171875 -1.125 8.269531 -1.617188 8.46875 -2.265625 C 8.53125 -2.472656 8.585938 -2.679688 8.640625 -2.890625 C 8.703125 -3.109375 8.734375 -3.289062 8.734375 -3.4375 C 8.734375 -3.664062 8.679688 -3.832031 8.578125 -3.9375 C 8.472656 -4.050781 8.34375 -4.109375 8.1875 -4.109375 C 7.90625 -4.109375 7.597656 -3.90625 7.265625 -3.5 C 6.929688 -3.101562 6.421875 -2.378906 5.734375 -1.328125 C 5.566406 -1.054688 5.328125 -0.59375 5.015625 0.0625 L 4.84375 0.40625 C 4.644531 0.40625 4.4375 0.367188 4.21875 0.296875 C 4 0.234375 3.890625 0.144531 3.890625 0.03125 C 3.890625 -0.0507812 3.992188 -0.378906 4.203125 -0.953125 C 4.460938 -1.722656 4.671875 -2.375 4.828125 -2.90625 C 4.984375 -3.4375 5.0625 -3.890625 5.0625 -4.265625 C 5.0625 -4.734375 4.90625 -4.96875 4.59375 -4.96875 C 4.25 -4.96875 3.796875 -4.6875 3.234375 -4.125 C 2.679688 -3.570312 2.132812 -2.867188 1.59375 -2.015625 C 1.0625 -1.160156 0.648438 -0.320312 0.359375 0.5 C 0.171875 0.5 -0.0390625 0.457031 -0.28125 0.375 C -0.53125 0.289062 -0.65625 0.203125 -0.65625 0.109375 C -0.65625 0.078125 -0.566406 -0.210938 -0.390625 -0.765625 C -0.109375 -1.597656 0.128906 -2.363281 0.328125 -3.0625 C 0.523438 -3.757812 0.628906 -4.363281 0.640625 -4.875 C 0.722656 -4.976562 0.84375 -5.070312 1 -5.15625 C 1.164062 -5.238281 1.332031 -5.28125 1.5 -5.28125 C 1.832031 -5.28125 2 -5.113281 2 -4.78125 C 2 -4.445312 1.835938 -3.738281 1.515625 -2.65625 C 2.128906 -3.625 2.785156 -4.457031 3.484375 -5.15625 C 4.191406 -5.851562 4.851562 -6.203125 5.46875 -6.203125 C 5.820312 -6.203125 6.078125 -6.070312 6.234375 -5.8125 C 6.390625 -5.550781 6.46875 -5.207031 6.46875 -4.78125 C 6.46875 -4.363281 6.40625 -3.90625 6.28125 -3.40625 C 6.15625 -2.90625 6.023438 -2.488281 5.890625 -2.15625 C 6.367188 -3.007812 6.863281 -3.703125 7.375 -4.234375 C 7.882812 -4.765625 8.425781 -5.03125 9 -5.03125 C 9.375 -5.03125 9.644531 -4.914062 9.8125 -4.6875 C 9.976562 -4.46875 10.0625 -4.179688 10.0625 -3.828125 C 10.0625 -3.597656 10.03125 -3.347656 9.96875 -3.078125 C 9.90625 -2.804688 9.8125 -2.476562 9.6875 -2.09375 C 9.476562 -1.4375 9.375 -0.972656 9.375 -0.703125 C 9.375 -0.285156 9.5625 -0.078125 9.9375 -0.078125 C 10.394531 -0.078125 10.828125 -0.359375 11.234375 -0.921875 C 11.648438 -1.492188 12.050781 -2.195312 12.4375 -3.03125 L 12.65625 -2.765625 C 12.3125 -1.847656 11.859375 -1.0625 11.296875 -0.40625 C 10.734375 0.25 10.109375 0.578125 9.421875 0.578125 Z M 9.421875 0.578125 "/></g></g></g><g fill="#000000" fill-opacity="1"><g transform="translate(119.533501, 61.879998)"><g><path d="M 2.015625 0.828125 C 1.285156 0.828125 0.722656 0.625 0.328125 0.21875 C -0.0664062 -0.1875 -0.265625 -0.707031 -0.265625 -1.34375 C -0.265625 -2.082031 -0.0195312 -2.875 0.46875 -3.71875 C 0.957031 -4.570312 1.570312 -5.285156 2.3125 -5.859375 C 3.050781 -6.441406 3.773438 -6.734375 4.484375 -6.734375 C 5.253906 -6.734375 5.640625 -6.351562 5.640625 -5.59375 C 5.640625 -4.976562 5.410156 -4.40625 4.953125 -3.875 C 4.492188 -3.351562 3.898438 -2.921875 3.171875 -2.578125 C 2.453125 -2.242188 1.734375 -2.039062 1.015625 -1.96875 C 0.960938 -1.75 0.9375 -1.523438 0.9375 -1.296875 C 0.9375 -0.847656 1.046875 -0.472656 1.265625 -0.171875 C 1.492188 0.128906 1.875 0.28125 2.40625 0.28125 C 3.164062 0.28125 3.929688 -0.0351562 4.703125 -0.671875 C 5.484375 -1.304688 6.117188 -2.09375 6.609375 -3.03125 L 6.828125 -2.859375 C 6.328125 -1.753906 5.632812 -0.863281 4.75 -0.1875 C 3.863281 0.488281 2.953125 0.828125 2.015625 0.828125 Z M 1.109375 -2.3125 C 1.628906 -2.5 2.175781 -2.757812 2.75 -3.09375 C 3.320312 -3.4375 3.8125 -3.832031 4.21875 -4.28125 C 4.625 -4.738281 4.828125 -5.21875 4.828125 -5.71875 C 4.828125 -5.875 4.796875 -5.984375 4.734375 -6.046875 C 4.679688 -6.117188 4.582031 -6.15625 4.4375 -6.15625 C 4.050781 -6.15625 3.628906 -5.960938 3.171875 -5.578125 C 2.710938 -5.191406 2.289062 -4.695312 1.90625 -4.09375 C 1.53125 -3.5 1.265625 -2.90625 1.109375 -2.3125 Z M 1.109375 -2.3125 "/></g></g></g></svg>