<svg xmlns="http://www.w3.org/2000/svg" xmlns:xlink="http://www.w3.org/1999/xlink" width="500" zoomAndPan="magnify" viewBox="0 0 375 374.999991" height="500" preserveAspectRatio="xMidYMid meet" version="1.0"><defs><clipPath id="de45037570"><path d="M 23.398438 120 L 200 120 L 200 259 L 23.398438 259 Z M 23.398438 120 " clip-rule="nonzero"/></clipPath><clipPath id="c65169c16d"><path d="M 53 242 L 70 242 L 70 351.898438 L 53 351.898438 Z M 53 242 " clip-rule="nonzero"/></clipPath><clipPath id="ba03753c1b"><path d="M 83 242 L 100 242 L 100 351.898438 L 83 351.898438 Z M 83 242 " clip-rule="nonzero"/></clipPath><clipPath id="332039ab7e"><path d="M 132 23.398438 L 351.898438 23.398438 L 351.898438 351.898438 L 132 351.898438 Z M 132 23.398438 " clip-rule="nonzero"/></clipPath><clipPath id="1e07b59fc6"><path d="M 64.113281 133.453125 L 68.414062 133.453125 L 68.414062 137.097656 L 64.113281 137.097656 Z M 64.113281 133.453125 " clip-rule="nonzero"/></clipPath><clipPath id="423f903dff"><path d="M 68.398438 134.773438 C 66.449219 137.773438 64.648438 137.25 64.273438 136.574219 C 63.898438 135.976562 64.273438 134.101562 64.800781 133.648438 C 65.398438 133.199219 67.800781 133.800781 67.800781 133.800781 " clip-rule="nonzero"/></clipPath></defs><path fill="#000000" d="M 76.398438 148.542969 C 77.679688 148.542969 78.957031 148.480469 80.230469 148.355469 C 81.503906 148.226562 82.769531 148.039062 84.027344 147.789062 C 85.28125 147.539062 86.523438 147.226562 87.746094 146.855469 C 88.972656 146.484375 90.175781 146.054688 91.359375 145.5625 C 92.542969 145.070312 93.699219 144.523438 94.828125 143.921875 C 95.957031 143.316406 97.054688 142.660156 98.117188 141.949219 C 99.183594 141.234375 100.210938 140.472656 101.199219 139.660156 C 102.191406 138.847656 103.136719 137.988281 104.042969 137.085938 C 104.949219 136.179688 105.804688 135.230469 106.617188 134.242188 C 107.429688 133.25 108.191406 132.222656 108.902344 131.160156 C 109.617188 130.09375 110.273438 128.996094 110.875 127.867188 C 111.480469 126.738281 112.027344 125.582031 112.515625 124.398438 C 113.007812 123.214844 113.4375 122.011719 113.808594 120.785156 C 114.179688 119.558594 114.492188 118.320312 114.742188 117.0625 C 114.992188 115.808594 115.179688 114.542969 115.304688 113.269531 C 115.429688 111.992188 115.492188 110.714844 115.492188 109.4375 C 115.492188 108.15625 115.429688 106.878906 115.304688 105.605469 C 115.179688 104.328125 114.992188 103.0625 114.742188 101.808594 C 114.492188 100.550781 114.179688 99.3125 113.808594 98.085938 C 113.4375 96.859375 113.007812 95.65625 112.515625 94.472656 C 112.027344 93.289062 111.480469 92.132812 110.875 91.003906 C 110.273438 89.875 109.617188 88.777344 108.902344 87.714844 C 108.191406 86.648438 107.429688 85.621094 106.617188 84.632812 C 105.804688 83.640625 104.949219 82.695312 104.042969 81.789062 C 103.136719 80.882812 102.191406 80.023438 101.199219 79.210938 C 100.210938 78.398438 99.183594 77.636719 98.117188 76.925781 C 97.054688 76.210938 95.957031 75.554688 94.828125 74.949219 C 93.699219 74.347656 92.542969 73.800781 91.359375 73.308594 C 90.175781 72.820312 88.972656 72.386719 87.746094 72.015625 C 86.523438 71.644531 85.28125 71.332031 84.027344 71.082031 C 82.769531 70.832031 81.503906 70.644531 80.230469 70.519531 C 78.957031 70.390625 77.679688 70.328125 76.398438 70.328125 C 75.117188 70.328125 73.839844 70.390625 72.566406 70.519531 C 71.292969 70.644531 70.027344 70.832031 68.769531 71.082031 C 67.515625 71.332031 66.273438 71.644531 65.050781 72.015625 C 63.824219 72.386719 62.621094 72.820312 61.4375 73.308594 C 60.253906 73.800781 59.097656 74.347656 57.96875 74.949219 C 56.839844 75.554688 55.742188 76.210938 54.679688 76.925781 C 53.613281 77.636719 52.585938 78.398438 51.597656 79.210938 C 50.605469 80.023438 49.660156 80.882812 48.753906 81.789062 C 47.847656 82.695312 46.988281 83.640625 46.179688 84.632812 C 45.367188 85.621094 44.605469 86.648438 43.894531 87.714844 C 43.179688 88.777344 42.523438 89.875 41.921875 91.003906 C 41.316406 92.132812 40.769531 93.289062 40.28125 94.472656 C 39.789062 95.65625 39.359375 96.859375 38.988281 98.085938 C 38.617188 99.3125 38.304688 100.550781 38.054688 101.808594 C 37.804688 103.0625 37.617188 104.328125 37.492188 105.605469 C 37.367188 106.878906 37.304688 108.15625 37.304688 109.4375 C 37.304688 110.714844 37.367188 111.992188 37.492188 113.269531 C 37.617188 114.542969 37.804688 115.808594 38.054688 117.0625 C 38.304688 118.320312 38.617188 119.558594 38.988281 120.785156 C 39.359375 122.011719 39.789062 123.214844 40.28125 124.398438 C 40.769531 125.582031 41.316406 126.738281 41.921875 127.867188 C 42.523438 128.996094 43.179688 130.09375 43.894531 131.160156 C 44.605469 132.222656 45.367188 133.25 46.179688 134.242188 C 46.988281 135.230469 47.847656 136.179688 48.753906 137.085938 C 49.660156 137.988281 50.605469 138.847656 51.597656 139.660156 C 52.585938 140.472656 53.613281 141.234375 54.679688 141.949219 C 55.742188 142.660156 56.839844 143.316406 57.96875 143.921875 C 59.097656 144.523438 60.253906 145.070312 61.4375 145.5625 C 62.621094 146.054688 63.824219 146.484375 65.050781 146.855469 C 66.273438 147.226562 67.515625 147.539062 68.769531 147.789062 C 70.027344 148.039062 71.292969 148.226562 72.566406 148.355469 C 73.839844 148.480469 75.117188 148.542969 76.398438 148.542969 Z M 76.398438 85.972656 C 77.167969 85.972656 77.933594 86.007812 78.699219 86.085938 C 79.464844 86.160156 80.222656 86.273438 80.976562 86.421875 C 81.730469 86.574219 82.472656 86.757812 83.210938 86.980469 C 83.945312 87.207031 84.667969 87.464844 85.378906 87.757812 C 86.085938 88.050781 86.78125 88.378906 87.460938 88.742188 C 88.136719 89.105469 88.796875 89.5 89.433594 89.925781 C 90.074219 90.351562 90.691406 90.808594 91.285156 91.296875 C 91.878906 91.785156 92.445312 92.300781 92.988281 92.84375 C 93.535156 93.386719 94.050781 93.957031 94.535156 94.550781 C 95.023438 95.144531 95.480469 95.761719 95.90625 96.398438 C 96.335938 97.039062 96.730469 97.699219 97.09375 98.375 C 97.453125 99.054688 97.78125 99.746094 98.078125 100.457031 C 98.371094 101.167969 98.628906 101.890625 98.851562 102.625 C 99.074219 103.359375 99.261719 104.105469 99.410156 104.859375 C 99.5625 105.613281 99.675781 106.371094 99.75 107.136719 C 99.824219 107.902344 99.863281 108.667969 99.863281 109.4375 C 99.863281 110.203125 99.824219 110.972656 99.75 111.734375 C 99.675781 112.5 99.5625 113.261719 99.410156 114.011719 C 99.261719 114.765625 99.074219 115.511719 98.851562 116.246094 C 98.628906 116.984375 98.371094 117.707031 98.078125 118.414062 C 97.78125 119.125 97.453125 119.820312 97.09375 120.496094 C 96.730469 121.175781 96.335938 121.832031 95.90625 122.472656 C 95.480469 123.109375 95.023438 123.726562 94.535156 124.320312 C 94.050781 124.914062 93.535156 125.484375 92.988281 126.027344 C 92.445312 126.570312 91.878906 127.085938 91.285156 127.574219 C 90.691406 128.0625 90.074219 128.519531 89.433594 128.945312 C 88.796875 129.371094 88.136719 129.765625 87.460938 130.128906 C 86.78125 130.492188 86.085938 130.820312 85.378906 131.113281 C 84.667969 131.410156 83.945312 131.667969 83.210938 131.890625 C 82.472656 132.113281 81.730469 132.300781 80.976562 132.449219 C 80.222656 132.597656 79.464844 132.710938 78.699219 132.789062 C 77.933594 132.863281 77.167969 132.898438 76.398438 132.898438 C 75.628906 132.898438 74.863281 132.863281 74.097656 132.789062 C 73.332031 132.710938 72.574219 132.597656 71.820312 132.449219 C 71.066406 132.300781 70.324219 132.113281 69.585938 131.890625 C 68.851562 131.667969 68.128906 131.410156 67.417969 131.113281 C 66.707031 130.820312 66.015625 130.492188 65.335938 130.128906 C 64.660156 129.765625 64 129.371094 63.363281 128.945312 C 62.722656 128.519531 62.105469 128.0625 61.511719 127.574219 C 60.917969 127.085938 60.351562 126.570312 59.804688 126.027344 C 59.261719 125.484375 58.746094 124.914062 58.261719 124.320312 C 57.773438 123.726562 57.316406 123.109375 56.886719 122.472656 C 56.460938 121.832031 56.066406 121.175781 55.703125 120.496094 C 55.34375 119.820312 55.015625 119.125 54.71875 118.414062 C 54.425781 117.707031 54.167969 116.984375 53.945312 116.246094 C 53.722656 115.511719 53.535156 114.765625 53.386719 114.011719 C 53.234375 113.261719 53.121094 112.5 53.046875 111.734375 C 52.972656 110.972656 52.933594 110.203125 52.933594 109.4375 C 52.933594 108.667969 52.972656 107.902344 53.046875 107.136719 C 53.121094 106.371094 53.234375 105.613281 53.386719 104.859375 C 53.535156 104.105469 53.722656 103.359375 53.945312 102.625 C 54.167969 101.890625 54.425781 101.167969 54.71875 100.457031 C 55.015625 99.746094 55.34375 99.054688 55.703125 98.375 C 56.066406 97.699219 56.460938 97.039062 56.886719 96.398438 C 57.316406 95.761719 57.773438 95.144531 58.261719 94.550781 C 58.746094 93.957031 59.261719 93.386719 59.804688 92.84375 C 60.351562 92.300781 60.917969 91.785156 61.511719 91.296875 C 62.105469 90.808594 62.722656 90.351562 63.363281 89.925781 C 64 89.5 64.660156 89.105469 65.335938 88.742188 C 66.015625 88.378906 66.707031 88.050781 67.417969 87.757812 C 68.128906 87.464844 68.851562 87.207031 69.585938 86.980469 C 70.324219 86.757812 71.066406 86.574219 71.820312 86.421875 C 72.574219 86.273438 73.332031 86.160156 74.097656 86.085938 C 74.863281 86.007812 75.628906 85.972656 76.398438 85.972656 Z M 76.398438 85.972656 " fill-opacity="1" fill-rule="nonzero"/><g clip-path="url(#de45037570)"><path fill="#000000" d="M 95.984375 179.828125 C 100.53125 179.824219 105.054688 179.5 109.558594 178.855469 C 114.058594 178.210938 118.492188 177.253906 122.859375 175.984375 C 127.226562 174.710938 131.480469 173.140625 135.625 171.269531 C 139.769531 169.398438 143.765625 167.246094 147.605469 164.8125 L 195.378906 134.621094 C 195.8125 134.347656 196.214844 134.03125 196.585938 133.675781 C 196.957031 133.324219 197.292969 132.9375 197.589844 132.515625 C 197.882812 132.097656 198.136719 131.652344 198.34375 131.183594 C 198.550781 130.710938 198.714844 130.226562 198.824219 129.726562 C 198.9375 129.226562 199 128.71875 199.011719 128.203125 C 199.027344 127.691406 198.988281 127.179688 198.902344 126.675781 C 198.8125 126.167969 198.675781 125.675781 198.492188 125.195312 C 198.308594 124.71875 198.078125 124.261719 197.800781 123.828125 C 197.527344 123.394531 197.214844 122.992188 196.859375 122.617188 C 196.503906 122.246094 196.117188 121.914062 195.699219 121.617188 C 195.277344 121.320312 194.832031 121.070312 194.363281 120.859375 C 193.894531 120.652344 193.410156 120.492188 192.90625 120.378906 C 192.40625 120.265625 191.898438 120.203125 191.386719 120.191406 C 190.871094 120.179688 190.363281 120.214844 189.855469 120.304688 C 189.351562 120.390625 188.859375 120.527344 188.378906 120.714844 C 187.898438 120.898438 187.441406 121.128906 187.007812 121.402344 L 139.25 151.578125 C 136.03125 153.621094 132.6875 155.425781 129.210938 156.996094 C 125.738281 158.566406 122.171875 159.882812 118.511719 160.949219 C 114.851562 162.015625 111.136719 162.820312 107.363281 163.363281 C 103.589844 163.90625 99.796875 164.179688 95.984375 164.1875 L 66.417969 164.1875 C 64.988281 164.210938 63.5625 164.308594 62.140625 164.472656 C 60.71875 164.636719 59.308594 164.871094 57.910156 165.175781 C 56.511719 165.476562 55.132812 165.847656 53.769531 166.289062 C 52.410156 166.726562 51.070312 167.230469 49.757812 167.800781 C 48.445312 168.371094 47.164062 169 45.914062 169.695312 C 44.664062 170.390625 43.449219 171.148438 42.273438 171.960938 C 41.097656 172.773438 39.964844 173.644531 38.871094 174.570312 C 37.78125 175.496094 36.738281 176.472656 35.742188 177.5 C 34.746094 178.527344 33.800781 179.601562 32.910156 180.71875 C 32.019531 181.839844 31.1875 183 30.410156 184.203125 C 29.632812 185.40625 28.917969 186.640625 28.261719 187.914062 C 27.605469 189.183594 27.015625 190.484375 26.488281 191.816406 C 25.960938 193.144531 25.496094 194.496094 25.101562 195.875 C 24.707031 197.25 24.378906 198.640625 24.121094 200.046875 C 23.863281 201.453125 23.671875 202.871094 23.550781 204.296875 C 23.429688 205.722656 23.378906 207.148438 23.398438 208.582031 L 23.398438 250.222656 C 23.398438 250.734375 23.449219 251.242188 23.550781 251.746094 C 23.652344 252.25 23.800781 252.742188 23.996094 253.214844 C 24.191406 253.6875 24.433594 254.140625 24.71875 254.566406 C 25.003906 254.992188 25.328125 255.390625 25.691406 255.753906 C 26.054688 256.117188 26.449219 256.441406 26.875 256.726562 C 27.304688 257.011719 27.753906 257.25 28.230469 257.449219 C 28.703125 257.644531 29.191406 257.792969 29.695312 257.894531 C 30.199219 257.992188 30.707031 258.042969 31.222656 258.042969 C 31.734375 258.042969 32.242188 257.992188 32.746094 257.894531 C 33.25 257.792969 33.742188 257.644531 34.214844 257.449219 C 34.6875 257.25 35.140625 257.011719 35.566406 256.726562 C 35.992188 256.441406 36.390625 256.117188 36.753906 255.753906 C 37.117188 255.390625 37.441406 254.992188 37.726562 254.566406 C 38.011719 254.140625 38.25 253.6875 38.449219 253.214844 C 38.644531 252.742188 38.792969 252.25 38.894531 251.746094 C 38.992188 251.242188 39.042969 250.734375 39.042969 250.222656 L 39.042969 208.582031 C 39.023438 207.660156 39.046875 206.746094 39.117188 205.828125 C 39.1875 204.914062 39.304688 204.003906 39.460938 203.097656 C 39.621094 202.191406 39.824219 201.296875 40.070312 200.414062 C 40.316406 199.527344 40.605469 198.65625 40.9375 197.800781 C 41.269531 196.945312 41.644531 196.105469 42.058594 195.285156 C 42.472656 194.464844 42.925781 193.667969 43.417969 192.894531 C 43.910156 192.117188 44.4375 191.367188 45.003906 190.644531 C 45.570312 189.917969 46.167969 189.226562 46.800781 188.558594 C 47.433594 187.894531 48.097656 187.261719 48.792969 186.660156 C 49.488281 186.0625 50.214844 185.496094 50.964844 184.964844 C 51.714844 184.4375 52.488281 183.945312 53.289062 183.492188 C 54.085938 183.039062 54.90625 182.625 55.746094 182.25 C 56.585938 181.878906 57.441406 181.546875 58.3125 181.257812 C 59.183594 180.964844 60.066406 180.71875 60.960938 180.515625 C 61.859375 180.3125 62.761719 180.152344 63.671875 180.039062 C 64.585938 179.925781 65.5 179.855469 66.417969 179.828125 Z M 95.984375 179.828125 " fill-opacity="1" fill-rule="nonzero"/></g><g clip-path="url(#c65169c16d)"><path fill="#000000" d="M 61.335938 242.398438 C 60.820312 242.398438 60.3125 242.449219 59.808594 242.550781 C 59.304688 242.652344 58.816406 242.800781 58.339844 242.996094 C 57.867188 243.191406 57.414062 243.433594 56.988281 243.71875 C 56.5625 244.003906 56.167969 244.328125 55.804688 244.691406 C 55.441406 245.054688 55.117188 245.449219 54.832031 245.875 C 54.546875 246.304688 54.304688 246.753906 54.109375 247.230469 C 53.910156 247.703125 53.761719 248.191406 53.664062 248.695312 C 53.5625 249.199219 53.511719 249.707031 53.511719 250.222656 L 54.027344 344.078125 C 54.027344 344.59375 54.078125 345.101562 54.179688 345.605469 C 54.28125 346.109375 54.429688 346.597656 54.625 347.070312 C 54.820312 347.546875 55.0625 347.996094 55.347656 348.425781 C 55.632812 348.851562 55.957031 349.246094 56.320312 349.609375 C 56.683594 349.972656 57.078125 350.296875 57.503906 350.582031 C 57.933594 350.867188 58.382812 351.109375 58.855469 351.304688 C 59.332031 351.5 59.820312 351.648438 60.324219 351.75 C 60.828125 351.851562 61.335938 351.898438 61.851562 351.898438 C 62.363281 351.898438 62.871094 351.851562 63.375 351.75 C 63.878906 351.648438 64.367188 351.5 64.84375 351.304688 C 65.316406 351.109375 65.769531 350.867188 66.195312 350.582031 C 66.621094 350.296875 67.019531 349.972656 67.382812 349.609375 C 67.746094 349.246094 68.070312 348.851562 68.355469 348.425781 C 68.640625 347.996094 68.878906 347.546875 69.078125 347.070312 C 69.273438 346.597656 69.421875 346.109375 69.523438 345.605469 C 69.621094 345.101562 69.671875 344.59375 69.671875 344.078125 L 69.15625 250.222656 C 69.15625 249.707031 69.105469 249.199219 69.003906 248.695312 C 68.90625 248.191406 68.757812 247.703125 68.558594 247.230469 C 68.363281 246.753906 68.121094 246.304688 67.835938 245.875 C 67.550781 245.449219 67.226562 245.054688 66.863281 244.691406 C 66.5 244.328125 66.105469 244.003906 65.679688 243.71875 C 65.253906 243.433594 64.800781 243.191406 64.328125 242.996094 C 63.851562 242.800781 63.363281 242.652344 62.859375 242.550781 C 62.355469 242.449219 61.847656 242.398438 61.335938 242.398438 Z M 61.335938 242.398438 " fill-opacity="1" fill-rule="nonzero"/></g><g clip-path="url(#ba03753c1b)"><path fill="#000000" d="M 91.445312 242.398438 C 90.933594 242.398438 90.425781 242.449219 89.921875 242.550781 C 89.417969 242.652344 88.929688 242.800781 88.453125 242.996094 C 87.980469 243.191406 87.527344 243.433594 87.101562 243.71875 C 86.675781 244.003906 86.277344 244.328125 85.917969 244.691406 C 85.554688 245.054688 85.230469 245.449219 84.945312 245.875 C 84.65625 246.304688 84.417969 246.753906 84.21875 247.230469 C 84.023438 247.703125 83.875 248.191406 83.777344 248.695312 C 83.675781 249.199219 83.625 249.707031 83.625 250.222656 L 83.625 344.078125 C 83.625 344.59375 83.675781 345.101562 83.777344 345.605469 C 83.875 346.109375 84.023438 346.597656 84.21875 347.070312 C 84.417969 347.546875 84.65625 347.996094 84.945312 348.425781 C 85.230469 348.851562 85.554688 349.246094 85.917969 349.609375 C 86.277344 349.972656 86.675781 350.296875 87.101562 350.582031 C 87.527344 350.867188 87.980469 351.109375 88.453125 351.304688 C 88.929688 351.5 89.417969 351.648438 89.921875 351.75 C 90.425781 351.851562 90.933594 351.898438 91.445312 351.898438 C 91.960938 351.898438 92.46875 351.851562 92.972656 351.75 C 93.476562 351.648438 93.964844 351.5 94.441406 351.304688 C 94.914062 351.109375 95.363281 350.867188 95.792969 350.582031 C 96.21875 350.296875 96.613281 349.972656 96.976562 349.609375 C 97.339844 349.246094 97.664062 348.851562 97.949219 348.425781 C 98.234375 347.996094 98.476562 347.546875 98.671875 347.070312 C 98.871094 346.597656 99.019531 346.109375 99.117188 345.605469 C 99.21875 345.101562 99.269531 344.59375 99.269531 344.078125 L 99.269531 250.222656 C 99.269531 249.707031 99.21875 249.199219 99.117188 248.695312 C 99.019531 248.191406 98.871094 247.703125 98.671875 247.230469 C 98.476562 246.753906 98.234375 246.304688 97.949219 245.875 C 97.664062 245.449219 97.339844 245.054688 96.976562 244.691406 C 96.613281 244.328125 96.21875 244.003906 95.792969 243.71875 C 95.363281 243.433594 94.914062 243.191406 94.441406 242.996094 C 93.964844 242.800781 93.476562 242.652344 92.972656 242.550781 C 92.46875 242.449219 91.960938 242.398438 91.445312 242.398438 Z M 91.445312 242.398438 " fill-opacity="1" fill-rule="nonzero"/></g><g clip-path="url(#332039ab7e)"><path fill="#000000" d="M 331.390625 23.398438 L 153.40625 23.398438 C 152.738281 23.402344 152.066406 23.433594 151.398438 23.5 C 150.730469 23.566406 150.066406 23.664062 149.410156 23.796875 C 148.75 23.929688 148.097656 24.089844 147.457031 24.285156 C 146.8125 24.480469 146.183594 24.707031 145.5625 24.964844 C 144.941406 25.222656 144.335938 25.507812 143.742188 25.828125 C 143.152344 26.144531 142.578125 26.488281 142.019531 26.859375 C 141.460938 27.234375 140.921875 27.632812 140.402344 28.058594 C 139.882812 28.484375 139.386719 28.9375 138.910156 29.410156 C 138.4375 29.886719 137.984375 30.382812 137.558594 30.902344 C 137.132812 31.421875 136.734375 31.960938 136.359375 32.519531 C 135.988281 33.078125 135.644531 33.652344 135.328125 34.242188 C 135.007812 34.835938 134.722656 35.441406 134.464844 36.0625 C 134.207031 36.683594 133.980469 37.3125 133.785156 37.957031 C 133.589844 38.597656 133.429688 39.25 133.296875 39.910156 C 133.164062 40.566406 133.066406 41.230469 133 41.898438 C 132.933594 42.566406 132.902344 43.238281 132.898438 43.90625 L 132.898438 125.078125 C 132.898438 125.59375 132.949219 126.101562 133.050781 126.605469 C 133.152344 127.109375 133.300781 127.597656 133.496094 128.070312 C 133.691406 128.546875 133.933594 128.996094 134.21875 129.425781 C 134.503906 129.851562 134.828125 130.246094 135.191406 130.609375 C 135.554688 130.972656 135.949219 131.296875 136.375 131.582031 C 136.804688 131.867188 137.253906 132.109375 137.730469 132.304688 C 138.203125 132.5 138.691406 132.648438 139.195312 132.75 C 139.699219 132.851562 140.207031 132.898438 140.722656 132.898438 C 141.234375 132.898438 141.742188 132.851562 142.246094 132.75 C 142.75 132.648438 143.242188 132.5 143.714844 132.304688 C 144.1875 132.109375 144.640625 131.867188 145.066406 131.582031 C 145.492188 131.296875 145.890625 130.972656 146.253906 130.609375 C 146.617188 130.246094 146.941406 129.851562 147.226562 129.425781 C 147.511719 128.996094 147.75 128.546875 147.949219 128.070312 C 148.144531 127.597656 148.292969 127.109375 148.394531 126.605469 C 148.492188 126.101562 148.542969 125.59375 148.542969 125.078125 L 148.542969 43.90625 C 148.542969 43.589844 148.574219 43.273438 148.640625 42.960938 C 148.703125 42.648438 148.796875 42.34375 148.917969 42.046875 C 149.039062 41.753906 149.191406 41.472656 149.367188 41.207031 C 149.546875 40.945312 149.746094 40.699219 149.972656 40.472656 C 150.199219 40.246094 150.445312 40.046875 150.707031 39.867188 C 150.972656 39.691406 151.253906 39.539062 151.546875 39.417969 C 151.84375 39.296875 152.148438 39.203125 152.460938 39.140625 C 152.773438 39.078125 153.089844 39.042969 153.40625 39.042969 L 331.390625 39.042969 C 331.710938 39.042969 332.027344 39.078125 332.339844 39.140625 C 332.652344 39.203125 332.957031 39.296875 333.25 39.417969 C 333.546875 39.539062 333.828125 39.691406 334.089844 39.867188 C 334.355469 40.046875 334.601562 40.246094 334.828125 40.472656 C 335.054688 40.699219 335.253906 40.945312 335.433594 41.207031 C 335.609375 41.472656 335.761719 41.753906 335.882812 42.046875 C 336.003906 42.34375 336.097656 42.648438 336.160156 42.960938 C 336.222656 43.273438 336.257812 43.589844 336.257812 43.90625 L 336.257812 206.25 C 336.257812 206.570312 336.222656 206.886719 336.160156 207.199219 C 336.097656 207.511719 336.003906 207.8125 335.882812 208.109375 C 335.761719 208.402344 335.609375 208.683594 335.433594 208.949219 C 335.253906 209.214844 335.054688 209.460938 334.828125 209.683594 C 334.601562 209.910156 334.355469 210.113281 334.089844 210.289062 C 333.828125 210.46875 333.546875 210.617188 333.25 210.738281 C 332.957031 210.863281 332.652344 210.957031 332.339844 211.019531 C 332.027344 211.082031 331.710938 211.113281 331.390625 211.113281 L 153.40625 211.113281 C 153.089844 211.113281 152.773438 211.082031 152.460938 211.019531 C 152.148438 210.957031 151.84375 210.863281 151.546875 210.738281 C 151.253906 210.617188 150.972656 210.46875 150.707031 210.289062 C 150.445312 210.113281 150.199219 209.910156 149.972656 209.683594 C 149.746094 209.460938 149.546875 209.214844 149.367188 208.949219 C 149.191406 208.683594 149.039062 208.402344 148.917969 208.109375 C 148.796875 207.8125 148.703125 207.511719 148.640625 207.199219 C 148.578125 206.886719 148.542969 206.570312 148.542969 206.25 L 148.542969 195.300781 C 148.542969 194.785156 148.492188 194.277344 148.394531 193.773438 C 148.292969 193.269531 148.144531 192.78125 147.949219 192.304688 C 147.75 191.832031 147.511719 191.382812 147.226562 190.953125 C 146.941406 190.527344 146.617188 190.132812 146.253906 189.769531 C 145.890625 189.40625 145.492188 189.082031 145.066406 188.796875 C 144.640625 188.511719 144.1875 188.269531 143.714844 188.074219 C 143.242188 187.878906 142.75 187.730469 142.246094 187.628906 C 141.742188 187.527344 141.234375 187.476562 140.722656 187.476562 C 140.207031 187.476562 139.699219 187.527344 139.195312 187.628906 C 138.691406 187.730469 138.203125 187.878906 137.730469 188.074219 C 137.253906 188.269531 136.804688 188.511719 136.375 188.796875 C 135.949219 189.082031 135.554688 189.40625 135.191406 189.769531 C 134.828125 190.132812 134.503906 190.527344 134.21875 190.953125 C 133.933594 191.382812 133.691406 191.832031 133.496094 192.304688 C 133.300781 192.78125 133.152344 193.269531 133.050781 193.773438 C 132.949219 194.277344 132.898438 194.785156 132.898438 195.300781 L 132.898438 206.25 C 132.902344 206.921875 132.933594 207.589844 133 208.257812 C 133.066406 208.925781 133.164062 209.589844 133.296875 210.25 C 133.429688 210.90625 133.589844 211.558594 133.785156 212.199219 C 133.980469 212.84375 134.207031 213.476562 134.464844 214.09375 C 134.722656 214.714844 135.007812 215.320312 135.328125 215.914062 C 135.644531 216.507812 135.988281 217.082031 136.359375 217.640625 C 136.734375 218.199219 137.132812 218.738281 137.558594 219.253906 C 137.984375 219.773438 138.4375 220.269531 138.910156 220.746094 C 139.386719 221.222656 139.882812 221.671875 140.402344 222.097656 C 140.921875 222.523438 141.460938 222.921875 142.019531 223.296875 C 142.578125 223.667969 143.152344 224.015625 143.742188 224.332031 C 144.335938 224.648438 144.941406 224.933594 145.5625 225.191406 C 146.183594 225.449219 146.8125 225.675781 147.457031 225.871094 C 148.097656 226.066406 148.75 226.230469 149.410156 226.359375 C 150.066406 226.492188 150.730469 226.589844 151.398438 226.65625 C 152.066406 226.722656 152.738281 226.757812 153.40625 226.757812 L 230.449219 226.757812 L 180.484375 340.949219 C 180.28125 341.421875 180.125 341.90625 180.015625 342.40625 C 179.90625 342.910156 179.84375 343.417969 179.835938 343.929688 C 179.824219 344.441406 179.867188 344.953125 179.957031 345.457031 C 180.046875 345.960938 180.1875 346.453125 180.375 346.933594 C 180.5625 347.410156 180.792969 347.863281 181.070312 348.296875 C 181.347656 348.730469 181.664062 349.128906 182.019531 349.5 C 182.375 349.871094 182.761719 350.203125 183.183594 350.496094 C 183.605469 350.789062 184.050781 351.039062 184.523438 351.242188 C 185.519531 351.683594 186.5625 351.902344 187.648438 351.898438 C 188.410156 351.898438 189.15625 351.789062 189.882812 351.574219 C 190.613281 351.355469 191.296875 351.039062 191.933594 350.621094 C 192.566406 350.203125 193.132812 349.707031 193.621094 349.125 C 194.113281 348.542969 194.511719 347.90625 194.816406 347.207031 L 234.578125 256.324219 L 234.578125 344.078125 C 234.578125 344.59375 234.628906 345.101562 234.730469 345.605469 C 234.828125 346.109375 234.976562 346.597656 235.175781 347.070312 C 235.371094 347.546875 235.613281 347.996094 235.898438 348.425781 C 236.183594 348.851562 236.507812 349.246094 236.871094 349.609375 C 237.234375 349.972656 237.628906 350.296875 238.054688 350.582031 C 238.480469 350.867188 238.933594 351.109375 239.40625 351.304688 C 239.882812 351.5 240.371094 351.648438 240.875 351.75 C 241.378906 351.851562 241.886719 351.898438 242.398438 351.898438 C 242.914062 351.898438 243.421875 351.851562 243.925781 351.75 C 244.429688 351.648438 244.917969 351.5 245.394531 351.304688 C 245.867188 351.109375 246.320312 350.867188 246.746094 350.582031 C 247.171875 350.296875 247.566406 349.972656 247.929688 349.609375 C 248.292969 349.246094 248.617188 348.851562 248.902344 348.425781 C 249.1875 347.996094 249.429688 347.546875 249.625 347.070312 C 249.824219 346.597656 249.972656 346.109375 250.070312 345.605469 C 250.171875 345.101562 250.222656 344.59375 250.222656 344.078125 L 250.222656 256.324219 L 289.984375 347.207031 C 290.289062 347.90625 290.6875 348.542969 291.179688 349.125 C 291.667969 349.707031 292.230469 350.203125 292.867188 350.621094 C 293.503906 351.039062 294.1875 351.355469 294.917969 351.574219 C 295.644531 351.789062 296.390625 351.898438 297.148438 351.898438 C 298.238281 351.902344 299.28125 351.683594 300.277344 351.242188 C 300.75 351.039062 301.195312 350.789062 301.617188 350.496094 C 302.039062 350.203125 302.425781 349.871094 302.78125 349.5 C 303.136719 349.128906 303.453125 348.730469 303.730469 348.296875 C 304.007812 347.863281 304.238281 347.410156 304.425781 346.933594 C 304.613281 346.453125 304.753906 345.960938 304.84375 345.457031 C 304.933594 344.953125 304.976562 344.441406 304.964844 343.929688 C 304.957031 343.417969 304.894531 342.910156 304.785156 342.40625 C 304.675781 341.90625 304.519531 341.421875 304.316406 340.949219 L 254.351562 226.757812 L 331.390625 226.757812 C 332.0625 226.757812 332.734375 226.722656 333.402344 226.65625 C 334.070312 226.589844 334.734375 226.492188 335.390625 226.359375 C 336.050781 226.230469 336.703125 226.066406 337.34375 225.871094 C 337.988281 225.675781 338.617188 225.449219 339.238281 225.191406 C 339.859375 224.933594 340.464844 224.648438 341.058594 224.332031 C 341.648438 224.015625 342.222656 223.667969 342.78125 223.296875 C 343.339844 222.921875 343.878906 222.523438 344.398438 222.097656 C 344.917969 221.671875 345.414062 221.222656 345.890625 220.746094 C 346.363281 220.269531 346.8125 219.773438 347.242188 219.253906 C 347.667969 218.738281 348.066406 218.199219 348.4375 217.640625 C 348.8125 217.082031 349.15625 216.507812 349.472656 215.914062 C 349.789062 215.320312 350.078125 214.714844 350.335938 214.09375 C 350.59375 213.476562 350.820312 212.84375 351.011719 212.199219 C 351.207031 211.558594 351.371094 210.90625 351.503906 210.25 C 351.636719 209.589844 351.734375 208.925781 351.800781 208.257812 C 351.867188 207.589844 351.898438 206.921875 351.898438 206.25 L 351.898438 43.90625 C 351.898438 43.238281 351.867188 42.566406 351.800781 41.898438 C 351.734375 41.230469 351.636719 40.566406 351.503906 39.910156 C 351.371094 39.25 351.207031 38.597656 351.015625 37.957031 C 350.820312 37.3125 350.59375 36.683594 350.335938 36.0625 C 350.078125 35.441406 349.789062 34.835938 349.472656 34.242188 C 349.15625 33.652344 348.8125 33.078125 348.4375 32.519531 C 348.066406 31.960938 347.667969 31.421875 347.242188 30.902344 C 346.8125 30.382812 346.363281 29.886719 345.890625 29.410156 C 345.414062 28.9375 344.917969 28.484375 344.398438 28.058594 C 343.878906 27.632812 343.339844 27.234375 342.78125 26.859375 C 342.222656 26.488281 341.648438 26.144531 341.058594 25.828125 C 340.464844 25.507812 339.859375 25.222656 339.238281 24.964844 C 338.617188 24.707031 337.988281 24.480469 337.34375 24.285156 C 336.703125 24.089844 336.050781 23.929688 335.390625 23.796875 C 334.734375 23.664062 334.070312 23.566406 333.402344 23.5 C 332.734375 23.433594 332.0625 23.402344 331.390625 23.398438 Z M 331.390625 23.398438 " fill-opacity="1" fill-rule="nonzero"/></g><g clip-path="url(#1e07b59fc6)"><g clip-path="url(#423f903dff)"><path fill="#1e1e1e" d="M 61.273438 130.648438 L 71.40625 130.648438 L 71.40625 140.476562 L 61.273438 140.476562 Z M 61.273438 130.648438 " fill-opacity="1" fill-rule="nonzero"/></g></g></svg>