<svg xmlns="http://www.w3.org/2000/svg" xmlns:xlink="http://www.w3.org/1999/xlink" width="500" zoomAndPan="magnify" viewBox="0 0 375 179.999997" height="240" preserveAspectRatio="xMidYMid meet" version="1.0"><defs><g/><clipPath id="51f479bcc8"><path d="M 0 0 L 159.46875 0 L 159.46875 90 L 0 90 Z M 0 0 " clip-rule="nonzero"/></clipPath><clipPath id="a2fe3aece9"><path d="M 93.75 0 L 271.542969 0 L 271.542969 90 L 93.75 90 Z M 93.75 0 " clip-rule="nonzero"/></clipPath><clipPath id="45fc402164"><path d="M 187.5 0 L 375 0 L 375 90 L 187.5 90 Z M 187.5 0 " clip-rule="nonzero"/></clipPath><clipPath id="318fd0b805"><path d="M 281.25 0 L 375 0 L 375 90 L 281.25 90 Z M 281.25 0 " clip-rule="nonzero"/></clipPath><clipPath id="d286ce607b"><path d="M 0 90 L 159.46875 90 L 159.46875 180 L 0 180 Z M 0 90 " clip-rule="nonzero"/></clipPath><clipPath id="9aee36af7e"><path d="M 93.75 90 L 271.542969 90 L 271.542969 180 L 93.75 180 Z M 93.75 90 " clip-rule="nonzero"/></clipPath><clipPath id="5150649fe6"><path d="M 187.5 90 L 375 90 L 375 180 L 187.5 180 Z M 187.5 90 " clip-rule="nonzero"/></clipPath><clipPath id="03ffcdc519"><path d="M 281.25 90 L 375 90 L 375 180 L 281.25 180 Z M 281.25 90 " clip-rule="nonzero"/></clipPath></defs><g clip-path="url(#51f479bcc8)"><path fill="#222222" d="M 0 0 L 159.609375 0 L 159.609375 90 L 0 90 Z M 0 0 " fill-opacity="1" fill-rule="nonzero"/></g><g clip-path="url(#a2fe3aece9)"><path fill="#333333" d="M 93.75 0 L 271.640625 0 L 271.640625 90 L 93.75 90 Z M 93.75 0 " fill-opacity="1" fill-rule="nonzero"/></g><g clip-path="url(#45fc402164)"><path fill="#444444" d="M 187.5 0 L 374.882812 0 L 374.882812 90 L 187.5 90 Z M 187.5 0 " fill-opacity="1" fill-rule="nonzero"/></g><g clip-path="url(#318fd0b805)"><path fill="#555555" d="M 281.25 0 L 375.117188 0 L 375.117188 90 L 281.25 90 Z M 281.25 0 " fill-opacity="1" fill-rule="nonzero"/></g><g clip-path="url(#d286ce607b)"><path fill="#ffffff" d="M 0 90 L 159.609375 90 L 159.609375 180 L 0 180 Z M 0 90 " fill-opacity="1" fill-rule="nonzero"/></g><g clip-path="url(#9aee36af7e)"><path fill="#cccccc" d="M 93.75 90 L 271.640625 90 L 271.640625 180 L 93.75 180 Z M 93.75 90 " fill-opacity="1" fill-rule="nonzero"/></g><g clip-path="url(#5150649fe6)"><path fill="#bbbbbb" d="M 187.5 90 L 374.882812 90 L 374.882812 180 L 187.5 180 Z M 187.5 90 " fill-opacity="1" fill-rule="nonzero"/></g><g clip-path="url(#03ffcdc519)"><path fill="#aaaaaa" d="M 281.25 90 L 375.117188 90 L 375.117188 180 L 281.25 180 Z M 281.25 90 " fill-opacity="1" fill-rule="nonzero"/></g><g fill="#ffffff" fill-opacity="1"><g transform="translate(220.833799, 56.199858)"><g><path d="M 0.6875 -5.578125 C 0.6875 -6.671875 0.929688 -7.648438 1.421875 -8.515625 C 1.910156 -9.390625 2.578125 -10.070312 3.421875 -10.5625 C 4.273438 -11.050781 5.21875 -11.296875 6.25 -11.296875 C 7.46875 -11.296875 8.53125 -11 9.4375 -10.40625 C 10.34375 -9.820312 11.003906 -8.992188 11.421875 -7.921875 L 9.6875 -7.921875 C 9.375 -8.585938 8.925781 -9.101562 8.34375 -9.46875 C 7.757812 -9.832031 7.0625 -10.015625 6.25 -10.015625 C 5.476562 -10.015625 4.78125 -9.832031 4.15625 -9.46875 C 3.539062 -9.101562 3.054688 -8.585938 2.703125 -7.921875 C 2.347656 -7.253906 2.171875 -6.472656 2.171875 -5.578125 C 2.171875 -4.691406 2.347656 -3.914062 2.703125 -3.25 C 3.054688 -2.582031 3.539062 -2.066406 4.15625 -1.703125 C 4.78125 -1.347656 5.476562 -1.171875 6.25 -1.171875 C 7.0625 -1.171875 7.757812 -1.347656 8.34375 -1.703125 C 8.925781 -2.054688 9.375 -2.570312 9.6875 -3.25 L 11.421875 -3.25 C 11.003906 -2.175781 10.34375 -1.347656 9.4375 -0.765625 C 8.53125 -0.191406 7.46875 0.09375 6.25 0.09375 C 5.21875 0.09375 4.273438 -0.144531 3.421875 -0.625 C 2.578125 -1.113281 1.910156 -1.789062 1.421875 -2.65625 C 0.929688 -3.519531 0.6875 -4.492188 0.6875 -5.578125 Z M 0.6875 -5.578125 "/></g></g></g><g fill="#ffffff" fill-opacity="1"><g transform="translate(233.182831, 56.199858)"><g><path d="M 2.6875 -7.34375 C 2.945312 -7.84375 3.3125 -8.226562 3.78125 -8.5 C 4.257812 -8.78125 4.835938 -8.921875 5.515625 -8.921875 L 5.515625 -7.421875 L 5.140625 -7.421875 C 3.503906 -7.421875 2.6875 -6.535156 2.6875 -4.765625 L 2.6875 0 L 1.234375 0 L 1.234375 -8.765625 L 2.6875 -8.765625 Z M 2.6875 -7.34375 "/></g></g></g><g fill="#ffffff" fill-opacity="1"><g transform="translate(239.149403, 56.199858)"><g><path d="M 9.234375 -4.71875 C 9.234375 -4.4375 9.21875 -4.144531 9.1875 -3.84375 L 2.171875 -3.84375 C 2.222656 -2.976562 2.519531 -2.300781 3.0625 -1.8125 C 3.601562 -1.332031 4.257812 -1.09375 5.03125 -1.09375 C 5.65625 -1.09375 6.175781 -1.238281 6.59375 -1.53125 C 7.019531 -1.820312 7.316406 -2.210938 7.484375 -2.703125 L 9.0625 -2.703125 C 8.820312 -1.859375 8.347656 -1.171875 7.640625 -0.640625 C 6.941406 -0.117188 6.070312 0.140625 5.03125 0.140625 C 4.195312 0.140625 3.453125 -0.0390625 2.796875 -0.40625 C 2.140625 -0.78125 1.625 -1.3125 1.25 -2 C 0.875 -2.695312 0.6875 -3.5 0.6875 -4.40625 C 0.6875 -5.3125 0.867188 -6.101562 1.234375 -6.78125 C 1.597656 -7.46875 2.109375 -7.992188 2.765625 -8.359375 C 3.421875 -8.722656 4.175781 -8.90625 5.03125 -8.90625 C 5.851562 -8.90625 6.582031 -8.722656 7.21875 -8.359375 C 7.863281 -8.003906 8.359375 -7.507812 8.703125 -6.875 C 9.054688 -6.238281 9.234375 -5.519531 9.234375 -4.71875 Z M 7.734375 -5.03125 C 7.734375 -5.582031 7.609375 -6.054688 7.359375 -6.453125 C 7.109375 -6.859375 6.773438 -7.164062 6.359375 -7.375 C 5.941406 -7.582031 5.472656 -7.6875 4.953125 -7.6875 C 4.222656 -7.6875 3.597656 -7.445312 3.078125 -6.96875 C 2.554688 -6.5 2.257812 -5.851562 2.1875 -5.03125 Z M 7.734375 -5.03125 "/></g></g></g><g fill="#ffffff" fill-opacity="1"><g transform="translate(249.067024, 56.199858)"><g><path d="M 0.6875 -4.421875 C 0.6875 -5.316406 0.867188 -6.101562 1.234375 -6.78125 C 1.597656 -7.457031 2.097656 -7.976562 2.734375 -8.34375 C 3.367188 -8.71875 4.070312 -8.90625 4.84375 -8.90625 C 5.613281 -8.90625 6.28125 -8.738281 6.84375 -8.40625 C 7.414062 -8.082031 7.835938 -7.671875 8.109375 -7.171875 L 8.109375 -8.765625 L 9.578125 -8.765625 L 9.578125 0 L 8.109375 0 L 8.109375 -1.625 C 7.828125 -1.113281 7.398438 -0.691406 6.828125 -0.359375 C 6.253906 -0.0234375 5.585938 0.140625 4.828125 0.140625 C 4.046875 0.140625 3.34375 -0.0507812 2.71875 -0.4375 C 2.09375 -0.820312 1.597656 -1.359375 1.234375 -2.046875 C 0.867188 -2.742188 0.6875 -3.535156 0.6875 -4.421875 Z M 8.109375 -4.40625 C 8.109375 -5.0625 7.972656 -5.632812 7.703125 -6.125 C 7.441406 -6.613281 7.082031 -6.988281 6.625 -7.25 C 6.175781 -7.507812 5.679688 -7.640625 5.140625 -7.640625 C 4.585938 -7.640625 4.085938 -7.507812 3.640625 -7.25 C 3.191406 -7 2.832031 -6.628906 2.5625 -6.140625 C 2.300781 -5.648438 2.171875 -5.078125 2.171875 -4.421875 C 2.171875 -3.742188 2.300781 -3.15625 2.5625 -2.65625 C 2.832031 -2.164062 3.191406 -1.789062 3.640625 -1.53125 C 4.085938 -1.269531 4.585938 -1.140625 5.140625 -1.140625 C 5.679688 -1.140625 6.175781 -1.269531 6.625 -1.53125 C 7.082031 -1.789062 7.441406 -2.164062 7.703125 -2.65625 C 7.972656 -3.15625 8.109375 -3.738281 8.109375 -4.40625 Z M 8.109375 -4.40625 "/></g></g></g><g fill="#ffffff" fill-opacity="1"><g transform="translate(259.880431, 56.199858)"><g><path d="M 3.015625 -7.5625 L 3.015625 -2.40625 C 3.015625 -1.976562 3.101562 -1.675781 3.28125 -1.5 C 3.457031 -1.320312 3.769531 -1.234375 4.21875 -1.234375 L 5.296875 -1.234375 L 5.296875 0 L 3.984375 0 C 3.171875 0 2.5625 -0.1875 2.15625 -0.5625 C 1.75 -0.9375 1.546875 -1.550781 1.546875 -2.40625 L 1.546875 -7.5625 L 0.421875 -7.5625 L 0.421875 -8.765625 L 1.546875 -8.765625 L 1.546875 -10.96875 L 3.015625 -10.96875 L 3.015625 -8.765625 L 5.296875 -8.765625 L 5.296875 -7.5625 Z M 3.015625 -7.5625 "/></g></g></g><g fill="#ffffff" fill-opacity="1"><g transform="translate(265.703036, 56.199858)"><g><path d="M 1.984375 -10.1875 C 1.703125 -10.1875 1.460938 -10.28125 1.265625 -10.46875 C 1.078125 -10.664062 0.984375 -10.90625 0.984375 -11.1875 C 0.984375 -11.457031 1.078125 -11.6875 1.265625 -11.875 C 1.460938 -12.070312 1.703125 -12.171875 1.984375 -12.171875 C 2.253906 -12.171875 2.476562 -12.070312 2.65625 -11.875 C 2.84375 -11.6875 2.9375 -11.457031 2.9375 -11.1875 C 2.9375 -10.90625 2.84375 -10.664062 2.65625 -10.46875 C 2.476562 -10.28125 2.253906 -10.1875 1.984375 -10.1875 Z M 2.6875 -8.765625 L 2.6875 0 L 1.234375 0 L 1.234375 -8.765625 Z M 2.6875 -8.765625 "/></g></g></g><g fill="#ffffff" fill-opacity="1"><g transform="translate(269.638086, 56.199858)"><g><path d="M 4.5 -1.34375 L 7.21875 -8.765625 L 8.765625 -8.765625 L 5.328125 0 L 3.625 0 L 0.1875 -8.765625 L 1.765625 -8.765625 Z M 4.5 -1.34375 "/></g></g></g><g fill="#ffffff" fill-opacity="1"><g transform="translate(278.611936, 56.199858)"><g><path d="M 9.234375 -4.71875 C 9.234375 -4.4375 9.21875 -4.144531 9.1875 -3.84375 L 2.171875 -3.84375 C 2.222656 -2.976562 2.519531 -2.300781 3.0625 -1.8125 C 3.601562 -1.332031 4.257812 -1.09375 5.03125 -1.09375 C 5.65625 -1.09375 6.175781 -1.238281 6.59375 -1.53125 C 7.019531 -1.820312 7.316406 -2.210938 7.484375 -2.703125 L 9.0625 -2.703125 C 8.820312 -1.859375 8.347656 -1.171875 7.640625 -0.640625 C 6.941406 -0.117188 6.070312 0.140625 5.03125 0.140625 C 4.195312 0.140625 3.453125 -0.0390625 2.796875 -0.40625 C 2.140625 -0.78125 1.625 -1.3125 1.25 -2 C 0.875 -2.695312 0.6875 -3.5 0.6875 -4.40625 C 0.6875 -5.3125 0.867188 -6.101562 1.234375 -6.78125 C 1.597656 -7.46875 2.109375 -7.992188 2.765625 -8.359375 C 3.421875 -8.722656 4.175781 -8.90625 5.03125 -8.90625 C 5.851562 -8.90625 6.582031 -8.722656 7.21875 -8.359375 C 7.863281 -8.003906 8.359375 -7.507812 8.703125 -6.875 C 9.054688 -6.238281 9.234375 -5.519531 9.234375 -4.71875 Z M 7.734375 -5.03125 C 7.734375 -5.582031 7.609375 -6.054688 7.359375 -6.453125 C 7.109375 -6.859375 6.773438 -7.164062 6.359375 -7.375 C 5.941406 -7.582031 5.472656 -7.6875 4.953125 -7.6875 C 4.222656 -7.6875 3.597656 -7.445312 3.078125 -6.96875 C 2.554688 -6.5 2.257812 -5.851562 2.1875 -5.03125 Z M 7.734375 -5.03125 "/></g></g></g><g fill="#ffffff" fill-opacity="1"><g transform="translate(288.529557, 56.199858)"><g/></g></g><g fill="#ffffff" fill-opacity="1"><g transform="translate(292.800526, 56.199858)"><g><path d="M 8.09375 -11.15625 L 8.09375 -9.96875 L 5.0625 -9.96875 L 5.0625 0 L 3.59375 0 L 3.59375 -9.96875 L 0.546875 -9.96875 L 0.546875 -11.15625 Z M 8.09375 -11.15625 "/></g></g></g><g fill="#ffffff" fill-opacity="1"><g transform="translate(301.454445, 56.199858)"><g><path d="M 5.578125 -8.921875 C 6.242188 -8.921875 6.84375 -8.78125 7.375 -8.5 C 7.90625 -8.21875 8.320312 -7.796875 8.625 -7.234375 C 8.9375 -6.671875 9.09375 -5.984375 9.09375 -5.171875 L 9.09375 0 L 7.640625 0 L 7.640625 -4.953125 C 7.640625 -5.828125 7.421875 -6.492188 6.984375 -6.953125 C 6.554688 -7.421875 5.960938 -7.65625 5.203125 -7.65625 C 4.429688 -7.65625 3.816406 -7.414062 3.359375 -6.9375 C 2.910156 -6.457031 2.6875 -5.757812 2.6875 -4.84375 L 2.6875 0 L 1.234375 0 L 1.234375 -11.84375 L 2.6875 -11.84375 L 2.6875 -7.515625 C 2.976562 -7.960938 3.375 -8.304688 3.875 -8.546875 C 4.382812 -8.796875 4.953125 -8.921875 5.578125 -8.921875 Z M 5.578125 -8.921875 "/></g></g></g><g fill="#ffffff" fill-opacity="1"><g transform="translate(311.691986, 56.199858)"><g><path d="M 9.234375 -4.71875 C 9.234375 -4.4375 9.21875 -4.144531 9.1875 -3.84375 L 2.171875 -3.84375 C 2.222656 -2.976562 2.519531 -2.300781 3.0625 -1.8125 C 3.601562 -1.332031 4.257812 -1.09375 5.03125 -1.09375 C 5.65625 -1.09375 6.175781 -1.238281 6.59375 -1.53125 C 7.019531 -1.820312 7.316406 -2.210938 7.484375 -2.703125 L 9.0625 -2.703125 C 8.820312 -1.859375 8.347656 -1.171875 7.640625 -0.640625 C 6.941406 -0.117188 6.070312 0.140625 5.03125 0.140625 C 4.195312 0.140625 3.453125 -0.0390625 2.796875 -0.40625 C 2.140625 -0.78125 1.625 -1.3125 1.25 -2 C 0.875 -2.695312 0.6875 -3.5 0.6875 -4.40625 C 0.6875 -5.3125 0.867188 -6.101562 1.234375 -6.78125 C 1.597656 -7.46875 2.109375 -7.992188 2.765625 -8.359375 C 3.421875 -8.722656 4.175781 -8.90625 5.03125 -8.90625 C 5.851562 -8.90625 6.582031 -8.722656 7.21875 -8.359375 C 7.863281 -8.003906 8.359375 -7.507812 8.703125 -6.875 C 9.054688 -6.238281 9.234375 -5.519531 9.234375 -4.71875 Z M 7.734375 -5.03125 C 7.734375 -5.582031 7.609375 -6.054688 7.359375 -6.453125 C 7.109375 -6.859375 6.773438 -7.164062 6.359375 -7.375 C 5.941406 -7.582031 5.472656 -7.6875 4.953125 -7.6875 C 4.222656 -7.6875 3.597656 -7.445312 3.078125 -6.96875 C 2.554688 -6.5 2.257812 -5.851562 2.1875 -5.03125 Z M 7.734375 -5.03125 "/></g></g></g><g fill="#ffffff" fill-opacity="1"><g transform="translate(321.609607, 56.199858)"><g><path d="M 11.78125 -8.921875 C 12.457031 -8.921875 13.0625 -8.78125 13.59375 -8.5 C 14.132812 -8.21875 14.554688 -7.796875 14.859375 -7.234375 C 15.171875 -6.671875 15.328125 -5.984375 15.328125 -5.171875 L 15.328125 0 L 13.890625 0 L 13.890625 -4.953125 C 13.890625 -5.828125 13.671875 -6.492188 13.234375 -6.953125 C 12.804688 -7.421875 12.222656 -7.65625 11.484375 -7.65625 C 10.734375 -7.65625 10.132812 -7.410156 9.6875 -6.921875 C 9.238281 -6.441406 9.015625 -5.742188 9.015625 -4.828125 L 9.015625 0 L 7.5625 0 L 7.5625 -4.953125 C 7.5625 -5.828125 7.34375 -6.492188 6.90625 -6.953125 C 6.476562 -7.421875 5.898438 -7.65625 5.171875 -7.65625 C 4.410156 -7.65625 3.804688 -7.410156 3.359375 -6.921875 C 2.910156 -6.441406 2.6875 -5.742188 2.6875 -4.828125 L 2.6875 0 L 1.234375 0 L 1.234375 -8.765625 L 2.6875 -8.765625 L 2.6875 -7.5 C 2.976562 -7.957031 3.363281 -8.304688 3.84375 -8.546875 C 4.332031 -8.796875 4.867188 -8.921875 5.453125 -8.921875 C 6.191406 -8.921875 6.84375 -8.753906 7.40625 -8.421875 C 7.96875 -8.097656 8.390625 -7.613281 8.671875 -6.96875 C 8.921875 -7.59375 9.328125 -8.070312 9.890625 -8.40625 C 10.453125 -8.75 11.082031 -8.921875 11.78125 -8.921875 Z M 11.78125 -8.921875 "/></g></g></g><g fill="#ffffff" fill-opacity="1"><g transform="translate(338.085653, 56.199858)"><g><path d="M 9.234375 -4.71875 C 9.234375 -4.4375 9.21875 -4.144531 9.1875 -3.84375 L 2.171875 -3.84375 C 2.222656 -2.976562 2.519531 -2.300781 3.0625 -1.8125 C 3.601562 -1.332031 4.257812 -1.09375 5.03125 -1.09375 C 5.65625 -1.09375 6.175781 -1.238281 6.59375 -1.53125 C 7.019531 -1.820312 7.316406 -2.210938 7.484375 -2.703125 L 9.0625 -2.703125 C 8.820312 -1.859375 8.347656 -1.171875 7.640625 -0.640625 C 6.941406 -0.117188 6.070312 0.140625 5.03125 0.140625 C 4.195312 0.140625 3.453125 -0.0390625 2.796875 -0.40625 C 2.140625 -0.78125 1.625 -1.3125 1.25 -2 C 0.875 -2.695312 0.6875 -3.5 0.6875 -4.40625 C 0.6875 -5.3125 0.867188 -6.101562 1.234375 -6.78125 C 1.597656 -7.46875 2.109375 -7.992188 2.765625 -8.359375 C 3.421875 -8.722656 4.175781 -8.90625 5.03125 -8.90625 C 5.851562 -8.90625 6.582031 -8.722656 7.21875 -8.359375 C 7.863281 -8.003906 8.359375 -7.507812 8.703125 -6.875 C 9.054688 -6.238281 9.234375 -5.519531 9.234375 -4.71875 Z M 7.734375 -5.03125 C 7.734375 -5.582031 7.609375 -6.054688 7.359375 -6.453125 C 7.109375 -6.859375 6.773438 -7.164062 6.359375 -7.375 C 5.941406 -7.582031 5.472656 -7.6875 4.953125 -7.6875 C 4.222656 -7.6875 3.597656 -7.445312 3.078125 -6.96875 C 2.554688 -6.5 2.257812 -5.851562 2.1875 -5.03125 Z M 7.734375 -5.03125 "/></g></g></g><g fill="#ffffff" fill-opacity="1"><g transform="translate(348.00567, 56.199858)"><g/></g></g><g fill="#ffffff" fill-opacity="1"><g transform="translate(112.838675, 25.124998)"><g><path d="M 11.890625 -2.953125 C 11.992188 -2.953125 12.085938 -2.910156 12.171875 -2.828125 L 12.9375 -2 C 12.351562 -1.320312 11.640625 -0.789062 10.796875 -0.40625 C 9.960938 -0.03125 8.953125 0.15625 7.765625 0.15625 C 6.742188 0.15625 5.8125 -0.0195312 4.96875 -0.375 C 4.125 -0.726562 3.40625 -1.226562 2.8125 -1.875 C 2.226562 -2.519531 1.769531 -3.289062 1.4375 -4.1875 C 1.113281 -5.09375 0.953125 -6.082031 0.953125 -7.15625 C 0.953125 -8.238281 1.117188 -9.226562 1.453125 -10.125 C 1.796875 -11.03125 2.273438 -11.804688 2.890625 -12.453125 C 3.503906 -13.097656 4.242188 -13.597656 5.109375 -13.953125 C 5.972656 -14.304688 6.921875 -14.484375 7.953125 -14.484375 C 8.972656 -14.484375 9.875 -14.320312 10.65625 -14 C 11.4375 -13.675781 12.125 -13.234375 12.71875 -12.671875 L 12.078125 -11.78125 C 12.035156 -11.71875 11.984375 -11.660156 11.921875 -11.609375 C 11.859375 -11.566406 11.773438 -11.546875 11.671875 -11.546875 C 11.546875 -11.546875 11.394531 -11.609375 11.21875 -11.734375 C 11.050781 -11.867188 10.828125 -12.015625 10.546875 -12.171875 C 10.265625 -12.335938 9.914062 -12.484375 9.5 -12.609375 C 9.082031 -12.742188 8.566406 -12.8125 7.953125 -12.8125 C 7.210938 -12.8125 6.535156 -12.679688 5.921875 -12.421875 C 5.304688 -12.171875 4.773438 -11.800781 4.328125 -11.3125 C 3.890625 -10.820312 3.546875 -10.226562 3.296875 -9.53125 C 3.054688 -8.832031 2.9375 -8.039062 2.9375 -7.15625 C 2.9375 -6.257812 3.0625 -5.460938 3.3125 -4.765625 C 3.570312 -4.066406 3.921875 -3.472656 4.359375 -2.984375 C 4.804688 -2.503906 5.332031 -2.140625 5.9375 -1.890625 C 6.539062 -1.640625 7.191406 -1.515625 7.890625 -1.515625 C 8.316406 -1.515625 8.703125 -1.535156 9.046875 -1.578125 C 9.390625 -1.628906 9.707031 -1.707031 10 -1.8125 C 10.289062 -1.925781 10.5625 -2.0625 10.8125 -2.21875 C 11.0625 -2.382812 11.304688 -2.582031 11.546875 -2.8125 C 11.660156 -2.90625 11.773438 -2.953125 11.890625 -2.953125 Z M 11.890625 -2.953125 "/></g></g></g><g fill="#ffffff" fill-opacity="1"><g transform="translate(126.193403, 25.124998)"><g><path d="M 3.09375 -8.09375 C 3.414062 -8.789062 3.8125 -9.332031 4.28125 -9.71875 C 4.75 -10.113281 5.316406 -10.3125 5.984375 -10.3125 C 6.203125 -10.3125 6.410156 -10.285156 6.609375 -10.234375 C 6.804688 -10.191406 6.976562 -10.117188 7.125 -10.015625 L 7 -8.6875 C 6.957031 -8.519531 6.859375 -8.4375 6.703125 -8.4375 C 6.609375 -8.4375 6.46875 -8.457031 6.28125 -8.5 C 6.101562 -8.539062 5.90625 -8.5625 5.6875 -8.5625 C 5.363281 -8.5625 5.078125 -8.515625 4.828125 -8.421875 C 4.578125 -8.328125 4.351562 -8.1875 4.15625 -8 C 3.957031 -7.820312 3.78125 -7.597656 3.625 -7.328125 C 3.46875 -7.054688 3.328125 -6.75 3.203125 -6.40625 L 3.203125 0 L 1.40625 0 L 1.40625 -10.125 L 2.4375 -10.125 C 2.625 -10.125 2.753906 -10.085938 2.828125 -10.015625 C 2.898438 -9.941406 2.953125 -9.816406 2.984375 -9.640625 Z M 3.09375 -8.09375 "/></g></g></g><g fill="#ffffff" fill-opacity="1"><g transform="translate(133.470529, 25.124998)"><g><path d="M 8.1875 -6.171875 C 8.1875 -6.585938 8.128906 -6.960938 8.015625 -7.296875 C 7.898438 -7.640625 7.726562 -7.9375 7.5 -8.1875 C 7.28125 -8.4375 7.007812 -8.628906 6.6875 -8.765625 C 6.363281 -8.910156 6 -8.984375 5.59375 -8.984375 C 4.738281 -8.984375 4.0625 -8.734375 3.5625 -8.234375 C 3.070312 -7.734375 2.769531 -7.046875 2.65625 -6.171875 Z M 9.625 -1.421875 C 9.40625 -1.148438 9.140625 -0.914062 8.828125 -0.71875 C 8.523438 -0.53125 8.195312 -0.367188 7.84375 -0.234375 C 7.5 -0.109375 7.140625 -0.015625 6.765625 0.046875 C 6.390625 0.109375 6.019531 0.140625 5.65625 0.140625 C 4.957031 0.140625 4.3125 0.0234375 3.71875 -0.203125 C 3.132812 -0.441406 2.625 -0.789062 2.1875 -1.25 C 1.757812 -1.707031 1.425781 -2.269531 1.1875 -2.9375 C 0.945312 -3.613281 0.828125 -4.390625 0.828125 -5.265625 C 0.828125 -5.972656 0.9375 -6.632812 1.15625 -7.25 C 1.375 -7.863281 1.6875 -8.394531 2.09375 -8.84375 C 2.5 -9.289062 2.992188 -9.644531 3.578125 -9.90625 C 4.160156 -10.164062 4.820312 -10.296875 5.5625 -10.296875 C 6.164062 -10.296875 6.722656 -10.191406 7.234375 -9.984375 C 7.753906 -9.785156 8.203125 -9.492188 8.578125 -9.109375 C 8.960938 -8.722656 9.257812 -8.25 9.46875 -7.6875 C 9.6875 -7.125 9.796875 -6.484375 9.796875 -5.765625 C 9.796875 -5.484375 9.765625 -5.296875 9.703125 -5.203125 C 9.640625 -5.109375 9.523438 -5.0625 9.359375 -5.0625 L 2.59375 -5.0625 C 2.613281 -4.414062 2.703125 -3.859375 2.859375 -3.390625 C 3.015625 -2.921875 3.234375 -2.523438 3.515625 -2.203125 C 3.796875 -1.890625 4.128906 -1.65625 4.515625 -1.5 C 4.898438 -1.34375 5.332031 -1.265625 5.8125 -1.265625 C 6.257812 -1.265625 6.644531 -1.3125 6.96875 -1.40625 C 7.289062 -1.507812 7.566406 -1.625 7.796875 -1.75 C 8.035156 -1.875 8.234375 -1.984375 8.390625 -2.078125 C 8.546875 -2.179688 8.679688 -2.234375 8.796875 -2.234375 C 8.941406 -2.234375 9.050781 -2.175781 9.125 -2.0625 Z M 9.625 -1.421875 "/></g></g></g><g fill="#ffffff" fill-opacity="1"><g transform="translate(144.026364, 25.124998)"><g><path d="M 6.90625 -4.5625 C 6.082031 -4.53125 5.378906 -4.460938 4.796875 -4.359375 C 4.222656 -4.253906 3.753906 -4.117188 3.390625 -3.953125 C 3.023438 -3.785156 2.757812 -3.585938 2.59375 -3.359375 C 2.4375 -3.140625 2.359375 -2.890625 2.359375 -2.609375 C 2.359375 -2.335938 2.398438 -2.101562 2.484375 -1.90625 C 2.578125 -1.71875 2.695312 -1.5625 2.84375 -1.4375 C 2.988281 -1.320312 3.164062 -1.234375 3.375 -1.171875 C 3.582031 -1.117188 3.800781 -1.09375 4.03125 -1.09375 C 4.34375 -1.09375 4.628906 -1.125 4.890625 -1.1875 C 5.148438 -1.25 5.394531 -1.335938 5.625 -1.453125 C 5.851562 -1.578125 6.070312 -1.722656 6.28125 -1.890625 C 6.488281 -2.054688 6.695312 -2.242188 6.90625 -2.453125 Z M 1.15625 -8.703125 C 1.707031 -9.242188 2.304688 -9.644531 2.953125 -9.90625 C 3.609375 -10.175781 4.328125 -10.3125 5.109375 -10.3125 C 5.671875 -10.3125 6.171875 -10.21875 6.609375 -10.03125 C 7.054688 -9.84375 7.429688 -9.582031 7.734375 -9.25 C 8.035156 -8.914062 8.257812 -8.507812 8.40625 -8.03125 C 8.5625 -7.5625 8.640625 -7.046875 8.640625 -6.484375 L 8.640625 0 L 7.84375 0 C 7.675781 0 7.546875 -0.0234375 7.453125 -0.078125 C 7.359375 -0.140625 7.285156 -0.253906 7.234375 -0.421875 L 7.03125 -1.375 C 6.757812 -1.132812 6.5 -0.914062 6.25 -0.71875 C 6 -0.53125 5.734375 -0.367188 5.453125 -0.234375 C 5.171875 -0.109375 4.867188 -0.015625 4.546875 0.046875 C 4.234375 0.117188 3.882812 0.15625 3.5 0.15625 C 3.101562 0.15625 2.734375 0.101562 2.390625 0 C 2.046875 -0.113281 1.742188 -0.28125 1.484375 -0.5 C 1.222656 -0.71875 1.019531 -0.992188 0.875 -1.328125 C 0.726562 -1.671875 0.65625 -2.070312 0.65625 -2.53125 C 0.65625 -2.925781 0.765625 -3.304688 0.984375 -3.671875 C 1.203125 -4.046875 1.554688 -4.375 2.046875 -4.65625 C 2.546875 -4.945312 3.191406 -5.1875 3.984375 -5.375 C 4.773438 -5.5625 5.75 -5.664062 6.90625 -5.6875 L 6.90625 -6.484375 C 6.90625 -7.265625 6.734375 -7.859375 6.390625 -8.265625 C 6.046875 -8.671875 5.550781 -8.875 4.90625 -8.875 C 4.457031 -8.875 4.082031 -8.816406 3.78125 -8.703125 C 3.488281 -8.597656 3.234375 -8.472656 3.015625 -8.328125 C 2.804688 -8.191406 2.625 -8.066406 2.46875 -7.953125 C 2.3125 -7.847656 2.15625 -7.796875 2 -7.796875 C 1.875 -7.796875 1.769531 -7.828125 1.6875 -7.890625 C 1.601562 -7.953125 1.53125 -8.03125 1.46875 -8.125 Z M 1.15625 -8.703125 "/></g></g></g><g fill="#ffffff" fill-opacity="1"><g transform="translate(153.962444, 25.124998)"><g><path d="M 4.515625 0.15625 C 3.710938 0.15625 3.097656 -0.0664062 2.671875 -0.515625 C 2.242188 -0.960938 2.03125 -1.601562 2.03125 -2.4375 L 2.03125 -8.640625 L 0.8125 -8.640625 C 0.707031 -8.640625 0.617188 -8.671875 0.546875 -8.734375 C 0.472656 -8.796875 0.4375 -8.894531 0.4375 -9.03125 L 0.4375 -9.734375 L 2.09375 -9.953125 L 2.5 -13.078125 C 2.519531 -13.179688 2.5625 -13.265625 2.625 -13.328125 C 2.695312 -13.390625 2.789062 -13.421875 2.90625 -13.421875 L 3.8125 -13.421875 L 3.8125 -9.9375 L 6.734375 -9.9375 L 6.734375 -8.640625 L 3.8125 -8.640625 L 3.8125 -2.5625 C 3.8125 -2.132812 3.914062 -1.816406 4.125 -1.609375 C 4.332031 -1.398438 4.597656 -1.296875 4.921875 -1.296875 C 5.109375 -1.296875 5.269531 -1.320312 5.40625 -1.375 C 5.539062 -1.425781 5.65625 -1.476562 5.75 -1.53125 C 5.851562 -1.59375 5.941406 -1.648438 6.015625 -1.703125 C 6.085938 -1.753906 6.148438 -1.78125 6.203125 -1.78125 C 6.296875 -1.78125 6.378906 -1.722656 6.453125 -1.609375 L 6.96875 -0.765625 C 6.664062 -0.472656 6.296875 -0.242188 5.859375 -0.078125 C 5.421875 0.078125 4.972656 0.15625 4.515625 0.15625 Z M 4.515625 0.15625 "/></g></g></g><g fill="#ffffff" fill-opacity="1"><g transform="translate(161.129615, 25.124998)"><g><path d="M 3.296875 -10.125 L 3.296875 0 L 1.515625 0 L 1.515625 -10.125 Z M 3.671875 -13.3125 C 3.671875 -13.132812 3.632812 -12.96875 3.5625 -12.8125 C 3.488281 -12.664062 3.394531 -12.535156 3.28125 -12.421875 C 3.164062 -12.304688 3.03125 -12.210938 2.875 -12.140625 C 2.71875 -12.078125 2.550781 -12.046875 2.375 -12.046875 C 2.207031 -12.046875 2.046875 -12.078125 1.890625 -12.140625 C 1.742188 -12.210938 1.613281 -12.304688 1.5 -12.421875 C 1.382812 -12.535156 1.289062 -12.664062 1.21875 -12.8125 C 1.15625 -12.96875 1.125 -13.132812 1.125 -13.3125 C 1.125 -13.476562 1.15625 -13.640625 1.21875 -13.796875 C 1.289062 -13.960938 1.382812 -14.101562 1.5 -14.21875 C 1.613281 -14.332031 1.742188 -14.421875 1.890625 -14.484375 C 2.046875 -14.554688 2.207031 -14.59375 2.375 -14.59375 C 2.550781 -14.59375 2.71875 -14.554688 2.875 -14.484375 C 3.03125 -14.421875 3.164062 -14.332031 3.28125 -14.21875 C 3.394531 -14.101562 3.488281 -13.960938 3.5625 -13.796875 C 3.632812 -13.640625 3.671875 -13.476562 3.671875 -13.3125 Z M 3.671875 -13.3125 "/></g></g></g><g fill="#ffffff" fill-opacity="1"><g transform="translate(165.927722, 25.124998)"><g><path d="M 10.09375 -10.125 L 5.953125 0 L 4.359375 0 L 0.234375 -10.125 L 1.6875 -10.125 C 1.832031 -10.125 1.953125 -10.085938 2.046875 -10.015625 C 2.140625 -9.941406 2.203125 -9.859375 2.234375 -9.765625 L 4.796875 -3.234375 C 4.878906 -2.992188 4.945312 -2.753906 5 -2.515625 C 5.0625 -2.285156 5.125 -2.050781 5.1875 -1.8125 C 5.238281 -2.050781 5.289062 -2.285156 5.34375 -2.515625 C 5.40625 -2.753906 5.476562 -2.992188 5.5625 -3.234375 L 8.171875 -9.765625 C 8.210938 -9.867188 8.28125 -9.953125 8.375 -10.015625 C 8.46875 -10.085938 8.578125 -10.125 8.703125 -10.125 Z M 10.09375 -10.125 "/></g></g></g><g fill="#ffffff" fill-opacity="1"><g transform="translate(176.243655, 25.124998)"><g><path d="M 8.1875 -6.171875 C 8.1875 -6.585938 8.128906 -6.960938 8.015625 -7.296875 C 7.898438 -7.640625 7.726562 -7.9375 7.5 -8.1875 C 7.28125 -8.4375 7.007812 -8.628906 6.6875 -8.765625 C 6.363281 -8.910156 6 -8.984375 5.59375 -8.984375 C 4.738281 -8.984375 4.0625 -8.734375 3.5625 -8.234375 C 3.070312 -7.734375 2.769531 -7.046875 2.65625 -6.171875 Z M 9.625 -1.421875 C 9.40625 -1.148438 9.140625 -0.914062 8.828125 -0.71875 C 8.523438 -0.53125 8.195312 -0.367188 7.84375 -0.234375 C 7.5 -0.109375 7.140625 -0.015625 6.765625 0.046875 C 6.390625 0.109375 6.019531 0.140625 5.65625 0.140625 C 4.957031 0.140625 4.3125 0.0234375 3.71875 -0.203125 C 3.132812 -0.441406 2.625 -0.789062 2.1875 -1.25 C 1.757812 -1.707031 1.425781 -2.269531 1.1875 -2.9375 C 0.945312 -3.613281 0.828125 -4.390625 0.828125 -5.265625 C 0.828125 -5.972656 0.9375 -6.632812 1.15625 -7.25 C 1.375 -7.863281 1.6875 -8.394531 2.09375 -8.84375 C 2.5 -9.289062 2.992188 -9.644531 3.578125 -9.90625 C 4.160156 -10.164062 4.820312 -10.296875 5.5625 -10.296875 C 6.164062 -10.296875 6.722656 -10.191406 7.234375 -9.984375 C 7.753906 -9.785156 8.203125 -9.492188 8.578125 -9.109375 C 8.960938 -8.722656 9.257812 -8.25 9.46875 -7.6875 C 9.6875 -7.125 9.796875 -6.484375 9.796875 -5.765625 C 9.796875 -5.484375 9.765625 -5.296875 9.703125 -5.203125 C 9.640625 -5.109375 9.523438 -5.0625 9.359375 -5.0625 L 2.59375 -5.0625 C 2.613281 -4.414062 2.703125 -3.859375 2.859375 -3.390625 C 3.015625 -2.921875 3.234375 -2.523438 3.515625 -2.203125 C 3.796875 -1.890625 4.128906 -1.65625 4.515625 -1.5 C 4.898438 -1.34375 5.332031 -1.265625 5.8125 -1.265625 C 6.257812 -1.265625 6.644531 -1.3125 6.96875 -1.40625 C 7.289062 -1.507812 7.566406 -1.625 7.796875 -1.75 C 8.035156 -1.875 8.234375 -1.984375 8.390625 -2.078125 C 8.546875 -2.179688 8.679688 -2.234375 8.796875 -2.234375 C 8.941406 -2.234375 9.050781 -2.175781 9.125 -2.0625 Z M 9.625 -1.421875 "/></g></g></g><g fill="#ffffff" fill-opacity="1"><g transform="translate(186.79949, 25.124998)"><g/></g></g><g fill="#ffffff" fill-opacity="1"><g transform="translate(191.91747, 25.124998)"><g><path d="M 11.515625 -12.703125 L 6.875 -12.703125 L 6.875 0 L 4.953125 0 L 4.953125 -12.703125 L 0.296875 -12.703125 L 0.296875 -14.328125 L 11.515625 -14.328125 Z M 11.515625 -12.703125 "/></g></g></g><g fill="#ffffff" fill-opacity="1"><g transform="translate(203.722817, 25.124998)"><g><path d="M 3.203125 -8.78125 C 3.628906 -9.238281 4.109375 -9.601562 4.640625 -9.875 C 5.171875 -10.15625 5.773438 -10.296875 6.453125 -10.296875 C 7.015625 -10.296875 7.503906 -10.203125 7.921875 -10.015625 C 8.347656 -9.828125 8.703125 -9.566406 8.984375 -9.234375 C 9.265625 -8.898438 9.476562 -8.492188 9.625 -8.015625 C 9.769531 -7.546875 9.84375 -7.023438 9.84375 -6.453125 L 9.84375 0 L 8.0625 0 L 8.0625 -6.453125 C 8.0625 -7.210938 7.882812 -7.804688 7.53125 -8.234375 C 7.1875 -8.660156 6.65625 -8.875 5.9375 -8.875 C 5.414062 -8.875 4.925781 -8.742188 4.46875 -8.484375 C 4.007812 -8.234375 3.585938 -7.890625 3.203125 -7.453125 L 3.203125 0 L 1.40625 0 L 1.40625 -14.734375 L 3.203125 -14.734375 Z M 3.203125 -8.78125 "/></g></g></g><g fill="#ffffff" fill-opacity="1"><g transform="translate(214.878414, 25.124998)"><g><path d="M 8.1875 -6.171875 C 8.1875 -6.585938 8.128906 -6.960938 8.015625 -7.296875 C 7.898438 -7.640625 7.726562 -7.9375 7.5 -8.1875 C 7.28125 -8.4375 7.007812 -8.628906 6.6875 -8.765625 C 6.363281 -8.910156 6 -8.984375 5.59375 -8.984375 C 4.738281 -8.984375 4.0625 -8.734375 3.5625 -8.234375 C 3.070312 -7.734375 2.769531 -7.046875 2.65625 -6.171875 Z M 9.625 -1.421875 C 9.40625 -1.148438 9.140625 -0.914062 8.828125 -0.71875 C 8.523438 -0.53125 8.195312 -0.367188 7.84375 -0.234375 C 7.5 -0.109375 7.140625 -0.015625 6.765625 0.046875 C 6.390625 0.109375 6.019531 0.140625 5.65625 0.140625 C 4.957031 0.140625 4.3125 0.0234375 3.71875 -0.203125 C 3.132812 -0.441406 2.625 -0.789062 2.1875 -1.25 C 1.757812 -1.707031 1.425781 -2.269531 1.1875 -2.9375 C 0.945312 -3.613281 0.828125 -4.390625 0.828125 -5.265625 C 0.828125 -5.972656 0.9375 -6.632812 1.15625 -7.25 C 1.375 -7.863281 1.6875 -8.394531 2.09375 -8.84375 C 2.5 -9.289062 2.992188 -9.644531 3.578125 -9.90625 C 4.160156 -10.164062 4.820312 -10.296875 5.5625 -10.296875 C 6.164062 -10.296875 6.722656 -10.191406 7.234375 -9.984375 C 7.753906 -9.785156 8.203125 -9.492188 8.578125 -9.109375 C 8.960938 -8.722656 9.257812 -8.25 9.46875 -7.6875 C 9.6875 -7.125 9.796875 -6.484375 9.796875 -5.765625 C 9.796875 -5.484375 9.765625 -5.296875 9.703125 -5.203125 C 9.640625 -5.109375 9.523438 -5.0625 9.359375 -5.0625 L 2.59375 -5.0625 C 2.613281 -4.414062 2.703125 -3.859375 2.859375 -3.390625 C 3.015625 -2.921875 3.234375 -2.523438 3.515625 -2.203125 C 3.796875 -1.890625 4.128906 -1.65625 4.515625 -1.5 C 4.898438 -1.34375 5.332031 -1.265625 5.8125 -1.265625 C 6.257812 -1.265625 6.644531 -1.3125 6.96875 -1.40625 C 7.289062 -1.507812 7.566406 -1.625 7.796875 -1.75 C 8.035156 -1.875 8.234375 -1.984375 8.390625 -2.078125 C 8.546875 -2.179688 8.679688 -2.234375 8.796875 -2.234375 C 8.941406 -2.234375 9.050781 -2.175781 9.125 -2.0625 Z M 9.625 -1.421875 "/></g></g></g><g fill="#ffffff" fill-opacity="1"><g transform="translate(225.434249, 25.124998)"><g><path d="M 1.40625 0 L 1.40625 -10.125 L 2.484375 -10.125 C 2.734375 -10.125 2.890625 -10.003906 2.953125 -9.765625 L 3.078125 -8.71875 C 3.453125 -9.175781 3.875 -9.550781 4.34375 -9.84375 C 4.8125 -10.144531 5.347656 -10.296875 5.953125 -10.296875 C 6.640625 -10.296875 7.191406 -10.101562 7.609375 -9.71875 C 8.035156 -9.34375 8.34375 -8.832031 8.53125 -8.1875 C 8.675781 -8.550781 8.863281 -8.863281 9.09375 -9.125 C 9.320312 -9.394531 9.578125 -9.613281 9.859375 -9.78125 C 10.148438 -9.957031 10.457031 -10.085938 10.78125 -10.171875 C 11.101562 -10.253906 11.429688 -10.296875 11.765625 -10.296875 C 12.296875 -10.296875 12.769531 -10.207031 13.1875 -10.03125 C 13.601562 -9.863281 13.957031 -9.613281 14.25 -9.28125 C 14.539062 -8.957031 14.765625 -8.554688 14.921875 -8.078125 C 15.078125 -7.609375 15.15625 -7.066406 15.15625 -6.453125 L 15.15625 0 L 13.359375 0 L 13.359375 -6.453125 C 13.359375 -7.242188 13.179688 -7.84375 12.828125 -8.25 C 12.484375 -8.664062 11.988281 -8.875 11.34375 -8.875 C 11.050781 -8.875 10.769531 -8.820312 10.5 -8.71875 C 10.238281 -8.613281 10.007812 -8.457031 9.8125 -8.25 C 9.613281 -8.050781 9.453125 -7.800781 9.328125 -7.5 C 9.210938 -7.195312 9.15625 -6.847656 9.15625 -6.453125 L 9.15625 0 L 7.375 0 L 7.375 -6.453125 C 7.375 -7.265625 7.207031 -7.867188 6.875 -8.265625 C 6.550781 -8.671875 6.078125 -8.875 5.453125 -8.875 C 5.015625 -8.875 4.609375 -8.753906 4.234375 -8.515625 C 3.859375 -8.273438 3.515625 -7.953125 3.203125 -7.546875 L 3.203125 0 Z M 1.40625 0 "/></g></g></g><g fill="#ffffff" fill-opacity="1"><g transform="translate(241.87776, 25.124998)"><g><path d="M 8.1875 -6.171875 C 8.1875 -6.585938 8.128906 -6.960938 8.015625 -7.296875 C 7.898438 -7.640625 7.726562 -7.9375 7.5 -8.1875 C 7.28125 -8.4375 7.007812 -8.628906 6.6875 -8.765625 C 6.363281 -8.910156 6 -8.984375 5.59375 -8.984375 C 4.738281 -8.984375 4.0625 -8.734375 3.5625 -8.234375 C 3.070312 -7.734375 2.769531 -7.046875 2.65625 -6.171875 Z M 9.625 -1.421875 C 9.40625 -1.148438 9.140625 -0.914062 8.828125 -0.71875 C 8.523438 -0.53125 8.195312 -0.367188 7.84375 -0.234375 C 7.5 -0.109375 7.140625 -0.015625 6.765625 0.046875 C 6.390625 0.109375 6.019531 0.140625 5.65625 0.140625 C 4.957031 0.140625 4.3125 0.0234375 3.71875 -0.203125 C 3.132812 -0.441406 2.625 -0.789062 2.1875 -1.25 C 1.757812 -1.707031 1.425781 -2.269531 1.1875 -2.9375 C 0.945312 -3.613281 0.828125 -4.390625 0.828125 -5.265625 C 0.828125 -5.972656 0.9375 -6.632812 1.15625 -7.25 C 1.375 -7.863281 1.6875 -8.394531 2.09375 -8.84375 C 2.5 -9.289062 2.992188 -9.644531 3.578125 -9.90625 C 4.160156 -10.164062 4.820312 -10.296875 5.5625 -10.296875 C 6.164062 -10.296875 6.722656 -10.191406 7.234375 -9.984375 C 7.753906 -9.785156 8.203125 -9.492188 8.578125 -9.109375 C 8.960938 -8.722656 9.257812 -8.25 9.46875 -7.6875 C 9.6875 -7.125 9.796875 -6.484375 9.796875 -5.765625 C 9.796875 -5.484375 9.765625 -5.296875 9.703125 -5.203125 C 9.640625 -5.109375 9.523438 -5.0625 9.359375 -5.0625 L 2.59375 -5.0625 C 2.613281 -4.414062 2.703125 -3.859375 2.859375 -3.390625 C 3.015625 -2.921875 3.234375 -2.523438 3.515625 -2.203125 C 3.796875 -1.890625 4.128906 -1.65625 4.515625 -1.5 C 4.898438 -1.34375 5.332031 -1.265625 5.8125 -1.265625 C 6.257812 -1.265625 6.644531 -1.3125 6.96875 -1.40625 C 7.289062 -1.507812 7.566406 -1.625 7.796875 -1.75 C 8.035156 -1.875 8.234375 -1.984375 8.390625 -2.078125 C 8.546875 -2.179688 8.679688 -2.234375 8.796875 -2.234375 C 8.941406 -2.234375 9.050781 -2.175781 9.125 -2.0625 Z M 9.625 -1.421875 "/></g></g></g><g fill="#ffffff" fill-opacity="1"><g transform="translate(22.475424, 56.560501)"><g><path d="M 5.75 0.125 C 4.738281 0.125 3.867188 -0.0859375 3.140625 -0.515625 C 2.421875 -0.941406 1.863281 -1.550781 1.46875 -2.34375 C 1.082031 -3.144531 0.890625 -4.09375 0.890625 -5.1875 C 0.890625 -6.007812 1 -6.742188 1.21875 -7.390625 C 1.445312 -8.046875 1.769531 -8.597656 2.1875 -9.046875 C 2.601562 -9.503906 3.113281 -9.859375 3.71875 -10.109375 C 4.320312 -10.359375 5 -10.484375 5.75 -10.484375 C 6.363281 -10.484375 6.941406 -10.394531 7.484375 -10.21875 C 8.035156 -10.050781 8.515625 -9.800781 8.921875 -9.46875 C 9.046875 -9.375 9.128906 -9.265625 9.171875 -9.140625 C 9.210938 -9.015625 9.21875 -8.894531 9.1875 -8.78125 C 9.15625 -8.675781 9.097656 -8.585938 9.015625 -8.515625 C 8.929688 -8.441406 8.828125 -8.40625 8.703125 -8.40625 C 8.585938 -8.40625 8.457031 -8.453125 8.3125 -8.546875 C 7.957031 -8.828125 7.566406 -9.035156 7.140625 -9.171875 C 6.722656 -9.316406 6.269531 -9.390625 5.78125 -9.390625 C 5.007812 -9.390625 4.351562 -9.222656 3.8125 -8.890625 C 3.28125 -8.566406 2.875 -8.085938 2.59375 -7.453125 C 2.320312 -6.828125 2.1875 -6.070312 2.1875 -5.1875 C 2.1875 -4.289062 2.320312 -3.523438 2.59375 -2.890625 C 2.875 -2.265625 3.28125 -1.785156 3.8125 -1.453125 C 4.351562 -1.128906 5.007812 -0.96875 5.78125 -0.96875 C 6.257812 -0.96875 6.710938 -1.035156 7.140625 -1.171875 C 7.578125 -1.316406 7.976562 -1.535156 8.34375 -1.828125 C 8.488281 -1.921875 8.617188 -1.960938 8.734375 -1.953125 C 8.859375 -1.953125 8.957031 -1.914062 9.03125 -1.84375 C 9.113281 -1.78125 9.171875 -1.691406 9.203125 -1.578125 C 9.234375 -1.472656 9.234375 -1.363281 9.203125 -1.25 C 9.171875 -1.132812 9.09375 -1.03125 8.96875 -0.9375 C 8.5625 -0.582031 8.082031 -0.316406 7.53125 -0.140625 C 6.976562 0.0351562 6.382812 0.125 5.75 0.125 Z M 5.75 0.125 "/></g></g></g><g fill="#ffffff" fill-opacity="1"><g transform="translate(32.35845, 56.560501)"><g><path d="M 1.71875 0.109375 C 1.519531 0.109375 1.367188 0.0546875 1.265625 -0.046875 C 1.160156 -0.160156 1.109375 -0.316406 1.109375 -0.515625 L 1.109375 -6.640625 C 1.109375 -6.835938 1.15625 -6.984375 1.25 -7.078125 C 1.351562 -7.179688 1.5 -7.234375 1.6875 -7.234375 C 1.875 -7.234375 2.019531 -7.179688 2.125 -7.078125 C 2.226562 -6.984375 2.28125 -6.835938 2.28125 -6.640625 L 2.28125 -5.453125 L 2.125 -5.453125 C 2.28125 -6.023438 2.578125 -6.46875 3.015625 -6.78125 C 3.460938 -7.09375 4.007812 -7.257812 4.65625 -7.28125 C 4.800781 -7.289062 4.914062 -7.257812 5 -7.1875 C 5.09375 -7.113281 5.144531 -6.988281 5.15625 -6.8125 C 5.164062 -6.644531 5.125 -6.507812 5.03125 -6.40625 C 4.945312 -6.3125 4.8125 -6.257812 4.625 -6.25 L 4.390625 -6.21875 C 3.722656 -6.15625 3.210938 -5.9375 2.859375 -5.5625 C 2.503906 -5.195312 2.328125 -4.695312 2.328125 -4.0625 L 2.328125 -0.515625 C 2.328125 -0.316406 2.273438 -0.160156 2.171875 -0.046875 C 2.066406 0.0546875 1.914062 0.109375 1.71875 0.109375 Z M 1.71875 0.109375 "/></g></g></g><g fill="#ffffff" fill-opacity="1"><g transform="translate(37.615691, 56.560501)"><g><path d="M 4.328125 0.125 C 3.578125 0.125 2.929688 -0.0195312 2.390625 -0.3125 C 1.847656 -0.613281 1.425781 -1.035156 1.125 -1.578125 C 0.820312 -2.128906 0.671875 -2.785156 0.671875 -3.546875 C 0.671875 -4.296875 0.816406 -4.945312 1.109375 -5.5 C 1.410156 -6.050781 1.816406 -6.484375 2.328125 -6.796875 C 2.835938 -7.109375 3.429688 -7.265625 4.109375 -7.265625 C 4.585938 -7.265625 5.019531 -7.179688 5.40625 -7.015625 C 5.789062 -6.859375 6.113281 -6.628906 6.375 -6.328125 C 6.644531 -6.023438 6.851562 -5.65625 7 -5.21875 C 7.144531 -4.789062 7.21875 -4.3125 7.21875 -3.78125 C 7.21875 -3.625 7.171875 -3.503906 7.078125 -3.421875 C 6.992188 -3.347656 6.867188 -3.3125 6.703125 -3.3125 L 1.59375 -3.3125 L 1.59375 -4.09375 L 6.421875 -4.09375 L 6.1875 -3.90625 C 6.1875 -4.4375 6.109375 -4.882812 5.953125 -5.25 C 5.796875 -5.613281 5.566406 -5.894531 5.265625 -6.09375 C 4.960938 -6.289062 4.585938 -6.390625 4.140625 -6.390625 C 3.640625 -6.390625 3.210938 -6.273438 2.859375 -6.046875 C 2.515625 -5.816406 2.253906 -5.5 2.078125 -5.09375 C 1.910156 -4.6875 1.828125 -4.210938 1.828125 -3.671875 L 1.828125 -3.578125 C 1.828125 -2.679688 2.039062 -2 2.46875 -1.53125 C 2.90625 -1.0625 3.523438 -0.828125 4.328125 -0.828125 C 4.660156 -0.828125 4.988281 -0.867188 5.3125 -0.953125 C 5.644531 -1.046875 5.96875 -1.191406 6.28125 -1.390625 C 6.414062 -1.484375 6.539062 -1.523438 6.65625 -1.515625 C 6.769531 -1.515625 6.859375 -1.484375 6.921875 -1.421875 C 6.992188 -1.359375 7.039062 -1.28125 7.0625 -1.1875 C 7.09375 -1.09375 7.085938 -0.988281 7.046875 -0.875 C 7.003906 -0.769531 6.914062 -0.679688 6.78125 -0.609375 C 6.457031 -0.367188 6.078125 -0.1875 5.640625 -0.0625 C 5.203125 0.0625 4.765625 0.125 4.328125 0.125 Z M 4.328125 0.125 "/></g></g></g><g fill="#ffffff" fill-opacity="1"><g transform="translate(45.428127, 56.560501)"><g><path d="M 3.359375 0.125 C 2.867188 0.125 2.429688 0.03125 2.046875 -0.15625 C 1.660156 -0.34375 1.351562 -0.601562 1.125 -0.9375 C 0.90625 -1.269531 0.796875 -1.644531 0.796875 -2.0625 C 0.796875 -2.582031 0.925781 -2.992188 1.1875 -3.296875 C 1.457031 -3.609375 1.90625 -3.828125 2.53125 -3.953125 C 3.15625 -4.078125 4.003906 -4.140625 5.078125 -4.140625 L 5.75 -4.140625 L 5.75 -3.359375 L 5.09375 -3.359375 C 4.300781 -3.359375 3.675781 -3.320312 3.21875 -3.25 C 2.769531 -3.175781 2.453125 -3.050781 2.265625 -2.875 C 2.085938 -2.695312 2 -2.445312 2 -2.125 C 2 -1.726562 2.132812 -1.398438 2.40625 -1.140625 C 2.6875 -0.890625 3.066406 -0.765625 3.546875 -0.765625 C 3.941406 -0.765625 4.285156 -0.859375 4.578125 -1.046875 C 4.878906 -1.234375 5.113281 -1.488281 5.28125 -1.8125 C 5.457031 -2.132812 5.546875 -2.503906 5.546875 -2.921875 L 5.546875 -4.59375 C 5.546875 -5.207031 5.421875 -5.644531 5.171875 -5.90625 C 4.929688 -6.175781 4.535156 -6.3125 3.984375 -6.3125 C 3.640625 -6.3125 3.296875 -6.265625 2.953125 -6.171875 C 2.609375 -6.085938 2.242188 -5.945312 1.859375 -5.75 C 1.722656 -5.6875 1.601562 -5.664062 1.5 -5.6875 C 1.40625 -5.71875 1.328125 -5.769531 1.265625 -5.84375 C 1.210938 -5.925781 1.179688 -6.015625 1.171875 -6.109375 C 1.160156 -6.210938 1.179688 -6.3125 1.234375 -6.40625 C 1.296875 -6.507812 1.382812 -6.59375 1.5 -6.65625 C 1.925781 -6.875 2.347656 -7.03125 2.765625 -7.125 C 3.191406 -7.21875 3.597656 -7.265625 3.984375 -7.265625 C 4.597656 -7.265625 5.101562 -7.164062 5.5 -6.96875 C 5.90625 -6.769531 6.207031 -6.46875 6.40625 -6.0625 C 6.601562 -5.65625 6.703125 -5.132812 6.703125 -4.5 L 6.703125 -0.515625 C 6.703125 -0.316406 6.65625 -0.160156 6.5625 -0.046875 C 6.46875 0.0546875 6.332031 0.109375 6.15625 0.109375 C 5.96875 0.109375 5.820312 0.0546875 5.71875 -0.046875 C 5.625 -0.160156 5.578125 -0.316406 5.578125 -0.515625 L 5.578125 -1.65625 L 5.71875 -1.65625 C 5.632812 -1.289062 5.484375 -0.972656 5.265625 -0.703125 C 5.046875 -0.441406 4.773438 -0.238281 4.453125 -0.09375 C 4.128906 0.0507812 3.765625 0.125 3.359375 0.125 Z M 3.359375 0.125 "/></g></g></g><g fill="#ffffff" fill-opacity="1"><g transform="translate(53.211198, 56.560501)"><g><path d="M 3.984375 0.125 C 3.421875 0.125 2.953125 0.0234375 2.578125 -0.171875 C 2.203125 -0.367188 1.921875 -0.660156 1.734375 -1.046875 C 1.546875 -1.429688 1.453125 -1.90625 1.453125 -2.46875 L 1.453125 -6.21875 L 0.46875 -6.21875 C 0.300781 -6.21875 0.171875 -6.257812 0.078125 -6.34375 C -0.00390625 -6.425781 -0.046875 -6.539062 -0.046875 -6.6875 C -0.046875 -6.832031 -0.00390625 -6.941406 0.078125 -7.015625 C 0.171875 -7.097656 0.300781 -7.140625 0.46875 -7.140625 L 1.453125 -7.140625 L 1.453125 -8.828125 C 1.453125 -9.023438 1.503906 -9.171875 1.609375 -9.265625 C 1.722656 -9.367188 1.875 -9.421875 2.0625 -9.421875 C 2.238281 -9.421875 2.378906 -9.367188 2.484375 -9.265625 C 2.585938 -9.171875 2.640625 -9.023438 2.640625 -8.828125 L 2.640625 -7.140625 L 4.5 -7.140625 C 4.664062 -7.140625 4.789062 -7.097656 4.875 -7.015625 C 4.96875 -6.941406 5.015625 -6.832031 5.015625 -6.6875 C 5.015625 -6.539062 4.96875 -6.425781 4.875 -6.34375 C 4.789062 -6.257812 4.664062 -6.21875 4.5 -6.21875 L 2.640625 -6.21875 L 2.640625 -2.578125 C 2.640625 -2.023438 2.753906 -1.601562 2.984375 -1.3125 C 3.222656 -1.019531 3.609375 -0.875 4.140625 -0.875 C 4.328125 -0.875 4.484375 -0.894531 4.609375 -0.9375 C 4.742188 -0.976562 4.859375 -1 4.953125 -1 C 5.035156 -1.007812 5.109375 -0.976562 5.171875 -0.90625 C 5.234375 -0.84375 5.265625 -0.726562 5.265625 -0.5625 C 5.265625 -0.4375 5.238281 -0.328125 5.1875 -0.234375 C 5.144531 -0.140625 5.070312 -0.0703125 4.96875 -0.03125 C 4.84375 0.0078125 4.6875 0.046875 4.5 0.078125 C 4.3125 0.109375 4.140625 0.125 3.984375 0.125 Z M 3.984375 0.125 "/></g></g></g><g fill="#ffffff" fill-opacity="1"><g transform="translate(58.350961, 56.560501)"><g><path d="M 1.703125 0.078125 C 1.503906 0.078125 1.351562 0.0195312 1.25 -0.09375 C 1.15625 -0.207031 1.109375 -0.367188 1.109375 -0.578125 L 1.109375 -6.578125 C 1.109375 -6.785156 1.15625 -6.941406 1.25 -7.046875 C 1.351562 -7.160156 1.503906 -7.21875 1.703125 -7.21875 C 1.890625 -7.21875 2.035156 -7.160156 2.140625 -7.046875 C 2.253906 -6.941406 2.3125 -6.785156 2.3125 -6.578125 L 2.3125 -0.578125 C 2.3125 -0.367188 2.257812 -0.207031 2.15625 -0.09375 C 2.050781 0.0195312 1.898438 0.078125 1.703125 0.078125 Z M 1.703125 -8.890625 C 1.472656 -8.890625 1.296875 -8.953125 1.171875 -9.078125 C 1.046875 -9.203125 0.984375 -9.375 0.984375 -9.59375 C 0.984375 -9.8125 1.046875 -9.984375 1.171875 -10.109375 C 1.296875 -10.234375 1.472656 -10.296875 1.703125 -10.296875 C 1.941406 -10.296875 2.125 -10.234375 2.25 -10.109375 C 2.375 -9.984375 2.4375 -9.8125 2.4375 -9.59375 C 2.4375 -9.363281 2.375 -9.1875 2.25 -9.0625 C 2.125 -8.945312 1.941406 -8.890625 1.703125 -8.890625 Z M 1.703125 -8.890625 "/></g></g></g><g fill="#ffffff" fill-opacity="1"><g transform="translate(61.757893, 56.560501)"><g><path d="M 3.78125 0.109375 C 3.613281 0.109375 3.460938 0.0625 3.328125 -0.03125 C 3.203125 -0.125 3.097656 -0.269531 3.015625 -0.46875 L 0.46875 -6.40625 C 0.40625 -6.550781 0.378906 -6.6875 0.390625 -6.8125 C 0.410156 -6.9375 0.46875 -7.035156 0.5625 -7.109375 C 0.664062 -7.191406 0.804688 -7.234375 0.984375 -7.234375 C 1.140625 -7.234375 1.257812 -7.195312 1.34375 -7.125 C 1.4375 -7.0625 1.519531 -6.941406 1.59375 -6.765625 L 4 -0.875 L 3.59375 -0.875 L 6.046875 -6.765625 C 6.117188 -6.941406 6.195312 -7.0625 6.28125 -7.125 C 6.375 -7.195312 6.503906 -7.234375 6.671875 -7.234375 C 6.828125 -7.234375 6.945312 -7.191406 7.03125 -7.109375 C 7.113281 -7.035156 7.160156 -6.9375 7.171875 -6.8125 C 7.191406 -6.695312 7.171875 -6.566406 7.109375 -6.421875 L 4.53125 -0.46875 C 4.46875 -0.269531 4.367188 -0.125 4.234375 -0.03125 C 4.109375 0.0625 3.957031 0.109375 3.78125 0.109375 Z M 3.78125 0.109375 "/></g></g></g><g fill="#ffffff" fill-opacity="1"><g transform="translate(69.320683, 56.560501)"><g><path d="M 4.328125 0.125 C 3.578125 0.125 2.929688 -0.0195312 2.390625 -0.3125 C 1.847656 -0.613281 1.425781 -1.035156 1.125 -1.578125 C 0.820312 -2.128906 0.671875 -2.785156 0.671875 -3.546875 C 0.671875 -4.296875 0.816406 -4.945312 1.109375 -5.5 C 1.410156 -6.050781 1.816406 -6.484375 2.328125 -6.796875 C 2.835938 -7.109375 3.429688 -7.265625 4.109375 -7.265625 C 4.585938 -7.265625 5.019531 -7.179688 5.40625 -7.015625 C 5.789062 -6.859375 6.113281 -6.628906 6.375 -6.328125 C 6.644531 -6.023438 6.851562 -5.65625 7 -5.21875 C 7.144531 -4.789062 7.21875 -4.3125 7.21875 -3.78125 C 7.21875 -3.625 7.171875 -3.503906 7.078125 -3.421875 C 6.992188 -3.347656 6.867188 -3.3125 6.703125 -3.3125 L 1.59375 -3.3125 L 1.59375 -4.09375 L 6.421875 -4.09375 L 6.1875 -3.90625 C 6.1875 -4.4375 6.109375 -4.882812 5.953125 -5.25 C 5.796875 -5.613281 5.566406 -5.894531 5.265625 -6.09375 C 4.960938 -6.289062 4.585938 -6.390625 4.140625 -6.390625 C 3.640625 -6.390625 3.210938 -6.273438 2.859375 -6.046875 C 2.515625 -5.816406 2.253906 -5.5 2.078125 -5.09375 C 1.910156 -4.6875 1.828125 -4.210938 1.828125 -3.671875 L 1.828125 -3.578125 C 1.828125 -2.679688 2.039062 -2 2.46875 -1.53125 C 2.90625 -1.0625 3.523438 -0.828125 4.328125 -0.828125 C 4.660156 -0.828125 4.988281 -0.867188 5.3125 -0.953125 C 5.644531 -1.046875 5.96875 -1.191406 6.28125 -1.390625 C 6.414062 -1.484375 6.539062 -1.523438 6.65625 -1.515625 C 6.769531 -1.515625 6.859375 -1.484375 6.921875 -1.421875 C 6.992188 -1.359375 7.039062 -1.28125 7.0625 -1.1875 C 7.09375 -1.09375 7.085938 -0.988281 7.046875 -0.875 C 7.003906 -0.769531 6.914062 -0.679688 6.78125 -0.609375 C 6.457031 -0.367188 6.078125 -0.1875 5.640625 -0.0625 C 5.203125 0.0625 4.765625 0.125 4.328125 0.125 Z M 4.328125 0.125 "/></g></g></g><g fill="#ffffff" fill-opacity="1"><g transform="translate(77.133118, 56.560501)"><g/></g></g><g fill="#ffffff" fill-opacity="1"><g transform="translate(80.921862, 56.560501)"><g><path d="M 4.421875 0.109375 C 4.234375 0.109375 4.082031 0.0507812 3.96875 -0.0625 C 3.863281 -0.175781 3.8125 -0.332031 3.8125 -0.53125 L 3.8125 -9.3125 L 0.515625 -9.3125 C 0.335938 -9.3125 0.195312 -9.359375 0.09375 -9.453125 C 0 -9.554688 -0.046875 -9.6875 -0.046875 -9.84375 C -0.046875 -10.007812 0 -10.132812 0.09375 -10.21875 C 0.195312 -10.3125 0.335938 -10.359375 0.515625 -10.359375 L 8.34375 -10.359375 C 8.519531 -10.359375 8.65625 -10.3125 8.75 -10.21875 C 8.851562 -10.132812 8.90625 -10.007812 8.90625 -9.84375 C 8.90625 -9.675781 8.851562 -9.546875 8.75 -9.453125 C 8.65625 -9.359375 8.519531 -9.3125 8.34375 -9.3125 L 5.03125 -9.3125 L 5.03125 -0.53125 C 5.03125 -0.332031 4.976562 -0.175781 4.875 -0.0625 C 4.78125 0.0507812 4.628906 0.109375 4.421875 0.109375 Z M 4.421875 0.109375 "/></g></g></g><g fill="#ffffff" fill-opacity="1"><g transform="translate(89.762255, 56.560501)"><g><path d="M 1.703125 0.109375 C 1.503906 0.109375 1.351562 0.0546875 1.25 -0.046875 C 1.15625 -0.160156 1.109375 -0.316406 1.109375 -0.515625 L 1.109375 -9.859375 C 1.109375 -10.054688 1.15625 -10.203125 1.25 -10.296875 C 1.351562 -10.398438 1.503906 -10.453125 1.703125 -10.453125 C 1.890625 -10.453125 2.035156 -10.398438 2.140625 -10.296875 C 2.253906 -10.203125 2.3125 -10.054688 2.3125 -9.859375 L 2.3125 -5.546875 L 2.109375 -5.546875 C 2.316406 -6.117188 2.648438 -6.546875 3.109375 -6.828125 C 3.578125 -7.117188 4.117188 -7.265625 4.734375 -7.265625 C 5.296875 -7.265625 5.765625 -7.160156 6.140625 -6.953125 C 6.523438 -6.753906 6.804688 -6.445312 6.984375 -6.03125 C 7.171875 -5.613281 7.265625 -5.085938 7.265625 -4.453125 L 7.265625 -0.515625 C 7.265625 -0.316406 7.210938 -0.160156 7.109375 -0.046875 C 7.015625 0.0546875 6.875 0.109375 6.6875 0.109375 C 6.488281 0.109375 6.335938 0.0546875 6.234375 -0.046875 C 6.128906 -0.160156 6.078125 -0.316406 6.078125 -0.515625 L 6.078125 -4.375 C 6.078125 -5.039062 5.945312 -5.523438 5.6875 -5.828125 C 5.425781 -6.140625 5.015625 -6.296875 4.453125 -6.296875 C 3.796875 -6.296875 3.273438 -6.09375 2.890625 -5.6875 C 2.503906 -5.28125 2.3125 -4.738281 2.3125 -4.0625 L 2.3125 -0.515625 C 2.3125 -0.0976562 2.109375 0.109375 1.703125 0.109375 Z M 1.703125 0.109375 "/></g></g></g><g fill="#ffffff" fill-opacity="1"><g transform="translate(98.103356, 56.560501)"><g><path d="M 4.328125 0.125 C 3.578125 0.125 2.929688 -0.0195312 2.390625 -0.3125 C 1.847656 -0.613281 1.425781 -1.035156 1.125 -1.578125 C 0.820312 -2.128906 0.671875 -2.785156 0.671875 -3.546875 C 0.671875 -4.296875 0.816406 -4.945312 1.109375 -5.5 C 1.410156 -6.050781 1.816406 -6.484375 2.328125 -6.796875 C 2.835938 -7.109375 3.429688 -7.265625 4.109375 -7.265625 C 4.585938 -7.265625 5.019531 -7.179688 5.40625 -7.015625 C 5.789062 -6.859375 6.113281 -6.628906 6.375 -6.328125 C 6.644531 -6.023438 6.851562 -5.65625 7 -5.21875 C 7.144531 -4.789062 7.21875 -4.3125 7.21875 -3.78125 C 7.21875 -3.625 7.171875 -3.503906 7.078125 -3.421875 C 6.992188 -3.347656 6.867188 -3.3125 6.703125 -3.3125 L 1.59375 -3.3125 L 1.59375 -4.09375 L 6.421875 -4.09375 L 6.1875 -3.90625 C 6.1875 -4.4375 6.109375 -4.882812 5.953125 -5.25 C 5.796875 -5.613281 5.566406 -5.894531 5.265625 -6.09375 C 4.960938 -6.289062 4.585938 -6.390625 4.140625 -6.390625 C 3.640625 -6.390625 3.210938 -6.273438 2.859375 -6.046875 C 2.515625 -5.816406 2.253906 -5.5 2.078125 -5.09375 C 1.910156 -4.6875 1.828125 -4.210938 1.828125 -3.671875 L 1.828125 -3.578125 C 1.828125 -2.679688 2.039062 -2 2.46875 -1.53125 C 2.90625 -1.0625 3.523438 -0.828125 4.328125 -0.828125 C 4.660156 -0.828125 4.988281 -0.867188 5.3125 -0.953125 C 5.644531 -1.046875 5.96875 -1.191406 6.28125 -1.390625 C 6.414062 -1.484375 6.539062 -1.523438 6.65625 -1.515625 C 6.769531 -1.515625 6.859375 -1.484375 6.921875 -1.421875 C 6.992188 -1.359375 7.039062 -1.28125 7.0625 -1.1875 C 7.09375 -1.09375 7.085938 -0.988281 7.046875 -0.875 C 7.003906 -0.769531 6.914062 -0.679688 6.78125 -0.609375 C 6.457031 -0.367188 6.078125 -0.1875 5.640625 -0.0625 C 5.203125 0.0625 4.765625 0.125 4.328125 0.125 Z M 4.328125 0.125 "/></g></g></g><g fill="#ffffff" fill-opacity="1"><g transform="translate(105.915792, 56.560501)"><g><path d="M 1.734375 0.109375 C 1.535156 0.109375 1.382812 0.0546875 1.28125 -0.046875 C 1.1875 -0.160156 1.140625 -0.316406 1.140625 -0.515625 L 1.140625 -6.640625 C 1.140625 -6.835938 1.1875 -6.984375 1.28125 -7.078125 C 1.382812 -7.179688 1.53125 -7.234375 1.71875 -7.234375 C 1.90625 -7.234375 2.050781 -7.179688 2.15625 -7.078125 C 2.257812 -6.984375 2.3125 -6.835938 2.3125 -6.640625 L 2.3125 -5.34375 L 2.140625 -5.546875 C 2.328125 -6.097656 2.628906 -6.519531 3.046875 -6.8125 C 3.460938 -7.113281 3.957031 -7.265625 4.53125 -7.265625 C 5.144531 -7.265625 5.640625 -7.117188 6.015625 -6.828125 C 6.390625 -6.546875 6.640625 -6.101562 6.765625 -5.5 L 6.546875 -5.5 C 6.722656 -6.039062 7.039062 -6.46875 7.5 -6.78125 C 7.957031 -7.101562 8.488281 -7.265625 9.09375 -7.265625 C 9.632812 -7.265625 10.078125 -7.160156 10.421875 -6.953125 C 10.765625 -6.753906 11.023438 -6.445312 11.203125 -6.03125 C 11.378906 -5.613281 11.46875 -5.085938 11.46875 -4.453125 L 11.46875 -0.515625 C 11.46875 -0.316406 11.414062 -0.160156 11.3125 -0.046875 C 11.207031 0.0546875 11.0625 0.109375 10.875 0.109375 C 10.6875 0.109375 10.539062 0.0546875 10.4375 -0.046875 C 10.332031 -0.160156 10.28125 -0.316406 10.28125 -0.515625 L 10.28125 -4.390625 C 10.28125 -5.046875 10.164062 -5.523438 9.9375 -5.828125 C 9.71875 -6.140625 9.335938 -6.296875 8.796875 -6.296875 C 8.210938 -6.296875 7.75 -6.09375 7.40625 -5.6875 C 7.070312 -5.28125 6.90625 -4.734375 6.90625 -4.046875 L 6.90625 -0.515625 C 6.90625 -0.316406 6.851562 -0.160156 6.75 -0.046875 C 6.644531 0.0546875 6.492188 0.109375 6.296875 0.109375 C 6.109375 0.109375 5.960938 0.0546875 5.859375 -0.046875 C 5.765625 -0.160156 5.71875 -0.316406 5.71875 -0.515625 L 5.71875 -4.390625 C 5.71875 -5.046875 5.597656 -5.523438 5.359375 -5.828125 C 5.128906 -6.140625 4.753906 -6.296875 4.234375 -6.296875 C 3.640625 -6.296875 3.171875 -6.09375 2.828125 -5.6875 C 2.492188 -5.28125 2.328125 -4.734375 2.328125 -4.046875 L 2.328125 -0.515625 C 2.328125 -0.0976562 2.128906 0.109375 1.734375 0.109375 Z M 1.734375 0.109375 "/></g></g></g><g fill="#ffffff" fill-opacity="1"><g transform="translate(118.486178, 56.560501)"><g><path d="M 4.328125 0.125 C 3.578125 0.125 2.929688 -0.0195312 2.390625 -0.3125 C 1.847656 -0.613281 1.425781 -1.035156 1.125 -1.578125 C 0.820312 -2.128906 0.671875 -2.785156 0.671875 -3.546875 C 0.671875 -4.296875 0.816406 -4.945312 1.109375 -5.5 C 1.410156 -6.050781 1.816406 -6.484375 2.328125 -6.796875 C 2.835938 -7.109375 3.429688 -7.265625 4.109375 -7.265625 C 4.585938 -7.265625 5.019531 -7.179688 5.40625 -7.015625 C 5.789062 -6.859375 6.113281 -6.628906 6.375 -6.328125 C 6.644531 -6.023438 6.851562 -5.65625 7 -5.21875 C 7.144531 -4.789062 7.21875 -4.3125 7.21875 -3.78125 C 7.21875 -3.625 7.171875 -3.503906 7.078125 -3.421875 C 6.992188 -3.347656 6.867188 -3.3125 6.703125 -3.3125 L 1.59375 -3.3125 L 1.59375 -4.09375 L 6.421875 -4.09375 L 6.1875 -3.90625 C 6.1875 -4.4375 6.109375 -4.882812 5.953125 -5.25 C 5.796875 -5.613281 5.566406 -5.894531 5.265625 -6.09375 C 4.960938 -6.289062 4.585938 -6.390625 4.140625 -6.390625 C 3.640625 -6.390625 3.210938 -6.273438 2.859375 -6.046875 C 2.515625 -5.816406 2.253906 -5.5 2.078125 -5.09375 C 1.910156 -4.6875 1.828125 -4.210938 1.828125 -3.671875 L 1.828125 -3.578125 C 1.828125 -2.679688 2.039062 -2 2.46875 -1.53125 C 2.90625 -1.0625 3.523438 -0.828125 4.328125 -0.828125 C 4.660156 -0.828125 4.988281 -0.867188 5.3125 -0.953125 C 5.644531 -1.046875 5.96875 -1.191406 6.28125 -1.390625 C 6.414062 -1.484375 6.539062 -1.523438 6.65625 -1.515625 C 6.769531 -1.515625 6.859375 -1.484375 6.921875 -1.421875 C 6.992188 -1.359375 7.039062 -1.28125 7.0625 -1.1875 C 7.09375 -1.09375 7.085938 -0.988281 7.046875 -0.875 C 7.003906 -0.769531 6.914062 -0.679688 6.78125 -0.609375 C 6.457031 -0.367188 6.078125 -0.1875 5.640625 -0.0625 C 5.203125 0.0625 4.765625 0.125 4.328125 0.125 Z M 4.328125 0.125 "/></g></g></g></svg>