<svg xmlns="http://www.w3.org/2000/svg" xmlns:xlink="http://www.w3.org/1999/xlink" width="500" zoomAndPan="magnify" viewBox="0 0 375 374.999991" height="500" preserveAspectRatio="xMidYMid meet" version="1.0"><defs><clipPath id="9da6bc2264"><path d="M 5.800781 5.800781 L 369.550781 5.800781 L 369.550781 369.550781 L 5.800781 369.550781 Z M 5.800781 5.800781 " clip-rule="nonzero"/></clipPath><clipPath id="ee76917907"><path d="M 71.476562 284.402344 L 72.925781 284.402344 L 72.925781 285.625 L 71.476562 285.625 Z M 71.476562 284.402344 " clip-rule="nonzero"/></clipPath><clipPath id="94ac29e3d4"><path d="M 72.898438 284.851562 C 72.226562 285.824219 71.625 285.675781 71.550781 285.449219 C 71.398438 285.226562 71.550781 284.625 71.699219 284.476562 C 71.925781 284.324219 72.675781 284.550781 72.675781 284.550781 " clip-rule="nonzero"/></clipPath><clipPath id="e0eff31a29"><path d="M 78.671875 295.945312 L 98.332031 295.945312 L 98.332031 298.75 L 78.671875 298.75 Z M 78.671875 295.945312 " clip-rule="nonzero"/></clipPath><clipPath id="c4c45da353"><path d="M 79.425781 295.949219 C 94.949219 296.101562 97.050781 296.175781 97.800781 296.699219 C 98.101562 296.925781 98.324219 297.226562 98.324219 297.449219 C 98.25 297.675781 97.726562 298.199219 97.5 298.125 C 97.199219 298.050781 96.824219 297.226562 96.898438 297 C 96.976562 296.851562 97.800781 296.625 97.949219 296.773438 C 98.101562 296.925781 98.023438 297.824219 97.574219 298.125 C 95.851562 299.398438 81.074219 298.425781 79.273438 297.375 C 78.824219 297.148438 78.675781 296.851562 78.675781 296.550781 C 78.675781 296.324219 79.425781 295.949219 79.425781 295.949219 " clip-rule="nonzero"/></clipPath><clipPath id="55fe67a324"><path d="M 144.636719 288.660156 L 168.589844 288.660156 L 168.589844 307.664062 L 144.636719 307.664062 Z M 144.636719 288.660156 " clip-rule="nonzero"/></clipPath><clipPath id="700fda8ea4"><path d="M 145.875 288.75 C 162.75 304.050781 168 305.101562 168.449219 306.300781 C 168.601562 306.75 168.148438 307.574219 167.925781 307.574219 C 167.773438 307.574219 167.175781 306.523438 167.324219 306.375 C 167.398438 306.148438 168.449219 306.226562 168.523438 306.449219 C 168.675781 306.601562 168.226562 307.425781 167.773438 307.574219 C 166.648438 307.875 163.5 306.300781 160.949219 304.648438 C 156.449219 301.800781 145.875 292.050781 144.898438 289.949219 C 144.675781 289.425781 144.675781 289.125 144.824219 288.898438 C 145.050781 288.75 145.875 288.75 145.875 288.75 " clip-rule="nonzero"/></clipPath></defs><g clip-path="url(#9da6bc2264)"><path fill="#7ed957" d="M 187.496094 5.800781 C 87.148438 5.800781 5.800781 87.148438 5.800781 187.496094 C 5.800781 287.84375 87.148438 369.1875 187.496094 369.1875 C 287.84375 369.1875 369.1875 287.84375 369.1875 187.496094 C 369.1875 87.148438 287.84375 5.800781 187.496094 5.800781 Z M 260.171875 205.664062 L 158.679688 205.664062 L 187.496094 234.480469 C 194.582031 241.566406 194.582031 253.085938 187.496094 260.171875 C 180.410156 267.257812 168.890625 267.257812 161.804688 260.171875 L 101.972656 200.339844 C 94.867188 193.238281 94.867188 181.738281 101.972656 174.648438 L 161.804688 114.820312 C 168.890625 107.734375 180.410156 107.734375 187.496094 114.820312 C 194.582031 121.90625 194.582031 133.425781 187.496094 140.511719 L 158.679688 169.328125 L 260.171875 169.328125 C 270.203125 169.328125 278.34375 177.464844 278.34375 187.496094 C 278.34375 197.527344 270.203125 205.664062 260.171875 205.664062 Z M 260.171875 205.664062 " fill-opacity="1" fill-rule="nonzero"/></g><g clip-path="url(#ee76917907)"><g clip-path="url(#94ac29e3d4)"><path fill="#7ed957" d="M 68.550781 281.476562 L 75.96875 281.476562 L 75.96875 288.75 L 68.550781 288.75 Z M 68.550781 281.476562 " fill-opacity="1" fill-rule="nonzero"/></g></g><g clip-path="url(#e0eff31a29)"><g clip-path="url(#c4c45da353)"><path fill="#7ed957" d="M 75.675781 292.949219 L 101.328125 292.949219 L 101.328125 301.199219 L 75.675781 301.199219 Z M 75.675781 292.949219 " fill-opacity="1" fill-rule="nonzero"/></g></g><g clip-path="url(#55fe67a324)"><g clip-path="url(#700fda8ea4)"><path fill="#7ed957" d="M 141.824219 285.75 L 171.59375 285.75 L 171.59375 310.574219 L 141.824219 310.574219 Z M 141.824219 285.75 " fill-opacity="1" fill-rule="nonzero"/></g></g></svg>