<svg xmlns="http://www.w3.org/2000/svg" xmlns:xlink="http://www.w3.org/1999/xlink" width="500" zoomAndPan="magnify" viewBox="0 0 375 179.999997" height="240" preserveAspectRatio="xMidYMid meet" version="1.0"><defs><g/><clipPath id="8ec0668243"><path d="M 0 0 L 159.46875 0 L 159.46875 90 L 0 90 Z M 0 0 " clip-rule="nonzero"/></clipPath><clipPath id="1af3b91b96"><path d="M 93.75 0 L 271.542969 0 L 271.542969 90 L 93.75 90 Z M 93.75 0 " clip-rule="nonzero"/></clipPath><clipPath id="165271f8ed"><path d="M 187.5 0 L 375 0 L 375 90 L 187.5 90 Z M 187.5 0 " clip-rule="nonzero"/></clipPath><clipPath id="ed7c08d418"><path d="M 281.25 0 L 375 0 L 375 90 L 281.25 90 Z M 281.25 0 " clip-rule="nonzero"/></clipPath><clipPath id="6ecfc38fa2"><path d="M 0 90 L 159.46875 90 L 159.46875 180 L 0 180 Z M 0 90 " clip-rule="nonzero"/></clipPath><clipPath id="ea7d76ad3b"><path d="M 93.75 90 L 271.542969 90 L 271.542969 180 L 93.75 180 Z M 93.75 90 " clip-rule="nonzero"/></clipPath><clipPath id="4479db3dfa"><path d="M 187.5 90 L 375 90 L 375 180 L 187.5 180 Z M 187.5 90 " clip-rule="nonzero"/></clipPath><clipPath id="d354d1ddcd"><path d="M 281.25 90 L 375 90 L 375 180 L 281.25 180 Z M 281.25 90 " clip-rule="nonzero"/></clipPath></defs><g clip-path="url(#8ec0668243)"><path fill="#ffffff" d="M 0 0 L 159.609375 0 L 159.609375 90 L 0 90 Z M 0 0 " fill-opacity="1" fill-rule="nonzero"/></g><g clip-path="url(#1af3b91b96)"><path fill="#f5f5f5" d="M 93.75 0 L 271.640625 0 L 271.640625 90 L 93.75 90 Z M 93.75 0 " fill-opacity="1" fill-rule="nonzero"/></g><g clip-path="url(#165271f8ed)"><path fill="#e0e0e0" d="M 187.5 0 L 374.882812 0 L 374.882812 90 L 187.5 90 Z M 187.5 0 " fill-opacity="1" fill-rule="nonzero"/></g><g clip-path="url(#ed7c08d418)"><path fill="#cccccc" d="M 281.25 0 L 375.117188 0 L 375.117188 90 L 281.25 90 Z M 281.25 0 " fill-opacity="1" fill-rule="nonzero"/></g><g clip-path="url(#6ecfc38fa2)"><path fill="#333333" d="M 0 90 L 159.609375 90 L 159.609375 180 L 0 180 Z M 0 90 " fill-opacity="1" fill-rule="nonzero"/></g><g clip-path="url(#ea7d76ad3b)"><path fill="#666666" d="M 93.75 90 L 271.640625 90 L 271.640625 180 L 93.75 180 Z M 93.75 90 " fill-opacity="1" fill-rule="nonzero"/></g><g clip-path="url(#4479db3dfa)"><path fill="#999999" d="M 187.5 90 L 374.882812 90 L 374.882812 180 L 187.5 180 Z M 187.5 90 " fill-opacity="1" fill-rule="nonzero"/></g><g clip-path="url(#d354d1ddcd)"><path fill="#aaaaaa" d="M 281.25 90 L 375.117188 90 L 375.117188 180 L 281.25 180 Z M 281.25 90 " fill-opacity="1" fill-rule="nonzero"/></g><g fill="#000000" fill-opacity="1"><g transform="translate(238.181913, 59.149998)"><g><path d="M 9.6875 -3.609375 C 9.550781 -2.410156 9.109375 -1.484375 8.359375 -0.828125 C 7.609375 -0.171875 6.613281 0.15625 5.375 0.15625 C 4.03125 0.15625 2.953125 -0.320312 2.140625 -1.28125 C 1.335938 -2.25 0.9375 -3.539062 0.9375 -5.15625 L 0.9375 -6.25 C 0.9375 -7.3125 1.125 -8.242188 1.5 -9.046875 C 1.875 -9.847656 2.40625 -10.460938 3.09375 -10.890625 C 3.789062 -11.316406 4.597656 -11.53125 5.515625 -11.53125 C 6.722656 -11.53125 7.691406 -11.191406 8.421875 -10.515625 C 9.148438 -9.847656 9.570312 -8.914062 9.6875 -7.71875 L 8.1875 -7.71875 C 8.050781 -8.625 7.765625 -9.28125 7.328125 -9.6875 C 6.898438 -10.09375 6.296875 -10.296875 5.515625 -10.296875 C 4.554688 -10.296875 3.800781 -9.941406 3.25 -9.234375 C 2.707031 -8.523438 2.4375 -7.519531 2.4375 -6.21875 L 2.4375 -5.109375 C 2.4375 -3.878906 2.691406 -2.898438 3.203125 -2.171875 C 3.722656 -1.441406 4.445312 -1.078125 5.375 -1.078125 C 6.207031 -1.078125 6.847656 -1.265625 7.296875 -1.640625 C 7.742188 -2.015625 8.039062 -2.671875 8.1875 -3.609375 Z M 9.6875 -3.609375 "/></g></g></g><g fill="#000000" fill-opacity="1"><g transform="translate(248.593438, 59.149998)"><g><path d="M 5.1875 -7.15625 C 4.96875 -7.195312 4.726562 -7.21875 4.46875 -7.21875 C 3.519531 -7.21875 2.878906 -6.8125 2.546875 -6 L 2.546875 0 L 1.09375 0 L 1.09375 -8.453125 L 2.5 -8.453125 L 2.53125 -7.484375 C 3 -8.234375 3.671875 -8.609375 4.546875 -8.609375 C 4.828125 -8.609375 5.039062 -8.570312 5.1875 -8.5 Z M 5.1875 -7.15625 "/></g></g></g><g fill="#000000" fill-opacity="1"><g transform="translate(254.006184, 59.149998)"><g><path d="M 4.609375 0.15625 C 3.460938 0.15625 2.53125 -0.21875 1.8125 -0.96875 C 1.09375 -1.726562 0.734375 -2.738281 0.734375 -4 L 0.734375 -4.265625 C 0.734375 -5.097656 0.890625 -5.84375 1.203125 -6.5 C 1.523438 -7.164062 1.972656 -7.679688 2.546875 -8.046875 C 3.128906 -8.421875 3.753906 -8.609375 4.421875 -8.609375 C 5.523438 -8.609375 6.378906 -8.242188 6.984375 -7.515625 C 7.597656 -6.796875 7.90625 -5.765625 7.90625 -4.421875 L 7.90625 -3.8125 L 2.171875 -3.8125 C 2.191406 -2.976562 2.4375 -2.304688 2.90625 -1.796875 C 3.375 -1.285156 3.96875 -1.03125 4.6875 -1.03125 C 5.195312 -1.03125 5.628906 -1.132812 5.984375 -1.34375 C 6.335938 -1.550781 6.644531 -1.828125 6.90625 -2.171875 L 7.796875 -1.484375 C 7.085938 -0.390625 6.023438 0.15625 4.609375 0.15625 Z M 4.421875 -7.421875 C 3.835938 -7.421875 3.347656 -7.207031 2.953125 -6.78125 C 2.554688 -6.363281 2.3125 -5.769531 2.21875 -5 L 6.453125 -5 L 6.453125 -5.109375 C 6.410156 -5.847656 6.210938 -6.414062 5.859375 -6.8125 C 5.503906 -7.21875 5.023438 -7.421875 4.421875 -7.421875 Z M 4.421875 -7.421875 "/></g></g></g><g fill="#000000" fill-opacity="1"><g transform="translate(262.480682, 59.149998)"><g><path d="M 6.3125 0 C 6.226562 -0.164062 6.160156 -0.460938 6.109375 -0.890625 C 5.441406 -0.191406 4.640625 0.15625 3.703125 0.15625 C 2.867188 0.15625 2.1875 -0.078125 1.65625 -0.546875 C 1.125 -1.023438 0.859375 -1.625 0.859375 -2.34375 C 0.859375 -3.226562 1.191406 -3.910156 1.859375 -4.390625 C 2.523438 -4.878906 3.46875 -5.125 4.6875 -5.125 L 6.09375 -5.125 L 6.09375 -5.796875 C 6.09375 -6.296875 5.941406 -6.695312 5.640625 -7 C 5.335938 -7.300781 4.890625 -7.453125 4.296875 -7.453125 C 3.785156 -7.453125 3.351562 -7.320312 3 -7.0625 C 2.65625 -6.800781 2.484375 -6.484375 2.484375 -6.109375 L 1.03125 -6.109375 C 1.03125 -6.535156 1.175781 -6.941406 1.46875 -7.328125 C 1.769531 -7.722656 2.175781 -8.035156 2.6875 -8.265625 C 3.207031 -8.492188 3.773438 -8.609375 4.390625 -8.609375 C 5.359375 -8.609375 6.117188 -8.363281 6.671875 -7.875 C 7.222656 -7.394531 7.507812 -6.726562 7.53125 -5.875 L 7.53125 -1.984375 C 7.53125 -1.203125 7.628906 -0.582031 7.828125 -0.125 L 7.828125 0 Z M 3.921875 -1.109375 C 4.367188 -1.109375 4.796875 -1.222656 5.203125 -1.453125 C 5.609375 -1.691406 5.90625 -2 6.09375 -2.375 L 6.09375 -4.109375 L 4.953125 -4.109375 C 3.179688 -4.109375 2.296875 -3.585938 2.296875 -2.546875 C 2.296875 -2.097656 2.445312 -1.742188 2.75 -1.484375 C 3.050781 -1.234375 3.441406 -1.109375 3.921875 -1.109375 Z M 3.921875 -1.109375 "/></g></g></g><g fill="#000000" fill-opacity="1"><g transform="translate(271.181682, 59.149998)"><g><path d="M 3.0625 -10.5 L 3.0625 -8.453125 L 4.640625 -8.453125 L 4.640625 -7.34375 L 3.0625 -7.34375 L 3.0625 -2.09375 C 3.0625 -1.757812 3.128906 -1.503906 3.265625 -1.328125 C 3.410156 -1.160156 3.648438 -1.078125 3.984375 -1.078125 C 4.148438 -1.078125 4.378906 -1.109375 4.671875 -1.171875 L 4.671875 0 C 4.296875 0.101562 3.925781 0.15625 3.5625 0.15625 C 2.914062 0.15625 2.425781 -0.0351562 2.09375 -0.421875 C 1.769531 -0.816406 1.609375 -1.375 1.609375 -2.09375 L 1.609375 -7.34375 L 0.078125 -7.34375 L 0.078125 -8.453125 L 1.609375 -8.453125 L 1.609375 -10.5 Z M 3.0625 -10.5 "/></g></g></g><g fill="#000000" fill-opacity="1"><g transform="translate(276.406974, 59.149998)"><g><path d="M 2.671875 0 L 1.21875 0 L 1.21875 -8.453125 L 2.671875 -8.453125 Z M 1.109375 -10.703125 C 1.109375 -10.929688 1.175781 -11.125 1.3125 -11.28125 C 1.457031 -11.445312 1.671875 -11.53125 1.953125 -11.53125 C 2.234375 -11.53125 2.445312 -11.445312 2.59375 -11.28125 C 2.738281 -11.125 2.8125 -10.925781 2.8125 -10.6875 C 2.8125 -10.457031 2.738281 -10.265625 2.59375 -10.109375 C 2.445312 -9.953125 2.234375 -9.875 1.953125 -9.875 C 1.671875 -9.875 1.457031 -9.953125 1.3125 -10.109375 C 1.175781 -10.265625 1.109375 -10.460938 1.109375 -10.703125 Z M 1.109375 -10.703125 "/></g></g></g><g fill="#000000" fill-opacity="1"><g transform="translate(280.288844, 59.149998)"><g><path d="M 3.890625 -1.96875 L 5.984375 -8.453125 L 7.453125 -8.453125 L 4.421875 0 L 3.328125 0 L 0.265625 -8.453125 L 1.734375 -8.453125 Z M 3.890625 -1.96875 "/></g></g></g><g fill="#000000" fill-opacity="1"><g transform="translate(288.036951, 59.149998)"><g><path d="M 4.609375 0.15625 C 3.460938 0.15625 2.53125 -0.21875 1.8125 -0.96875 C 1.09375 -1.726562 0.734375 -2.738281 0.734375 -4 L 0.734375 -4.265625 C 0.734375 -5.097656 0.890625 -5.84375 1.203125 -6.5 C 1.523438 -7.164062 1.972656 -7.679688 2.546875 -8.046875 C 3.128906 -8.421875 3.753906 -8.609375 4.421875 -8.609375 C 5.523438 -8.609375 6.378906 -8.242188 6.984375 -7.515625 C 7.597656 -6.796875 7.90625 -5.765625 7.90625 -4.421875 L 7.90625 -3.8125 L 2.171875 -3.8125 C 2.191406 -2.976562 2.4375 -2.304688 2.90625 -1.796875 C 3.375 -1.285156 3.96875 -1.03125 4.6875 -1.03125 C 5.195312 -1.03125 5.628906 -1.132812 5.984375 -1.34375 C 6.335938 -1.550781 6.644531 -1.828125 6.90625 -2.171875 L 7.796875 -1.484375 C 7.085938 -0.390625 6.023438 0.15625 4.609375 0.15625 Z M 4.421875 -7.421875 C 3.835938 -7.421875 3.347656 -7.207031 2.953125 -6.78125 C 2.554688 -6.363281 2.3125 -5.769531 2.21875 -5 L 6.453125 -5 L 6.453125 -5.109375 C 6.410156 -5.847656 6.210938 -6.414062 5.859375 -6.8125 C 5.503906 -7.21875 5.023438 -7.421875 4.421875 -7.421875 Z M 4.421875 -7.421875 "/></g></g></g><g fill="#000000" fill-opacity="1"><g transform="translate(296.51145, 59.149998)"><g/></g></g><g fill="#000000" fill-opacity="1"><g transform="translate(300.471426, 59.149998)"><g><path d="M 9.1875 -10.140625 L 5.53125 -10.140625 L 5.53125 0 L 4.03125 0 L 4.03125 -10.140625 L 0.390625 -10.140625 L 0.390625 -11.375 L 9.1875 -11.375 Z M 9.1875 -10.140625 "/></g></g></g><g fill="#000000" fill-opacity="1"><g transform="translate(310.015969, 59.149998)"><g><path d="M 2.546875 -7.4375 C 3.179688 -8.21875 4.015625 -8.609375 5.046875 -8.609375 C 6.828125 -8.609375 7.726562 -7.601562 7.75 -5.59375 L 7.75 0 L 6.296875 0 L 6.296875 -5.59375 C 6.296875 -6.207031 6.15625 -6.660156 5.875 -6.953125 C 5.601562 -7.242188 5.179688 -7.390625 4.609375 -7.390625 C 4.140625 -7.390625 3.726562 -7.265625 3.375 -7.015625 C 3.019531 -6.765625 2.742188 -6.4375 2.546875 -6.03125 L 2.546875 0 L 1.09375 0 L 1.09375 -12 L 2.546875 -12 Z M 2.546875 -7.4375 "/></g></g></g><g fill="#000000" fill-opacity="1"><g transform="translate(318.826317, 59.149998)"><g><path d="M 4.609375 0.15625 C 3.460938 0.15625 2.53125 -0.21875 1.8125 -0.96875 C 1.09375 -1.726562 0.734375 -2.738281 0.734375 -4 L 0.734375 -4.265625 C 0.734375 -5.097656 0.890625 -5.84375 1.203125 -6.5 C 1.523438 -7.164062 1.972656 -7.679688 2.546875 -8.046875 C 3.128906 -8.421875 3.753906 -8.609375 4.421875 -8.609375 C 5.523438 -8.609375 6.378906 -8.242188 6.984375 -7.515625 C 7.597656 -6.796875 7.90625 -5.765625 7.90625 -4.421875 L 7.90625 -3.8125 L 2.171875 -3.8125 C 2.191406 -2.976562 2.4375 -2.304688 2.90625 -1.796875 C 3.375 -1.285156 3.96875 -1.03125 4.6875 -1.03125 C 5.195312 -1.03125 5.628906 -1.132812 5.984375 -1.34375 C 6.335938 -1.550781 6.644531 -1.828125 6.90625 -2.171875 L 7.796875 -1.484375 C 7.085938 -0.390625 6.023438 0.15625 4.609375 0.15625 Z M 4.421875 -7.421875 C 3.835938 -7.421875 3.347656 -7.207031 2.953125 -6.78125 C 2.554688 -6.363281 2.3125 -5.769531 2.21875 -5 L 6.453125 -5 L 6.453125 -5.109375 C 6.410156 -5.847656 6.210938 -6.414062 5.859375 -6.8125 C 5.503906 -7.21875 5.023438 -7.421875 4.421875 -7.421875 Z M 4.421875 -7.421875 "/></g></g></g><g fill="#000000" fill-opacity="1"><g transform="translate(327.300815, 59.149998)"><g><path d="M 2.453125 -8.453125 L 2.5 -7.515625 C 3.113281 -8.242188 3.945312 -8.609375 5 -8.609375 C 6.1875 -8.609375 6.992188 -8.15625 7.421875 -7.25 C 7.703125 -7.65625 8.066406 -7.984375 8.515625 -8.234375 C 8.960938 -8.484375 9.492188 -8.609375 10.109375 -8.609375 C 11.960938 -8.609375 12.90625 -7.628906 12.9375 -5.671875 L 12.9375 0 L 11.5 0 L 11.5 -5.578125 C 11.5 -6.179688 11.359375 -6.632812 11.078125 -6.9375 C 10.804688 -7.238281 10.34375 -7.390625 9.6875 -7.390625 C 9.15625 -7.390625 8.710938 -7.226562 8.359375 -6.90625 C 8.003906 -6.582031 7.796875 -6.148438 7.734375 -5.609375 L 7.734375 0 L 6.28125 0 L 6.28125 -5.546875 C 6.28125 -6.773438 5.679688 -7.390625 4.484375 -7.390625 C 3.535156 -7.390625 2.882812 -6.984375 2.53125 -6.171875 L 2.53125 0 L 1.09375 0 L 1.09375 -8.453125 Z M 2.453125 -8.453125 "/></g></g></g><g fill="#000000" fill-opacity="1"><g transform="translate(341.320834, 59.149998)"><g><path d="M 4.609375 0.15625 C 3.460938 0.15625 2.53125 -0.21875 1.8125 -0.96875 C 1.09375 -1.726562 0.734375 -2.738281 0.734375 -4 L 0.734375 -4.265625 C 0.734375 -5.097656 0.890625 -5.84375 1.203125 -6.5 C 1.523438 -7.164062 1.972656 -7.679688 2.546875 -8.046875 C 3.128906 -8.421875 3.753906 -8.609375 4.421875 -8.609375 C 5.523438 -8.609375 6.378906 -8.242188 6.984375 -7.515625 C 7.597656 -6.796875 7.90625 -5.765625 7.90625 -4.421875 L 7.90625 -3.8125 L 2.171875 -3.8125 C 2.191406 -2.976562 2.4375 -2.304688 2.90625 -1.796875 C 3.375 -1.285156 3.96875 -1.03125 4.6875 -1.03125 C 5.195312 -1.03125 5.628906 -1.132812 5.984375 -1.34375 C 6.335938 -1.550781 6.644531 -1.828125 6.90625 -2.171875 L 7.796875 -1.484375 C 7.085938 -0.390625 6.023438 0.15625 4.609375 0.15625 Z M 4.421875 -7.421875 C 3.835938 -7.421875 3.347656 -7.207031 2.953125 -6.78125 C 2.554688 -6.363281 2.3125 -5.769531 2.21875 -5 L 6.453125 -5 L 6.453125 -5.109375 C 6.410156 -5.847656 6.210938 -6.414062 5.859375 -6.8125 C 5.503906 -7.21875 5.023438 -7.421875 4.421875 -7.421875 Z M 4.421875 -7.421875 "/></g></g></g><g fill="#000000" fill-opacity="1"><g transform="translate(349.803, 59.149998)"><g/></g></g><g fill="#000000" fill-opacity="1"><g transform="translate(111.537894, 21.374999)"><g><path d="M 7.78125 -14.5625 C 9.226562 -14.5625 10.4375 -14.1875 11.40625 -13.4375 C 12.382812 -12.6875 13.0625 -11.664062 13.4375 -10.375 L 11.5625 -9.9375 C 11.25 -10.894531 10.785156 -11.632812 10.171875 -12.15625 C 9.566406 -12.675781 8.753906 -12.9375 7.734375 -12.9375 C 6.242188 -12.9375 5.078125 -12.441406 4.234375 -11.453125 C 3.398438 -10.472656 2.984375 -9.078125 2.984375 -7.265625 C 2.984375 -5.367188 3.390625 -3.910156 4.203125 -2.890625 C 5.023438 -1.878906 6.171875 -1.375 7.640625 -1.375 C 8.679688 -1.375 9.566406 -1.679688 10.296875 -2.296875 C 11.035156 -2.921875 11.53125 -3.828125 11.78125 -5.015625 L 13.6875 -4.546875 C 13.28125 -3.035156 12.5625 -1.859375 11.53125 -1.015625 C 10.507812 -0.179688 9.234375 0.234375 7.703125 0.234375 C 6.648438 0.234375 5.75 0.0976562 5 -0.171875 C 4.25 -0.453125 3.613281 -0.867188 3.09375 -1.421875 C 2.375 -2.179688 1.847656 -3.066406 1.515625 -4.078125 C 1.179688 -5.085938 1.015625 -6.148438 1.015625 -7.265625 C 1.015625 -8.742188 1.296875 -10.03125 1.859375 -11.125 C 2.429688 -12.226562 3.226562 -13.078125 4.25 -13.671875 C 5.269531 -14.265625 6.445312 -14.5625 7.78125 -14.5625 Z M 7.78125 -14.5625 "/></g></g></g><g fill="#000000" fill-opacity="1"><g transform="translate(125.9722, 21.374999)"><g><path d="M 5.140625 -10.59375 C 5.742188 -10.59375 6.335938 -10.410156 6.921875 -10.046875 L 6.3125 -8.421875 C 5.894531 -8.671875 5.453125 -8.796875 4.984375 -8.796875 C 4.316406 -8.796875 3.828125 -8.492188 3.515625 -7.890625 C 3.203125 -7.285156 3.046875 -6.503906 3.046875 -5.546875 L 3.046875 0 L 1.28125 0 L 1.28125 -10.359375 L 2.859375 -10.359375 L 2.859375 -8.796875 C 3.191406 -9.398438 3.519531 -9.847656 3.84375 -10.140625 C 4.175781 -10.441406 4.609375 -10.59375 5.140625 -10.59375 Z M 5.140625 -10.59375 "/></g></g></g><g fill="#000000" fill-opacity="1"><g transform="translate(132.629571, 21.374999)"><g><path d="M 5.625 -10.59375 C 6.625 -10.59375 7.476562 -10.359375 8.1875 -9.890625 C 8.90625 -9.421875 9.441406 -8.785156 9.796875 -7.984375 C 10.160156 -7.179688 10.34375 -6.285156 10.34375 -5.296875 L 10.34375 -4.734375 L 2.59375 -4.734375 C 2.65625 -3.628906 2.972656 -2.765625 3.546875 -2.140625 C 4.117188 -1.523438 4.847656 -1.21875 5.734375 -1.21875 C 6.421875 -1.21875 6.984375 -1.394531 7.421875 -1.75 C 7.867188 -2.113281 8.210938 -2.644531 8.453125 -3.34375 L 10.28125 -3.125 C 10 -2.082031 9.46875 -1.265625 8.6875 -0.671875 C 7.90625 -0.078125 6.945312 0.21875 5.8125 0.21875 C 4.226562 0.21875 2.992188 -0.242188 2.109375 -1.171875 C 1.222656 -2.109375 0.78125 -3.414062 0.78125 -5.09375 C 0.78125 -6.21875 0.976562 -7.191406 1.375 -8.015625 C 1.78125 -8.847656 2.34375 -9.484375 3.0625 -9.921875 C 3.789062 -10.367188 4.644531 -10.59375 5.625 -10.59375 Z M 2.703125 -6.203125 L 8.484375 -6.203125 C 8.441406 -7.191406 8.132812 -7.929688 7.5625 -8.421875 C 7 -8.910156 6.351562 -9.15625 5.625 -9.15625 C 4.789062 -9.15625 4.109375 -8.875 3.578125 -8.3125 C 3.054688 -7.757812 2.765625 -7.054688 2.703125 -6.203125 Z M 2.703125 -6.203125 "/></g></g></g><g fill="#000000" fill-opacity="1"><g transform="translate(143.745183, 21.374999)"><g><path d="M 5.6875 -10.59375 C 6.53125 -10.59375 7.21875 -10.507812 7.75 -10.34375 C 8.28125 -10.175781 8.695312 -9.9375 9 -9.625 C 9.289062 -9.3125 9.488281 -8.96875 9.59375 -8.59375 C 9.707031 -8.226562 9.765625 -7.738281 9.765625 -7.125 L 9.765625 -2.9375 C 9.765625 -1.59375 9.945312 -0.613281 10.3125 0 L 8.484375 0 C 8.304688 -0.363281 8.1875 -0.789062 8.125 -1.28125 C 7.476562 -0.75 6.851562 -0.363281 6.25 -0.125 C 5.644531 0.113281 5.015625 0.234375 4.359375 0.234375 C 3.242188 0.234375 2.363281 -0.0351562 1.71875 -0.578125 C 1.082031 -1.128906 0.765625 -1.847656 0.765625 -2.734375 C 0.765625 -3.203125 0.867188 -3.648438 1.078125 -4.078125 C 1.296875 -4.515625 1.585938 -4.851562 1.953125 -5.09375 C 2.359375 -5.363281 2.765625 -5.554688 3.171875 -5.671875 C 3.585938 -5.796875 4.097656 -5.890625 4.703125 -5.953125 C 5.335938 -6.023438 5.972656 -6.117188 6.609375 -6.234375 C 7.242188 -6.347656 7.707031 -6.460938 8 -6.578125 L 8 -7.015625 C 8 -7.722656 7.804688 -8.253906 7.421875 -8.609375 C 7.046875 -8.972656 6.398438 -9.15625 5.484375 -9.15625 C 4.617188 -9.15625 3.992188 -9 3.609375 -8.6875 C 3.234375 -8.382812 2.957031 -7.882812 2.78125 -7.1875 L 1.0625 -7.40625 C 1.300781 -8.519531 1.800781 -9.328125 2.5625 -9.828125 C 3.332031 -10.335938 4.375 -10.59375 5.6875 -10.59375 Z M 5.484375 -4.59375 C 4.796875 -4.488281 4.269531 -4.382812 3.90625 -4.28125 C 3.539062 -4.1875 3.238281 -4.019531 3 -3.78125 C 2.757812 -3.550781 2.640625 -3.21875 2.640625 -2.78125 C 2.640625 -2.257812 2.828125 -1.851562 3.203125 -1.5625 C 3.585938 -1.28125 4.125 -1.140625 4.8125 -1.140625 C 5.21875 -1.140625 5.648438 -1.222656 6.109375 -1.390625 C 6.578125 -1.554688 6.988281 -1.847656 7.34375 -2.265625 C 7.570312 -2.523438 7.738281 -2.820312 7.84375 -3.15625 C 7.945312 -3.488281 8 -3.914062 8 -4.4375 L 8 -5.203125 C 7.46875 -4.984375 6.628906 -4.78125 5.484375 -4.59375 Z M 5.484375 -4.59375 "/></g></g></g><g fill="#000000" fill-opacity="1"><g transform="translate(154.860794, 21.374999)"><g><path d="M 3.375 -10.359375 L 5.140625 -10.359375 L 5.140625 -9.046875 L 3.375 -9.046875 L 3.375 -2.625 C 3.375 -2.164062 3.4375 -1.84375 3.5625 -1.65625 C 3.695312 -1.46875 3.960938 -1.375 4.359375 -1.375 C 4.453125 -1.375 4.710938 -1.410156 5.140625 -1.484375 L 5.40625 0.078125 C 4.863281 0.179688 4.425781 0.234375 4.09375 0.234375 C 3.414062 0.234375 2.894531 0.125 2.53125 -0.09375 C 2.175781 -0.3125 1.9375 -0.613281 1.8125 -1 C 1.6875 -1.394531 1.625 -1.910156 1.625 -2.546875 L 1.625 -9.046875 L 0.34375 -9.046875 L 0.34375 -10.359375 L 1.625 -10.359375 L 1.625 -12.9375 L 3.375 -14 Z M 3.375 -10.359375 "/></g></g></g><g fill="#000000" fill-opacity="1"><g transform="translate(160.418605, 21.374999)"><g><path d="M 3.296875 -11.65625 L 1.125 -11.65625 L 1.125 -13.84375 L 3.296875 -13.84375 Z M 3.09375 0 L 1.34375 0 L 1.34375 -10.359375 L 3.09375 -10.359375 Z M 3.09375 0 "/></g></g></g><g fill="#000000" fill-opacity="1"><g transform="translate(164.856853, 21.374999)"><g><path d="M 4.234375 -4.4375 C 4.359375 -4.113281 4.535156 -3.582031 4.765625 -2.84375 L 5.015625 -2.0625 C 5.304688 -3.050781 5.519531 -3.703125 5.65625 -4.015625 L 7.953125 -10.359375 L 9.78125 -10.359375 L 5.859375 0 L 4.203125 0 L 0.265625 -10.359375 L 2.125 -10.359375 Z M 4.234375 -4.4375 "/></g></g></g><g fill="#000000" fill-opacity="1"><g transform="translate(174.852912, 21.374999)"><g><path d="M 5.625 -10.59375 C 6.625 -10.59375 7.476562 -10.359375 8.1875 -9.890625 C 8.90625 -9.421875 9.441406 -8.785156 9.796875 -7.984375 C 10.160156 -7.179688 10.34375 -6.285156 10.34375 -5.296875 L 10.34375 -4.734375 L 2.59375 -4.734375 C 2.65625 -3.628906 2.972656 -2.765625 3.546875 -2.140625 C 4.117188 -1.523438 4.847656 -1.21875 5.734375 -1.21875 C 6.421875 -1.21875 6.984375 -1.394531 7.421875 -1.75 C 7.867188 -2.113281 8.210938 -2.644531 8.453125 -3.34375 L 10.28125 -3.125 C 10 -2.082031 9.46875 -1.265625 8.6875 -0.671875 C 7.90625 -0.078125 6.945312 0.21875 5.8125 0.21875 C 4.226562 0.21875 2.992188 -0.242188 2.109375 -1.171875 C 1.222656 -2.109375 0.78125 -3.414062 0.78125 -5.09375 C 0.78125 -6.21875 0.976562 -7.191406 1.375 -8.015625 C 1.78125 -8.847656 2.34375 -9.484375 3.0625 -9.921875 C 3.789062 -10.367188 4.644531 -10.59375 5.625 -10.59375 Z M 2.703125 -6.203125 L 8.484375 -6.203125 C 8.441406 -7.191406 8.132812 -7.929688 7.5625 -8.421875 C 7 -8.910156 6.351562 -9.15625 5.625 -9.15625 C 4.789062 -9.15625 4.109375 -8.875 3.578125 -8.3125 C 3.054688 -7.757812 2.765625 -7.054688 2.703125 -6.203125 Z M 2.703125 -6.203125 "/></g></g></g><g fill="#000000" fill-opacity="1"><g transform="translate(185.968523, 21.374999)"><g/></g></g><g fill="#000000" fill-opacity="1"><g transform="translate(191.526334, 21.374999)"><g><path d="M 11.796875 -12.640625 L 7.0625 -12.640625 L 7.0625 0 L 5.15625 0 L 5.15625 -12.640625 L 0.4375 -12.640625 L 0.4375 -14.3125 L 11.796875 -14.3125 Z M 11.796875 -12.640625 "/></g></g></g><g fill="#000000" fill-opacity="1"><g transform="translate(203.741517, 21.374999)"><g><path d="M 3.09375 -9.1875 C 3.5 -9.644531 3.953125 -9.992188 4.453125 -10.234375 C 4.960938 -10.472656 5.550781 -10.59375 6.21875 -10.59375 C 6.78125 -10.59375 7.285156 -10.503906 7.734375 -10.328125 C 8.191406 -10.160156 8.570312 -9.929688 8.875 -9.640625 C 9.195312 -9.335938 9.429688 -8.953125 9.578125 -8.484375 C 9.722656 -8.015625 9.796875 -7.414062 9.796875 -6.6875 L 9.796875 0 L 8.046875 0 L 8.046875 -6.640625 C 8.046875 -7.421875 7.859375 -8.019531 7.484375 -8.4375 C 7.109375 -8.863281 6.550781 -9.078125 5.8125 -9.078125 C 5.28125 -9.078125 4.773438 -8.925781 4.296875 -8.625 C 3.816406 -8.332031 3.484375 -7.914062 3.296875 -7.375 C 3.160156 -6.976562 3.09375 -6.46875 3.09375 -5.84375 L 3.09375 0 L 1.34375 0 L 1.34375 -14.3125 L 3.09375 -14.3125 Z M 3.09375 -9.1875 "/></g></g></g><g fill="#000000" fill-opacity="1"><g transform="translate(214.857128, 21.374999)"><g><path d="M 5.625 -10.59375 C 6.625 -10.59375 7.476562 -10.359375 8.1875 -9.890625 C 8.90625 -9.421875 9.441406 -8.785156 9.796875 -7.984375 C 10.160156 -7.179688 10.34375 -6.285156 10.34375 -5.296875 L 10.34375 -4.734375 L 2.59375 -4.734375 C 2.65625 -3.628906 2.972656 -2.765625 3.546875 -2.140625 C 4.117188 -1.523438 4.847656 -1.21875 5.734375 -1.21875 C 6.421875 -1.21875 6.984375 -1.394531 7.421875 -1.75 C 7.867188 -2.113281 8.210938 -2.644531 8.453125 -3.34375 L 10.28125 -3.125 C 10 -2.082031 9.46875 -1.265625 8.6875 -0.671875 C 7.90625 -0.078125 6.945312 0.21875 5.8125 0.21875 C 4.226562 0.21875 2.992188 -0.242188 2.109375 -1.171875 C 1.222656 -2.109375 0.78125 -3.414062 0.78125 -5.09375 C 0.78125 -6.21875 0.976562 -7.191406 1.375 -8.015625 C 1.78125 -8.847656 2.34375 -9.484375 3.0625 -9.921875 C 3.789062 -10.367188 4.644531 -10.59375 5.625 -10.59375 Z M 2.703125 -6.203125 L 8.484375 -6.203125 C 8.441406 -7.191406 8.132812 -7.929688 7.5625 -8.421875 C 7 -8.910156 6.351562 -9.15625 5.625 -9.15625 C 4.789062 -9.15625 4.109375 -8.875 3.578125 -8.3125 C 3.054688 -7.757812 2.765625 -7.054688 2.703125 -6.203125 Z M 2.703125 -6.203125 "/></g></g></g><g fill="#000000" fill-opacity="1"><g transform="translate(225.972739, 21.374999)"><g><path d="M 6.046875 -10.59375 C 6.785156 -10.59375 7.398438 -10.4375 7.890625 -10.125 C 8.378906 -9.8125 8.726562 -9.363281 8.9375 -8.78125 C 9.351562 -9.363281 9.8125 -9.8125 10.3125 -10.125 C 10.8125 -10.4375 11.421875 -10.59375 12.140625 -10.59375 C 13.179688 -10.59375 13.976562 -10.296875 14.53125 -9.703125 C 15.09375 -9.109375 15.375 -8.269531 15.375 -7.1875 L 15.375 0 L 13.625 0 L 13.625 -6.65625 C 13.625 -7.5 13.472656 -8.113281 13.171875 -8.5 C 12.878906 -8.882812 12.398438 -9.078125 11.734375 -9.078125 C 10.898438 -9.078125 10.269531 -8.789062 9.84375 -8.21875 C 9.425781 -7.65625 9.21875 -6.945312 9.21875 -6.09375 L 9.21875 0 L 7.453125 0 L 7.453125 -6.8125 C 7.453125 -7.570312 7.300781 -8.140625 7 -8.515625 C 6.707031 -8.890625 6.25 -9.078125 5.625 -9.078125 C 5.113281 -9.078125 4.632812 -8.929688 4.1875 -8.640625 C 3.738281 -8.359375 3.429688 -7.9375 3.265625 -7.375 C 3.128906 -6.976562 3.0625 -6.375 3.0625 -5.5625 L 3.0625 0 L 1.296875 0 L 1.296875 -10.359375 L 2.875 -10.359375 L 2.875 -8.921875 C 3.25 -9.492188 3.707031 -9.914062 4.25 -10.1875 C 4.800781 -10.457031 5.398438 -10.59375 6.046875 -10.59375 Z M 6.046875 -10.59375 "/></g></g></g><g fill="#000000" fill-opacity="1"><g transform="translate(242.62617, 21.374999)"><g><path d="M 5.625 -10.59375 C 6.625 -10.59375 7.476562 -10.359375 8.1875 -9.890625 C 8.90625 -9.421875 9.441406 -8.785156 9.796875 -7.984375 C 10.160156 -7.179688 10.34375 -6.285156 10.34375 -5.296875 L 10.34375 -4.734375 L 2.59375 -4.734375 C 2.65625 -3.628906 2.972656 -2.765625 3.546875 -2.140625 C 4.117188 -1.523438 4.847656 -1.21875 5.734375 -1.21875 C 6.421875 -1.21875 6.984375 -1.394531 7.421875 -1.75 C 7.867188 -2.113281 8.210938 -2.644531 8.453125 -3.34375 L 10.28125 -3.125 C 10 -2.082031 9.46875 -1.265625 8.6875 -0.671875 C 7.90625 -0.078125 6.945312 0.21875 5.8125 0.21875 C 4.226562 0.21875 2.992188 -0.242188 2.109375 -1.171875 C 1.222656 -2.109375 0.78125 -3.414062 0.78125 -5.09375 C 0.78125 -6.21875 0.976562 -7.191406 1.375 -8.015625 C 1.78125 -8.847656 2.34375 -9.484375 3.0625 -9.921875 C 3.789062 -10.367188 4.644531 -10.59375 5.625 -10.59375 Z M 2.703125 -6.203125 L 8.484375 -6.203125 C 8.441406 -7.191406 8.132812 -7.929688 7.5625 -8.421875 C 7 -8.910156 6.351562 -9.15625 5.625 -9.15625 C 4.789062 -9.15625 4.109375 -8.875 3.578125 -8.3125 C 3.054688 -7.757812 2.765625 -7.054688 2.703125 -6.203125 Z M 2.703125 -6.203125 "/></g></g></g><g fill="#000000" fill-opacity="1"><g transform="translate(24.234377, 59.899998)"><g><path d="M 6.453125 -10.421875 C 5.816406 -10.421875 5.25 -10.3125 4.75 -10.09375 C 4.25 -9.875 3.820312 -9.5625 3.46875 -9.15625 C 3.113281 -8.75 2.84375 -8.253906 2.65625 -7.671875 C 2.46875 -7.097656 2.375 -6.445312 2.375 -5.71875 C 2.375 -4.757812 2.523438 -3.925781 2.828125 -3.21875 C 3.128906 -2.519531 3.578125 -1.976562 4.171875 -1.59375 C 4.765625 -1.207031 5.507812 -1.015625 6.40625 -1.015625 C 6.914062 -1.015625 7.394531 -1.054688 7.84375 -1.140625 C 8.300781 -1.222656 8.742188 -1.332031 9.171875 -1.46875 L 9.171875 -0.3125 C 8.753906 -0.15625 8.316406 -0.0390625 7.859375 0.03125 C 7.398438 0.113281 6.851562 0.15625 6.21875 0.15625 C 5.0625 0.15625 4.09375 -0.0820312 3.3125 -0.5625 C 2.53125 -1.050781 1.945312 -1.734375 1.5625 -2.609375 C 1.175781 -3.492188 0.984375 -4.535156 0.984375 -5.734375 C 0.984375 -6.597656 1.101562 -7.382812 1.34375 -8.09375 C 1.582031 -8.8125 1.9375 -9.429688 2.40625 -9.953125 C 2.875 -10.472656 3.445312 -10.875 4.125 -11.15625 C 4.800781 -11.445312 5.582031 -11.59375 6.46875 -11.59375 C 7.039062 -11.59375 7.59375 -11.535156 8.125 -11.421875 C 8.664062 -11.304688 9.15625 -11.140625 9.59375 -10.921875 L 9.0625 -9.796875 C 8.695312 -9.960938 8.296875 -10.109375 7.859375 -10.234375 C 7.421875 -10.359375 6.953125 -10.421875 6.453125 -10.421875 Z M 6.453125 -10.421875 "/></g></g></g><g fill="#000000" fill-opacity="1"><g transform="translate(34.310041, 59.899998)"><g><path d="M 5.265625 -8.71875 C 5.429688 -8.71875 5.609375 -8.707031 5.796875 -8.6875 C 5.984375 -8.675781 6.148438 -8.65625 6.296875 -8.625 L 6.140625 -7.421875 C 5.992188 -7.453125 5.832031 -7.476562 5.65625 -7.5 C 5.488281 -7.519531 5.332031 -7.53125 5.1875 -7.53125 C 4.84375 -7.53125 4.515625 -7.460938 4.203125 -7.328125 C 3.898438 -7.191406 3.632812 -6.992188 3.40625 -6.734375 C 3.175781 -6.472656 2.992188 -6.160156 2.859375 -5.796875 C 2.734375 -5.441406 2.671875 -5.039062 2.671875 -4.59375 L 2.671875 0 L 1.375 0 L 1.375 -8.5625 L 2.453125 -8.5625 L 2.59375 -6.984375 L 2.640625 -6.984375 C 2.816406 -7.304688 3.03125 -7.597656 3.28125 -7.859375 C 3.53125 -8.117188 3.820312 -8.328125 4.15625 -8.484375 C 4.488281 -8.640625 4.859375 -8.71875 5.265625 -8.71875 Z M 5.265625 -8.71875 "/></g></g></g><g fill="#000000" fill-opacity="1"><g transform="translate(40.847512, 59.899998)"><g><path d="M 4.671875 -8.71875 C 5.398438 -8.71875 6.023438 -8.554688 6.546875 -8.234375 C 7.066406 -7.910156 7.460938 -7.457031 7.734375 -6.875 C 8.015625 -6.300781 8.15625 -5.625 8.15625 -4.84375 L 8.15625 -4.046875 L 2.234375 -4.046875 C 2.253906 -3.035156 2.503906 -2.265625 2.984375 -1.734375 C 3.472656 -1.210938 4.15625 -0.953125 5.03125 -0.953125 C 5.570312 -0.953125 6.050781 -1 6.46875 -1.09375 C 6.882812 -1.195312 7.316406 -1.347656 7.765625 -1.546875 L 7.765625 -0.40625 C 7.335938 -0.207031 6.910156 -0.0664062 6.484375 0.015625 C 6.054688 0.109375 5.554688 0.15625 4.984375 0.15625 C 4.160156 0.15625 3.441406 -0.0078125 2.828125 -0.34375 C 2.210938 -0.6875 1.734375 -1.179688 1.390625 -1.828125 C 1.054688 -2.484375 0.890625 -3.28125 0.890625 -4.21875 C 0.890625 -5.144531 1.046875 -5.941406 1.359375 -6.609375 C 1.671875 -7.285156 2.109375 -7.804688 2.671875 -8.171875 C 3.234375 -8.535156 3.898438 -8.71875 4.671875 -8.71875 Z M 4.65625 -7.65625 C 3.957031 -7.65625 3.398438 -7.425781 2.984375 -6.96875 C 2.578125 -6.519531 2.335938 -5.890625 2.265625 -5.078125 L 6.796875 -5.078125 C 6.785156 -5.585938 6.703125 -6.035156 6.546875 -6.421875 C 6.398438 -6.816406 6.171875 -7.117188 5.859375 -7.328125 C 5.546875 -7.546875 5.144531 -7.65625 4.65625 -7.65625 Z M 4.65625 -7.65625 "/></g></g></g><g fill="#000000" fill-opacity="1"><g transform="translate(49.829693, 59.899998)"><g><path d="M 4.578125 -8.703125 C 5.597656 -8.703125 6.351562 -8.472656 6.84375 -8.015625 C 7.34375 -7.554688 7.59375 -6.828125 7.59375 -5.828125 L 7.59375 0 L 6.640625 0 L 6.390625 -1.265625 L 6.328125 -1.265625 C 6.085938 -0.953125 5.835938 -0.691406 5.578125 -0.484375 C 5.316406 -0.273438 5.015625 -0.113281 4.671875 0 C 4.335938 0.101562 3.921875 0.15625 3.421875 0.15625 C 2.898438 0.15625 2.4375 0.0664062 2.03125 -0.109375 C 1.632812 -0.296875 1.316406 -0.570312 1.078125 -0.9375 C 0.847656 -1.3125 0.734375 -1.785156 0.734375 -2.359375 C 0.734375 -3.210938 1.070312 -3.867188 1.75 -4.328125 C 2.425781 -4.785156 3.457031 -5.035156 4.84375 -5.078125 L 6.328125 -5.140625 L 6.328125 -5.65625 C 6.328125 -6.394531 6.164062 -6.910156 5.84375 -7.203125 C 5.53125 -7.503906 5.082031 -7.65625 4.5 -7.65625 C 4.050781 -7.65625 3.625 -7.585938 3.21875 -7.453125 C 2.8125 -7.328125 2.425781 -7.175781 2.0625 -7 L 1.671875 -7.984375 C 2.054688 -8.179688 2.5 -8.347656 3 -8.484375 C 3.5 -8.628906 4.023438 -8.703125 4.578125 -8.703125 Z M 6.3125 -4.21875 L 5 -4.171875 C 3.9375 -4.128906 3.1875 -3.953125 2.75 -3.640625 C 2.3125 -3.335938 2.09375 -2.90625 2.09375 -2.34375 C 2.09375 -1.851562 2.238281 -1.488281 2.53125 -1.25 C 2.832031 -1.019531 3.226562 -0.90625 3.71875 -0.90625 C 4.476562 -0.90625 5.097656 -1.113281 5.578125 -1.53125 C 6.066406 -1.957031 6.3125 -2.59375 6.3125 -3.4375 Z M 6.3125 -4.21875 "/></g></g></g><g fill="#000000" fill-opacity="1"><g transform="translate(58.718147, 59.899998)"><g><path d="M 4.140625 -0.90625 C 4.347656 -0.90625 4.5625 -0.921875 4.78125 -0.953125 C 5.007812 -0.992188 5.195312 -1.039062 5.34375 -1.09375 L 5.34375 -0.09375 C 5.1875 -0.0195312 4.972656 0.0351562 4.703125 0.078125 C 4.441406 0.128906 4.179688 0.15625 3.921875 0.15625 C 3.472656 0.15625 3.0625 0.078125 2.6875 -0.078125 C 2.320312 -0.242188 2.023438 -0.515625 1.796875 -0.890625 C 1.578125 -1.273438 1.46875 -1.800781 1.46875 -2.46875 L 1.46875 -7.546875 L 0.25 -7.546875 L 0.25 -8.1875 L 1.484375 -8.6875 L 2 -10.546875 L 2.78125 -10.546875 L 2.78125 -8.5625 L 5.28125 -8.5625 L 5.28125 -7.546875 L 2.78125 -7.546875 L 2.78125 -2.515625 C 2.78125 -1.972656 2.898438 -1.566406 3.140625 -1.296875 C 3.390625 -1.035156 3.722656 -0.90625 4.140625 -0.90625 Z M 4.140625 -0.90625 "/></g></g></g><g fill="#000000" fill-opacity="1"><g transform="translate(64.41988, 59.899998)"><g><path d="M 2.671875 -8.5625 L 2.671875 0 L 1.375 0 L 1.375 -8.5625 Z M 2.03125 -11.765625 C 2.25 -11.765625 2.429688 -11.695312 2.578125 -11.5625 C 2.734375 -11.425781 2.8125 -11.210938 2.8125 -10.921875 C 2.8125 -10.628906 2.734375 -10.410156 2.578125 -10.265625 C 2.429688 -10.128906 2.25 -10.0625 2.03125 -10.0625 C 1.8125 -10.0625 1.625 -10.128906 1.46875 -10.265625 C 1.320312 -10.410156 1.25 -10.628906 1.25 -10.921875 C 1.25 -11.210938 1.320312 -11.425781 1.46875 -11.5625 C 1.625 -11.695312 1.8125 -11.765625 2.03125 -11.765625 Z M 2.03125 -11.765625 "/></g></g></g><g fill="#000000" fill-opacity="1"><g transform="translate(68.457961, 59.899998)"><g><path d="M 3.25 0 L 0 -8.5625 L 1.390625 -8.5625 L 3.28125 -3.390625 C 3.40625 -3.035156 3.535156 -2.644531 3.671875 -2.21875 C 3.804688 -1.789062 3.898438 -1.445312 3.953125 -1.1875 L 4.015625 -1.1875 C 4.078125 -1.445312 4.179688 -1.789062 4.328125 -2.21875 C 4.472656 -2.644531 4.601562 -3.035156 4.71875 -3.390625 L 6.609375 -8.5625 L 8 -8.5625 L 4.734375 0 Z M 3.25 0 "/></g></g></g><g fill="#000000" fill-opacity="1"><g transform="translate(76.448203, 59.899998)"><g><path d="M 4.671875 -8.71875 C 5.398438 -8.71875 6.023438 -8.554688 6.546875 -8.234375 C 7.066406 -7.910156 7.460938 -7.457031 7.734375 -6.875 C 8.015625 -6.300781 8.15625 -5.625 8.15625 -4.84375 L 8.15625 -4.046875 L 2.234375 -4.046875 C 2.253906 -3.035156 2.503906 -2.265625 2.984375 -1.734375 C 3.472656 -1.210938 4.15625 -0.953125 5.03125 -0.953125 C 5.570312 -0.953125 6.050781 -1 6.46875 -1.09375 C 6.882812 -1.195312 7.316406 -1.347656 7.765625 -1.546875 L 7.765625 -0.40625 C 7.335938 -0.207031 6.910156 -0.0664062 6.484375 0.015625 C 6.054688 0.109375 5.554688 0.15625 4.984375 0.15625 C 4.160156 0.15625 3.441406 -0.0078125 2.828125 -0.34375 C 2.210938 -0.6875 1.734375 -1.179688 1.390625 -1.828125 C 1.054688 -2.484375 0.890625 -3.28125 0.890625 -4.21875 C 0.890625 -5.144531 1.046875 -5.941406 1.359375 -6.609375 C 1.671875 -7.285156 2.109375 -7.804688 2.671875 -8.171875 C 3.234375 -8.535156 3.898438 -8.71875 4.671875 -8.71875 Z M 4.65625 -7.65625 C 3.957031 -7.65625 3.398438 -7.425781 2.984375 -6.96875 C 2.578125 -6.519531 2.335938 -5.890625 2.265625 -5.078125 L 6.796875 -5.078125 C 6.785156 -5.585938 6.703125 -6.035156 6.546875 -6.421875 C 6.398438 -6.816406 6.171875 -7.117188 5.859375 -7.328125 C 5.546875 -7.546875 5.144531 -7.65625 4.65625 -7.65625 Z M 4.65625 -7.65625 "/></g></g></g><g fill="#000000" fill-opacity="1"><g transform="translate(85.430384, 59.899998)"><g/></g></g><g fill="#000000" fill-opacity="1"><g transform="translate(89.585619, 59.899998)"><g><path d="M 5.078125 0 L 3.734375 0 L 3.734375 -10.25 L 0.140625 -10.25 L 0.140625 -11.421875 L 8.65625 -11.421875 L 8.65625 -10.25 L 5.078125 -10.25 Z M 5.078125 0 "/></g></g></g><g fill="#000000" fill-opacity="1"><g transform="translate(98.395967, 59.899998)"><g><path d="M 2.671875 -12.15625 L 2.671875 -8.53125 C 2.671875 -8.320312 2.664062 -8.109375 2.65625 -7.890625 C 2.644531 -7.679688 2.625 -7.488281 2.59375 -7.3125 L 2.6875 -7.3125 C 2.863281 -7.613281 3.085938 -7.867188 3.359375 -8.078125 C 3.628906 -8.285156 3.9375 -8.441406 4.28125 -8.546875 C 4.632812 -8.648438 5.007812 -8.703125 5.40625 -8.703125 C 6.09375 -8.703125 6.664062 -8.59375 7.125 -8.375 C 7.582031 -8.15625 7.925781 -7.816406 8.15625 -7.359375 C 8.394531 -6.898438 8.515625 -6.304688 8.515625 -5.578125 L 8.515625 0 L 7.234375 0 L 7.234375 -5.5 C 7.234375 -6.207031 7.066406 -6.738281 6.734375 -7.09375 C 6.410156 -7.445312 5.914062 -7.625 5.25 -7.625 C 4.613281 -7.625 4.101562 -7.503906 3.71875 -7.265625 C 3.34375 -7.023438 3.070312 -6.671875 2.90625 -6.203125 C 2.75 -5.734375 2.671875 -5.160156 2.671875 -4.484375 L 2.671875 0 L 1.375 0 L 1.375 -12.15625 Z M 2.671875 -12.15625 "/></g></g></g><g fill="#000000" fill-opacity="1"><g transform="translate(108.206071, 59.899998)"><g><path d="M 4.671875 -8.71875 C 5.398438 -8.71875 6.023438 -8.554688 6.546875 -8.234375 C 7.066406 -7.910156 7.460938 -7.457031 7.734375 -6.875 C 8.015625 -6.300781 8.15625 -5.625 8.15625 -4.84375 L 8.15625 -4.046875 L 2.234375 -4.046875 C 2.253906 -3.035156 2.503906 -2.265625 2.984375 -1.734375 C 3.472656 -1.210938 4.15625 -0.953125 5.03125 -0.953125 C 5.570312 -0.953125 6.050781 -1 6.46875 -1.09375 C 6.882812 -1.195312 7.316406 -1.347656 7.765625 -1.546875 L 7.765625 -0.40625 C 7.335938 -0.207031 6.910156 -0.0664062 6.484375 0.015625 C 6.054688 0.109375 5.554688 0.15625 4.984375 0.15625 C 4.160156 0.15625 3.441406 -0.0078125 2.828125 -0.34375 C 2.210938 -0.6875 1.734375 -1.179688 1.390625 -1.828125 C 1.054688 -2.484375 0.890625 -3.28125 0.890625 -4.21875 C 0.890625 -5.144531 1.046875 -5.941406 1.359375 -6.609375 C 1.671875 -7.285156 2.109375 -7.804688 2.671875 -8.171875 C 3.234375 -8.535156 3.898438 -8.71875 4.671875 -8.71875 Z M 4.65625 -7.65625 C 3.957031 -7.65625 3.398438 -7.425781 2.984375 -6.96875 C 2.578125 -6.519531 2.335938 -5.890625 2.265625 -5.078125 L 6.796875 -5.078125 C 6.785156 -5.585938 6.703125 -6.035156 6.546875 -6.421875 C 6.398438 -6.816406 6.171875 -7.117188 5.859375 -7.328125 C 5.546875 -7.546875 5.144531 -7.65625 4.65625 -7.65625 Z M 4.65625 -7.65625 "/></g></g></g><g fill="#000000" fill-opacity="1"><g transform="translate(117.188252, 59.899998)"><g><path d="M 10.671875 -8.71875 C 11.609375 -8.71875 12.316406 -8.472656 12.796875 -7.984375 C 13.273438 -7.492188 13.515625 -6.703125 13.515625 -5.609375 L 13.515625 0 L 12.234375 0 L 12.234375 -5.546875 C 12.234375 -6.242188 12.082031 -6.765625 11.78125 -7.109375 C 11.488281 -7.453125 11.046875 -7.625 10.453125 -7.625 C 9.628906 -7.625 9.03125 -7.382812 8.65625 -6.90625 C 8.28125 -6.425781 8.09375 -5.722656 8.09375 -4.796875 L 8.09375 0 L 6.796875 0 L 6.796875 -5.546875 C 6.796875 -6.015625 6.726562 -6.398438 6.59375 -6.703125 C 6.46875 -7.015625 6.269531 -7.242188 6 -7.390625 C 5.738281 -7.546875 5.410156 -7.625 5.015625 -7.625 C 4.441406 -7.625 3.984375 -7.503906 3.640625 -7.265625 C 3.296875 -7.035156 3.046875 -6.691406 2.890625 -6.234375 C 2.742188 -5.773438 2.671875 -5.207031 2.671875 -4.53125 L 2.671875 0 L 1.375 0 L 1.375 -8.5625 L 2.421875 -8.5625 L 2.609375 -7.359375 L 2.6875 -7.359375 C 2.851562 -7.648438 3.066406 -7.894531 3.328125 -8.09375 C 3.585938 -8.300781 3.878906 -8.457031 4.203125 -8.5625 C 4.523438 -8.664062 4.867188 -8.71875 5.234375 -8.71875 C 5.890625 -8.71875 6.4375 -8.597656 6.875 -8.359375 C 7.3125 -8.117188 7.628906 -7.75 7.828125 -7.25 L 7.90625 -7.25 C 8.1875 -7.75 8.570312 -8.117188 9.0625 -8.359375 C 9.550781 -8.597656 10.085938 -8.71875 10.671875 -8.71875 Z M 10.671875 -8.71875 "/></g></g></g><g fill="#000000" fill-opacity="1"><g transform="translate(131.997134, 59.899998)"><g><path d="M 4.671875 -8.71875 C 5.398438 -8.71875 6.023438 -8.554688 6.546875 -8.234375 C 7.066406 -7.910156 7.460938 -7.457031 7.734375 -6.875 C 8.015625 -6.300781 8.15625 -5.625 8.15625 -4.84375 L 8.15625 -4.046875 L 2.234375 -4.046875 C 2.253906 -3.035156 2.503906 -2.265625 2.984375 -1.734375 C 3.472656 -1.210938 4.15625 -0.953125 5.03125 -0.953125 C 5.570312 -0.953125 6.050781 -1 6.46875 -1.09375 C 6.882812 -1.195312 7.316406 -1.347656 7.765625 -1.546875 L 7.765625 -0.40625 C 7.335938 -0.207031 6.910156 -0.0664062 6.484375 0.015625 C 6.054688 0.109375 5.554688 0.15625 4.984375 0.15625 C 4.160156 0.15625 3.441406 -0.0078125 2.828125 -0.34375 C 2.210938 -0.6875 1.734375 -1.179688 1.390625 -1.828125 C 1.054688 -2.484375 0.890625 -3.28125 0.890625 -4.21875 C 0.890625 -5.144531 1.046875 -5.941406 1.359375 -6.609375 C 1.671875 -7.285156 2.109375 -7.804688 2.671875 -8.171875 C 3.234375 -8.535156 3.898438 -8.71875 4.671875 -8.71875 Z M 4.65625 -7.65625 C 3.957031 -7.65625 3.398438 -7.425781 2.984375 -6.96875 C 2.578125 -6.519531 2.335938 -5.890625 2.265625 -5.078125 L 6.796875 -5.078125 C 6.785156 -5.585938 6.703125 -6.035156 6.546875 -6.421875 C 6.398438 -6.816406 6.171875 -7.117188 5.859375 -7.328125 C 5.546875 -7.546875 5.144531 -7.65625 4.65625 -7.65625 Z M 4.65625 -7.65625 "/></g></g></g></svg>