<svg xmlns="http://www.w3.org/2000/svg" xmlns:xlink="http://www.w3.org/1999/xlink" width="700" zoomAndPan="magnify" viewBox="0 0 525 525.000007" height="700" preserveAspectRatio="xMidYMid meet" version="1.0"><defs><g/><clipPath id="ec68b0d4d9"><path d="M 0.5 0 L 524.5 0 L 524.5 524 L 0.5 524 Z M 0.5 0 " clip-rule="nonzero"/></clipPath><clipPath id="686cba32da"><path d="M 60 189.625 L 154.933594 189.625 L 154.933594 284 L 60 284 Z M 60 189.625 " clip-rule="nonzero"/></clipPath><clipPath id="3b28203acb"><path d="M 9.710938 240 L 105 240 L 105 334.097656 L 9.710938 334.097656 Z M 9.710938 240 " clip-rule="nonzero"/></clipPath></defs><g clip-path="url(#ec68b0d4d9)"><path fill="#ffffff" d="M 0.5 0 L 524.5 0 L 524.5 524 L 0.5 524 Z M 0.5 0 " fill-opacity="1" fill-rule="nonzero"/><path fill="#ffffff" d="M 0.5 0 L 524.5 0 L 524.5 524 L 0.5 524 Z M 0.5 0 " fill-opacity="1" fill-rule="nonzero"/></g><g clip-path="url(#686cba32da)"><path fill="#c1ff72" d="M 154.945312 262.136719 C 154.945312 274.167969 145.207031 283.90625 133.175781 283.90625 L 88.589844 283.90625 C 73.175781 283.90625 60.660156 271.390625 60.660156 255.980469 L 60.660156 211.394531 C 60.660156 199.363281 70.398438 189.625 82.429688 189.625 C 94.464844 189.625 104.203125 199.363281 104.203125 211.394531 L 104.203125 240.367188 L 133.175781 240.367188 C 145.207031 240.367188 154.945312 250.144531 154.945312 262.136719 Z M 154.945312 262.136719 " fill-opacity="1" fill-rule="nonzero"/></g><g clip-path="url(#3b28203acb)"><path fill="#7ed957" d="M 9.757812 261.855469 C 9.757812 249.824219 19.496094 240.085938 31.527344 240.085938 L 76.113281 240.085938 C 91.527344 240.085938 104.039062 252.601562 104.039062 268.011719 L 104.039062 312.597656 C 104.039062 324.628906 94.300781 334.367188 82.269531 334.367188 C 70.238281 334.367188 60.5 324.628906 60.5 312.597656 L 60.5 283.625 L 31.527344 283.625 C 19.496094 283.625 9.757812 273.886719 9.757812 261.855469 Z M 9.757812 261.855469 " fill-opacity="1" fill-rule="nonzero"/></g><path fill="#07ad5d" d="M 104.039062 268.011719 L 104.039062 283.90625 L 88.589844 283.90625 C 73.175781 283.90625 60.660156 271.390625 60.660156 255.980469 L 60.660156 240.085938 L 76.113281 240.085938 C 91.527344 240.085938 104.039062 252.601562 104.039062 268.011719 Z M 104.039062 268.011719 " fill-opacity="1" fill-rule="nonzero"/><g fill="#000000" fill-opacity="1"><g transform="translate(183.826709, 286.938993)"><g><path d="M 25.609375 0 L 10.3125 0 L 10.3125 -38.578125 L 0.75 -38.578125 L 0.75 -51.625 L 10.3125 -51.625 L 10.3125 -53.921875 C 10.3125 -55.785156 10.59375 -57.710938 11.15625 -59.703125 C 11.726562 -61.691406 12.648438 -63.539062 13.921875 -65.25 C 15.203125 -66.96875 16.921875 -68.359375 19.078125 -69.421875 C 21.242188 -70.484375 23.921875 -71.015625 27.109375 -71.015625 L 38.171875 -71.015625 L 38.171875 -58.359375 L 31.140625 -58.359375 C 29.878906 -58.359375 28.832031 -58.082031 28 -57.53125 C 27.175781 -56.988281 26.570312 -56.289062 26.1875 -55.4375 C 25.800781 -54.59375 25.609375 -53.707031 25.609375 -52.78125 L 25.609375 -51.625 L 38.03125 -51.625 L 38.03125 -38.578125 L 25.609375 -38.578125 Z M 25.609375 0 "/></g></g></g><g fill="#000000" fill-opacity="1"><g transform="translate(222.547766, 286.938993)"><g><path d="M 21.28125 0 L 5.9375 0 L 5.9375 -70.21875 L 21.28125 -70.21875 Z M 21.28125 0 "/></g></g></g><g fill="#000000" fill-opacity="1"><g transform="translate(249.806993, 286.938993)"><g><path d="M 30.09375 1.640625 C 26.644531 1.640625 23.40625 1.175781 20.375 0.25 C 17.351562 -0.675781 14.703125 -2.148438 12.421875 -4.171875 C 10.148438 -6.203125 8.375 -8.851562 7.09375 -12.125 C 5.820312 -15.40625 5.1875 -19.390625 5.1875 -24.078125 L 5.1875 -51.625 L 20.4375 -51.625 L 20.4375 -24.5625 C 20.4375 -20.75 21.207031 -17.785156 22.75 -15.671875 C 24.289062 -13.566406 26.738281 -12.515625 30.09375 -12.515625 C 33.550781 -12.515625 36.035156 -13.59375 37.546875 -15.75 C 39.054688 -17.90625 39.8125 -20.84375 39.8125 -24.5625 L 39.8125 -51.625 L 55.015625 -51.625 L 55.015625 -24.078125 C 55.015625 -19.390625 54.375 -15.40625 53.09375 -12.125 C 51.820312 -8.851562 50.046875 -6.203125 47.765625 -4.171875 C 45.492188 -2.148438 42.84375 -0.675781 39.8125 0.25 C 36.789062 1.175781 33.550781 1.640625 30.09375 1.640625 Z M 30.09375 1.640625 "/></g></g></g><g fill="#000000" fill-opacity="1"><g transform="translate(310.056361, 286.938993)"><g><path d="M 29.953125 1.640625 C 25.960938 1.640625 22.3125 0.925781 19 -0.5 C 15.695312 -1.925781 12.847656 -3.898438 10.453125 -6.421875 C 8.066406 -8.953125 6.21875 -11.878906 4.90625 -15.203125 C 3.59375 -18.523438 2.9375 -22.0625 2.9375 -25.8125 C 2.9375 -29.570312 3.59375 -33.101562 4.90625 -36.40625 C 6.21875 -39.707031 8.066406 -42.617188 10.453125 -45.140625 C 12.847656 -47.671875 15.695312 -49.660156 19 -51.109375 C 22.3125 -52.554688 25.960938 -53.28125 29.953125 -53.28125 C 33.503906 -53.28125 36.75 -52.742188 39.6875 -51.671875 C 42.632812 -50.609375 45.242188 -49.113281 47.515625 -47.1875 C 49.796875 -45.257812 51.691406 -43.015625 53.203125 -40.453125 C 54.710938 -37.898438 55.800781 -35.128906 56.46875 -32.140625 L 40.921875 -32.140625 C 39.984375 -34.597656 38.535156 -36.367188 36.578125 -37.453125 C 34.617188 -38.535156 32.425781 -39.078125 30 -39.078125 C 27.96875 -39.078125 26.046875 -38.566406 24.234375 -37.546875 C 22.429688 -36.535156 20.960938 -35.039062 19.828125 -33.0625 C 18.703125 -31.082031 18.140625 -28.664062 18.140625 -25.8125 C 18.140625 -22.957031 18.703125 -20.53125 19.828125 -18.53125 C 20.960938 -16.539062 22.429688 -15.03125 24.234375 -14 C 26.046875 -12.96875 27.96875 -12.453125 30 -12.453125 C 32.425781 -12.453125 34.617188 -13.039062 36.578125 -14.21875 C 38.535156 -15.40625 39.984375 -17.441406 40.921875 -20.328125 L 56.46875 -20.328125 C 55.863281 -17.140625 54.804688 -14.207031 53.296875 -11.53125 C 51.785156 -8.863281 49.882812 -6.539062 47.59375 -4.5625 C 45.300781 -2.582031 42.675781 -1.054688 39.71875 0.015625 C 36.757812 1.097656 33.503906 1.640625 29.953125 1.640625 Z M 29.953125 1.640625 "/></g></g></g><g fill="#000000" fill-opacity="1"><g transform="translate(368.711039, 286.938993)"><g><path d="M 39.8125 0 L 28.40625 0 C 26.875 0 25.285156 -0.128906 23.640625 -0.390625 C 22.003906 -0.660156 20.40625 -1.175781 18.84375 -1.9375 C 17.28125 -2.707031 15.875 -3.832031 14.625 -5.3125 C 13.382812 -6.789062 12.390625 -8.734375 11.640625 -11.140625 C 10.890625 -13.546875 10.515625 -16.546875 10.515625 -20.140625 L 10.515625 -38.578125 L 0.59375 -38.578125 L 0.59375 -51.625 L 10.515625 -51.625 L 10.515625 -66.53125 L 25.859375 -66.625 L 25.859375 -51.625 L 39.8125 -51.625 L 39.8125 -38.578125 L 25.859375 -38.578125 L 25.859375 -19.4375 C 25.859375 -16.90625 26.421875 -15.140625 27.546875 -14.140625 C 28.679688 -13.148438 30.0625 -12.65625 31.6875 -12.65625 L 39.8125 -12.65625 Z M 39.8125 0 "/></g></g></g><g fill="#000000" fill-opacity="1"><g transform="translate(411.119817, 286.938993)"><g><path d="M 30.34375 1.640625 C 26.320312 1.640625 22.632812 0.925781 19.28125 -0.5 C 15.925781 -1.925781 13.023438 -3.894531 10.578125 -6.40625 C 8.140625 -8.914062 6.253906 -11.832031 4.921875 -15.15625 C 3.597656 -18.476562 2.9375 -22.03125 2.9375 -25.8125 C 2.9375 -29.570312 3.597656 -33.109375 4.921875 -36.421875 C 6.253906 -39.742188 8.140625 -42.664062 10.578125 -45.1875 C 13.023438 -47.71875 15.925781 -49.695312 19.28125 -51.125 C 22.632812 -52.5625 26.34375 -53.28125 30.40625 -53.28125 C 34.488281 -53.28125 38.222656 -52.5625 41.609375 -51.125 C 45.003906 -49.695312 47.921875 -47.71875 50.359375 -45.1875 C 52.796875 -42.664062 54.6875 -39.753906 56.03125 -36.453125 C 57.382812 -33.148438 58.0625 -29.601562 58.0625 -25.8125 C 58.0625 -22.03125 57.382812 -18.476562 56.03125 -15.15625 C 54.6875 -11.832031 52.785156 -8.90625 50.328125 -6.375 C 47.867188 -3.851562 44.945312 -1.882812 41.5625 -0.46875 C 38.175781 0.9375 34.4375 1.640625 30.34375 1.640625 Z M 30.5 -12.515625 C 32.925781 -12.515625 35.0625 -13.078125 36.90625 -14.203125 C 38.75 -15.328125 40.203125 -16.882812 41.265625 -18.875 C 42.328125 -20.875 42.859375 -23.1875 42.859375 -25.8125 C 42.859375 -28.4375 42.328125 -30.742188 41.265625 -32.734375 C 40.203125 -34.734375 38.75 -36.296875 36.90625 -37.421875 C 35.0625 -38.554688 32.925781 -39.125 30.5 -39.125 C 28.101562 -39.125 25.972656 -38.554688 24.109375 -37.421875 C 22.253906 -36.296875 20.796875 -34.734375 19.734375 -32.734375 C 18.671875 -30.742188 18.140625 -28.4375 18.140625 -25.8125 C 18.140625 -23.1875 18.671875 -20.875 19.734375 -18.875 C 20.796875 -16.882812 22.253906 -15.328125 24.109375 -14.203125 C 25.972656 -13.078125 28.101562 -12.515625 30.5 -12.515625 Z M 30.5 -12.515625 "/></g></g></g><g fill="#000000" fill-opacity="1"><g transform="translate(472.116681, 286.938993)"><g><path d="M 25.8125 1.6875 C 21.863281 1.6875 18.453125 1.15625 15.578125 0.09375 C 12.703125 -0.96875 10.34375 -2.382812 8.5 -4.15625 C 6.65625 -5.9375 5.285156 -7.929688 4.390625 -10.140625 C 3.492188 -12.347656 3.046875 -14.613281 3.046875 -16.9375 L 17.734375 -16.84375 C 17.867188 -14.945312 18.582031 -13.390625 19.875 -12.171875 C 21.175781 -10.960938 23.191406 -10.359375 25.921875 -10.359375 C 28.378906 -10.359375 30.113281 -10.796875 31.125 -11.671875 C 32.132812 -12.554688 32.640625 -13.679688 32.640625 -15.046875 C 32.640625 -16.578125 31.90625 -17.675781 30.4375 -18.34375 C 28.976562 -19.007812 26.738281 -19.539062 23.71875 -19.9375 C 21.164062 -20.226562 18.75 -20.753906 16.46875 -21.515625 C 14.195312 -22.285156 12.1875 -23.328125 10.4375 -24.640625 C 8.695312 -25.953125 7.335938 -27.585938 6.359375 -29.546875 C 5.378906 -31.515625 4.890625 -33.859375 4.890625 -36.578125 C 4.890625 -40.066406 5.691406 -43.054688 7.296875 -45.546875 C 8.910156 -48.035156 11.238281 -49.945312 14.28125 -51.28125 C 17.320312 -52.613281 20.984375 -53.28125 25.265625 -53.28125 C 29.546875 -53.28125 33.316406 -52.546875 36.578125 -51.078125 C 39.835938 -49.617188 42.378906 -47.578125 44.203125 -44.953125 C 46.023438 -42.328125 46.9375 -39.253906 46.9375 -35.734375 L 31.9375 -35.828125 C 31.84375 -37.296875 31.265625 -38.5 30.203125 -39.4375 C 29.140625 -40.382812 27.507812 -40.859375 25.3125 -40.859375 C 23.382812 -40.859375 22.003906 -40.46875 21.171875 -39.6875 C 20.347656 -38.90625 19.9375 -37.984375 19.9375 -36.921875 C 19.9375 -36.191406 20.039062 -35.585938 20.25 -35.109375 C 20.46875 -34.628906 20.890625 -34.222656 21.515625 -33.890625 C 22.148438 -33.554688 23.082031 -33.25 24.3125 -32.96875 C 25.539062 -32.6875 27.1875 -32.394531 29.25 -32.09375 C 33.175781 -31.53125 36.566406 -30.664062 39.421875 -29.5 C 42.273438 -28.34375 44.472656 -26.691406 46.015625 -24.546875 C 47.566406 -22.398438 48.34375 -19.535156 48.34375 -15.953125 C 48.34375 -12.921875 47.757812 -10.300781 46.59375 -8.09375 C 45.4375 -5.882812 43.832031 -4.054688 41.78125 -2.609375 C 39.738281 -1.171875 37.351562 -0.0976562 34.625 0.609375 C 31.90625 1.328125 28.96875 1.6875 25.8125 1.6875 Z M 25.8125 1.6875 "/></g></g></g></svg>