<svg xmlns="http://www.w3.org/2000/svg" xmlns:xlink="http://www.w3.org/1999/xlink" width="1080" zoomAndPan="magnify" viewBox="0 0 810 809.999993" height="1080" preserveAspectRatio="xMidYMid meet" version="1.0"><defs><g/><clipPath id="a5fefb26b2"><path d="M 92 293.121094 L 238.488281 293.121094 L 238.488281 439 L 92 439 Z M 92 293.121094 " clip-rule="nonzero"/></clipPath><clipPath id="0664de9412"><path d="M 14.238281 371 L 161 371 L 161 516.621094 L 14.238281 516.621094 Z M 14.238281 371 " clip-rule="nonzero"/></clipPath></defs><g clip-path="url(#a5fefb26b2)"><path fill="#c1ff72" d="M 238.742188 405.21875 C 238.742188 423.816406 223.6875 438.871094 205.089844 438.871094 L 136.164062 438.871094 C 112.339844 438.871094 92.992188 419.523438 92.992188 395.699219 L 92.992188 326.773438 C 92.992188 308.175781 108.046875 293.121094 126.644531 293.121094 C 145.246094 293.121094 160.300781 308.175781 160.300781 326.773438 L 160.300781 371.5625 L 205.089844 371.5625 C 223.6875 371.5625 238.742188 386.679688 238.742188 405.21875 Z M 238.742188 405.21875 " fill-opacity="1" fill-rule="nonzero"/></g><g clip-path="url(#0664de9412)"><path fill="#7ed957" d="M 14.300781 404.78125 C 14.300781 386.179688 29.355469 371.128906 47.953125 371.128906 L 116.878906 371.128906 C 140.703125 371.128906 160.050781 390.472656 160.050781 414.300781 L 160.050781 483.222656 C 160.050781 501.824219 144.996094 516.878906 126.398438 516.878906 C 107.796875 516.878906 92.742188 501.824219 92.742188 483.222656 L 92.742188 438.433594 L 47.953125 438.433594 C 29.355469 438.433594 14.300781 423.382812 14.300781 404.78125 Z M 14.300781 404.78125 " fill-opacity="1" fill-rule="nonzero"/></g><path fill="#07ad5d" d="M 160.050781 414.300781 L 160.050781 438.871094 L 136.164062 438.871094 C 112.339844 438.871094 92.992188 419.523438 92.992188 395.699219 L 92.992188 371.128906 L 116.878906 371.128906 C 140.703125 371.128906 160.050781 390.472656 160.050781 414.300781 Z M 160.050781 414.300781 " fill-opacity="1" fill-rule="nonzero"/><g fill="#000000" fill-opacity="1"><g transform="translate(283.387171, 443.549136)"><g><path d="M 39.59375 0 L 15.953125 0 L 15.953125 -59.625 L 1.15625 -59.625 L 1.15625 -79.8125 L 15.953125 -79.8125 L 15.953125 -83.34375 C 15.953125 -86.226562 16.382812 -89.207031 17.25 -92.28125 C 18.125 -95.363281 19.550781 -98.226562 21.53125 -100.875 C 23.507812 -103.519531 26.164062 -105.664062 29.5 -107.3125 C 32.84375 -108.957031 36.976562 -109.78125 41.90625 -109.78125 L 59.015625 -109.78125 L 59.015625 -90.203125 L 48.140625 -90.203125 C 46.191406 -90.203125 44.578125 -89.78125 43.296875 -88.9375 C 42.015625 -88.09375 41.078125 -87.015625 40.484375 -85.703125 C 39.890625 -84.390625 39.59375 -83.015625 39.59375 -81.578125 L 39.59375 -79.8125 L 58.78125 -79.8125 L 58.78125 -59.625 L 39.59375 -59.625 Z M 39.59375 0 "/></g></g></g><g fill="#000000" fill-opacity="1"><g transform="translate(343.242028, 443.549136)"><g><path d="M 32.890625 0 L 9.171875 0 L 9.171875 -108.546875 L 32.890625 -108.546875 Z M 32.890625 0 "/></g></g></g><g fill="#000000" fill-opacity="1"><g transform="translate(385.379231, 443.549136)"><g><path d="M 46.53125 2.546875 C 41.1875 2.546875 36.175781 1.828125 31.5 0.390625 C 26.832031 -1.046875 22.738281 -3.332031 19.21875 -6.46875 C 15.695312 -9.601562 12.945312 -13.695312 10.96875 -18.75 C 9 -23.8125 8.015625 -29.960938 8.015625 -37.203125 L 8.015625 -79.8125 L 31.578125 -79.8125 L 31.578125 -37.984375 C 31.578125 -32.078125 32.769531 -27.488281 35.15625 -24.21875 C 37.550781 -20.957031 41.34375 -19.328125 46.53125 -19.328125 C 51.875 -19.328125 55.710938 -20.992188 58.046875 -24.328125 C 60.378906 -27.671875 61.546875 -32.222656 61.546875 -37.984375 L 61.546875 -79.8125 L 85.046875 -79.8125 L 85.046875 -37.203125 C 85.046875 -29.960938 84.054688 -23.8125 82.078125 -18.75 C 80.097656 -13.695312 77.347656 -9.601562 73.828125 -6.46875 C 70.316406 -3.332031 66.222656 -1.046875 61.546875 0.390625 C 56.878906 1.828125 51.875 2.546875 46.53125 2.546875 Z M 46.53125 2.546875 "/></g></g></g><g fill="#000000" fill-opacity="1"><g transform="translate(478.512464, 443.549136)"><g><path d="M 46.296875 2.546875 C 40.128906 2.546875 34.488281 1.441406 29.375 -0.765625 C 24.269531 -2.972656 19.867188 -6.03125 16.171875 -9.9375 C 12.472656 -13.84375 9.609375 -18.363281 7.578125 -23.5 C 5.554688 -28.632812 4.546875 -34.101562 4.546875 -39.90625 C 4.546875 -45.707031 5.554688 -51.160156 7.578125 -56.265625 C 9.609375 -61.378906 12.472656 -65.882812 16.171875 -69.78125 C 19.867188 -73.6875 24.269531 -76.753906 29.375 -78.984375 C 34.488281 -81.222656 40.128906 -82.34375 46.296875 -82.34375 C 51.796875 -82.34375 56.816406 -81.519531 61.359375 -79.875 C 65.898438 -78.238281 69.929688 -75.929688 73.453125 -72.953125 C 76.972656 -69.972656 79.898438 -66.503906 82.234375 -62.546875 C 84.566406 -58.597656 86.25 -54.3125 87.28125 -49.6875 L 63.25 -49.6875 C 61.8125 -53.488281 59.578125 -56.222656 56.546875 -57.890625 C 53.515625 -59.554688 50.125 -60.390625 46.375 -60.390625 C 43.238281 -60.390625 40.269531 -59.609375 37.46875 -58.046875 C 34.675781 -56.484375 32.40625 -54.171875 30.65625 -51.109375 C 28.914062 -48.054688 28.046875 -44.320312 28.046875 -39.90625 C 28.046875 -35.488281 28.914062 -31.738281 30.65625 -28.65625 C 32.40625 -25.570312 34.675781 -23.234375 37.46875 -21.640625 C 40.269531 -20.054688 43.238281 -19.265625 46.375 -19.265625 C 50.125 -19.265625 53.515625 -20.175781 56.546875 -22 C 59.578125 -23.820312 61.8125 -26.96875 63.25 -31.4375 L 87.28125 -31.4375 C 86.351562 -26.5 84.722656 -21.960938 82.390625 -17.828125 C 80.054688 -13.691406 77.113281 -10.097656 73.5625 -7.046875 C 70.019531 -3.992188 65.960938 -1.632812 61.390625 0.03125 C 56.828125 1.707031 51.796875 2.546875 46.296875 2.546875 Z M 46.296875 2.546875 "/></g></g></g><g fill="#000000" fill-opacity="1"><g transform="translate(569.180632, 443.549136)"><g><path d="M 61.546875 0 L 43.90625 0 C 41.539062 0 39.085938 -0.203125 36.546875 -0.609375 C 34.003906 -1.023438 31.523438 -1.820312 29.109375 -3 C 26.703125 -4.1875 24.535156 -5.921875 22.609375 -8.203125 C 20.679688 -10.484375 19.140625 -13.484375 17.984375 -17.203125 C 16.828125 -20.929688 16.25 -25.570312 16.25 -31.125 L 16.25 -59.625 L 0.921875 -59.625 L 0.921875 -79.8125 L 16.25 -79.8125 L 16.25 -102.84375 L 39.984375 -103 L 39.984375 -79.8125 L 61.546875 -79.8125 L 61.546875 -59.625 L 39.984375 -59.625 L 39.984375 -30.046875 C 39.984375 -26.140625 40.851562 -23.414062 42.59375 -21.875 C 44.34375 -20.332031 46.476562 -19.5625 49 -19.5625 L 61.546875 -19.5625 Z M 61.546875 0 "/></g></g></g><g fill="#000000" fill-opacity="1"><g transform="translate(634.73595, 443.549136)"><g><path d="M 46.90625 2.546875 C 40.695312 2.546875 35 1.441406 29.8125 -0.765625 C 24.625 -2.972656 20.140625 -6.015625 16.359375 -9.890625 C 12.585938 -13.773438 9.675781 -18.285156 7.625 -23.421875 C 5.570312 -28.554688 4.546875 -34.050781 4.546875 -39.90625 C 4.546875 -45.707031 5.570312 -51.175781 7.625 -56.3125 C 9.675781 -61.445312 12.585938 -65.960938 16.359375 -69.859375 C 20.140625 -73.765625 24.625 -76.820312 29.8125 -79.03125 C 35 -81.238281 40.722656 -82.34375 46.984375 -82.34375 C 53.304688 -82.34375 59.085938 -81.238281 64.328125 -79.03125 C 69.566406 -76.820312 74.070312 -73.765625 77.84375 -69.859375 C 81.613281 -65.960938 84.539062 -61.457031 86.625 -56.34375 C 88.707031 -51.238281 89.75 -45.757812 89.75 -39.90625 C 89.75 -34.050781 88.707031 -28.554688 86.625 -23.421875 C 84.539062 -18.285156 81.597656 -13.765625 77.796875 -9.859375 C 74.003906 -5.953125 69.488281 -2.90625 64.25 -0.71875 C 59.007812 1.457031 53.226562 2.546875 46.90625 2.546875 Z M 47.140625 -19.328125 C 50.890625 -19.328125 54.1875 -20.203125 57.03125 -21.953125 C 59.882812 -23.703125 62.132812 -26.113281 63.78125 -29.1875 C 65.425781 -32.269531 66.25 -35.84375 66.25 -39.90625 C 66.25 -43.957031 65.425781 -47.523438 63.78125 -50.609375 C 62.132812 -53.691406 59.882812 -56.101562 57.03125 -57.84375 C 54.1875 -59.59375 50.890625 -60.46875 47.140625 -60.46875 C 43.441406 -60.46875 40.15625 -59.59375 37.28125 -57.84375 C 34.40625 -56.101562 32.144531 -53.691406 30.5 -50.609375 C 28.863281 -47.523438 28.046875 -43.957031 28.046875 -39.90625 C 28.046875 -35.84375 28.863281 -32.269531 30.5 -29.1875 C 32.144531 -26.113281 34.40625 -23.703125 37.28125 -21.953125 C 40.15625 -20.203125 43.441406 -19.328125 47.140625 -19.328125 Z M 47.140625 -19.328125 "/></g></g></g><g fill="#000000" fill-opacity="1"><g transform="translate(729.024659, 443.549136)"><g><path d="M 39.90625 2.625 C 33.789062 2.625 28.507812 1.800781 24.0625 0.15625 C 19.625 -1.488281 15.976562 -3.679688 13.125 -6.421875 C 10.28125 -9.171875 8.164062 -12.253906 6.78125 -15.671875 C 5.394531 -19.085938 4.703125 -22.59375 4.703125 -26.1875 L 27.421875 -26.03125 C 27.628906 -23.101562 28.734375 -20.703125 30.734375 -18.828125 C 32.734375 -16.953125 35.84375 -16.015625 40.0625 -16.015625 C 43.863281 -16.015625 46.546875 -16.695312 48.109375 -18.0625 C 49.671875 -19.425781 50.453125 -21.160156 50.453125 -23.265625 C 50.453125 -25.628906 49.320312 -27.320312 47.0625 -28.34375 C 44.800781 -29.375 41.335938 -30.195312 36.671875 -30.8125 C 32.710938 -31.269531 28.972656 -32.085938 25.453125 -33.265625 C 21.941406 -34.453125 18.835938 -36.0625 16.140625 -38.09375 C 13.441406 -40.125 11.332031 -42.648438 9.8125 -45.671875 C 8.300781 -48.703125 7.546875 -52.328125 7.546875 -56.546875 C 7.546875 -61.929688 8.789062 -66.550781 11.28125 -70.40625 C 13.769531 -74.257812 17.363281 -77.210938 22.0625 -79.265625 C 26.769531 -81.316406 32.4375 -82.34375 39.0625 -82.34375 C 45.6875 -82.34375 51.515625 -81.210938 56.546875 -78.953125 C 61.578125 -76.703125 65.503906 -73.546875 68.328125 -69.484375 C 71.148438 -65.429688 72.5625 -60.679688 72.5625 -55.234375 L 49.375 -55.390625 C 49.21875 -57.648438 48.316406 -59.507812 46.671875 -60.96875 C 45.035156 -62.4375 42.523438 -63.171875 39.140625 -63.171875 C 36.160156 -63.171875 34.023438 -62.566406 32.734375 -61.359375 C 31.453125 -60.148438 30.8125 -58.722656 30.8125 -57.078125 C 30.8125 -55.953125 30.976562 -55.015625 31.3125 -54.265625 C 31.644531 -53.523438 32.300781 -52.894531 33.28125 -52.375 C 34.257812 -51.863281 35.695312 -51.390625 37.59375 -50.953125 C 39.488281 -50.515625 42.03125 -50.066406 45.21875 -49.609375 C 51.28125 -48.734375 56.519531 -47.394531 60.9375 -45.59375 C 65.351562 -43.800781 68.753906 -41.25 71.140625 -37.9375 C 73.523438 -34.625 74.71875 -30.195312 74.71875 -24.65625 C 74.71875 -19.976562 73.816406 -15.929688 72.015625 -12.515625 C 70.222656 -9.097656 67.75 -6.269531 64.59375 -4.03125 C 61.4375 -1.800781 57.75 -0.132812 53.53125 0.96875 C 49.320312 2.070312 44.78125 2.625 39.90625 2.625 Z M 39.90625 2.625 "/></g></g></g></svg>