<svg xmlns="http://www.w3.org/2000/svg" xmlns:xlink="http://www.w3.org/1999/xlink" width="500" zoomAndPan="magnify" viewBox="0 0 375 374.999991" height="500" preserveAspectRatio="xMidYMid meet" version="1.0"><defs><clipPath id="0a2e943e22"><path d="M 7.5 7 L 367.5 7 L 367.5 368 L 7.5 368 Z M 7.5 7 " clip-rule="nonzero"/></clipPath><clipPath id="76c13c18e7"><path d="M 134.898438 203.523438 L 139.589844 203.523438 L 139.589844 208.972656 L 134.898438 208.972656 Z M 134.898438 203.523438 " clip-rule="nonzero"/></clipPath><clipPath id="c37baac85d"><path d="M 139.574219 206.625 C 138.148438 208.800781 137.625 208.949219 137.175781 208.949219 C 136.574219 208.875 135.675781 208.351562 135.300781 207.824219 C 135 207.300781 134.925781 206.25 135.226562 205.726562 C 135.449219 205.125 136.273438 204.523438 136.949219 204.375 C 137.550781 204.300781 138.523438 204.601562 138.898438 205.050781 C 139.351562 205.574219 139.648438 206.550781 139.5 207.148438 C 139.351562 207.75 138.675781 208.5 138.148438 208.726562 C 137.550781 209.023438 136.5 208.949219 135.976562 208.5 C 135.449219 208.125 134.925781 206.851562 134.925781 206.101562 C 134.851562 205.5 135.074219 204.898438 135.375 204.449219 C 135.75 204.074219 136.351562 203.699219 136.875 203.550781 C 137.324219 203.476562 138.074219 203.625 138.523438 203.851562 C 138.976562 204.148438 139.574219 205.199219 139.574219 205.199219 " clip-rule="nonzero"/></clipPath><clipPath id="cc38c36b6e"><path d="M 156.851562 336.175781 L 161.113281 336.175781 L 161.113281 339.824219 L 156.851562 339.824219 Z M 156.851562 336.175781 " clip-rule="nonzero"/></clipPath><clipPath id="6b4e98d213"><path d="M 161.101562 337.5 C 159.226562 340.5 157.425781 339.976562 157.050781 339.300781 C 156.675781 338.699219 156.976562 336.824219 157.574219 336.375 C 158.175781 335.925781 160.574219 336.523438 160.574219 336.523438 " clip-rule="nonzero"/></clipPath></defs><g clip-path="url(#0a2e943e22)"><path fill="#000000" d="M 187.5 7.5 C 88.089844 7.5 7.5 88.089844 7.5 187.5 C 7.5 286.910156 88.089844 367.5 187.5 367.5 C 286.910156 367.5 367.5 286.910156 367.5 187.5 C 367.5 88.089844 286.910156 7.5 187.5 7.5 Z M 37.5 187.5 C 37.5 104.65625 104.65625 37.5 187.5 37.5 C 270.34375 37.5 337.5 104.65625 337.5 187.5 C 337.5 255.007812 292.90625 312.097656 231.570312 330.921875 C 233.246094 300.605469 232.671875 281.824219 229.847656 274.582031 C 226.863281 266.941406 224.433594 263.808594 222.976562 261.929688 C 222.019531 260.699219 221.484375 260.007812 221.484375 258.9375 C 221.484375 257.136719 222.75 255.832031 225.285156 255.023438 C 247.386719 250.136719 262.207031 236.554688 269.746094 214.277344 C 280.195312 183.40625 265.28125 160.960938 259.25 151.875 C 258.75 151.125 258.3125 150.46875 257.953125 149.902344 C 253.265625 142.496094 259.410156 124.472656 266.75 110.050781 C 241.789062 105.046875 232.261719 116.640625 226.792969 123.292969 C 224.558594 126.007812 223.003906 127.898438 221.355469 127.496094 C 219.878906 127.136719 218.292969 126.441406 216.390625 125.601562 C 210.941406 123.210938 202.902344 119.675781 187.5 119.675781 C 168.398438 119.675781 155.742188 126.347656 153.808594 127.367188 C 153.636719 127.457031 153.550781 127.496094 153.550781 127.496094 C 143.507812 113.503906 129.25 107.6875 110.773438 110.050781 C 115.863281 130.386719 116.242188 143.667969 111.921875 149.902344 C 105.433594 159.253906 93.277344 181.003906 102.714844 214.277344 C 112.152344 247.550781 146.515625 255.023438 153.054688 255.023438 L 153.097656 255.03125 C 153.617188 255.144531 158.429688 256.183594 156.984375 260.25 C 156.703125 261.332031 156.515625 262.804688 156.300781 264.464844 C 155.621094 269.792969 154.691406 277.03125 149.585938 279.386719 C 142.882812 282.472656 128.101562 284.160156 121.921875 280.304688 C 119.859375 279.019531 118.378906 276.335938 116.597656 273.101562 C 113.03125 266.628906 108.253906 257.953125 95.183594 253.921875 C 75.582031 247.867188 76.8125 255.871094 81.703125 257.832031 C 82.78125 258.265625 84.207031 258.671875 85.835938 259.132812 C 91.609375 260.765625 99.910156 263.117188 104.167969 269.964844 C 105.414062 271.972656 106.699219 274.171875 108.007812 276.417969 C 112.4375 284 117.179688 292.128906 121.921875 295.246094 C 126.015625 297.941406 135.835938 299.019531 151.371094 298.480469 C 150.695312 313.152344 150.335938 324.605469 150.289062 332.847656 C 85.445312 316.296875 37.5 257.5 37.5 187.5 Z M 37.5 187.5 " fill-opacity="0.85" fill-rule="evenodd"/></g><g clip-path="url(#76c13c18e7)"><g clip-path="url(#c37baac85d)"><path fill="#1e1e1e" d="M 131.925781 200.550781 L 142.648438 200.550781 L 142.648438 211.945312 L 131.925781 211.945312 Z M 131.925781 200.550781 " fill-opacity="1" fill-rule="nonzero"/></g></g><g clip-path="url(#cc38c36b6e)"><g clip-path="url(#6b4e98d213)"><path fill="#1e1e1e" d="M 154.050781 333.375 L 164.183594 333.375 L 164.183594 343.199219 L 154.050781 343.199219 Z M 154.050781 333.375 " fill-opacity="1" fill-rule="nonzero"/></g></g></svg>