<svg xmlns="http://www.w3.org/2000/svg" xmlns:xlink="http://www.w3.org/1999/xlink" width="500" zoomAndPan="magnify" viewBox="0 0 375 374.999991" height="500" preserveAspectRatio="xMidYMid meet" version="1.0"><defs><clipPath id="4999a385db"><path d="M 6.410156 6.410156 L 368.660156 6.410156 L 368.660156 368.660156 L 6.410156 368.660156 Z M 6.410156 6.410156 " clip-rule="nonzero"/></clipPath></defs><rect x="-37.5" width="450" fill="#ffffff" y="-37.499999" height="449.999989" fill-opacity="1"/><rect x="-37.5" width="450" fill="#ffffff" y="-37.499999" height="449.999989" fill-opacity="1"/><g clip-path="url(#4999a385db)"><path fill="#000000" d="M 315.601562 59.457031 C 281.394531 25.25 235.910156 6.410156 187.53125 6.410156 C 139.152344 6.410156 93.667969 25.25 59.457031 59.457031 C 25.25 93.667969 6.410156 139.152344 6.410156 187.53125 C 6.410156 235.910156 25.25 281.394531 59.457031 315.601562 C 93.667969 349.8125 139.152344 368.652344 187.53125 368.652344 C 235.910156 368.652344 281.394531 349.8125 315.601562 315.601562 C 349.8125 281.394531 368.652344 235.910156 368.652344 187.53125 C 368.652344 139.152344 349.8125 93.667969 315.601562 59.457031 Z M 67.675781 67.675781 C 99.691406 35.664062 142.257812 18.03125 187.53125 18.03125 C 232.804688 18.03125 275.371094 35.664062 307.382812 67.675781 C 339.398438 99.691406 357.03125 142.253906 357.03125 187.53125 C 357.03125 225.167969 344.835938 260.925781 322.332031 290.3125 C 304.425781 265.273438 275.828125 250.480469 244.773438 250.480469 L 130.289062 250.480469 C 99.230469 250.480469 70.636719 265.273438 52.726562 290.3125 C 30.226562 260.925781 18.03125 225.167969 18.03125 187.53125 C 18.03125 142.253906 35.664062 99.691406 67.675781 67.675781 Z M 187.53125 240.929688 C 234.066406 240.929688 271.925781 203.070312 271.925781 156.535156 C 271.925781 110 234.066406 72.140625 187.53125 72.140625 C 140.996094 72.140625 103.136719 110 103.136719 156.535156 C 103.136719 203.070312 140.996094 240.929688 187.53125 240.929688 Z M 187.53125 240.929688 " fill-opacity="1" fill-rule="nonzero"/></g></svg>