<svg xmlns="http://www.w3.org/2000/svg" xmlns:xlink="http://www.w3.org/1999/xlink" width="1280" zoomAndPan="magnify" viewBox="0 0 960 959.999988" height="1280" preserveAspectRatio="xMidYMid meet" version="1.0"><rect x="-96" width="1152" fill="#ffffff" y="-95.999999" height="1151.999986" fill-opacity="1"/><rect x="-96" width="1152" fill="#ffffff" y="-95.999999" height="1151.999986" fill-opacity="1"/><path fill="#000000" d="M 944.445312 959.929688 L 15.632812 959.929688 C 7.222656 959.929688 0.40625 953.113281 0.40625 944.703125 L 0.40625 857.9375 C 0.40625 713.582031 117.847656 596.140625 262.203125 596.140625 L 697.871094 596.140625 C 842.230469 596.140625 959.671875 713.582031 959.671875 857.9375 L 959.671875 944.703125 C 959.671875 953.113281 952.855469 959.929688 944.445312 959.929688 Z M 480.039062 555.203125 C 326.96875 555.203125 202.4375 430.671875 202.4375 277.601562 C 202.4375 124.53125 326.96875 0 480.039062 0 C 633.109375 0 757.640625 124.53125 757.640625 277.601562 C 757.640625 430.671875 633.109375 555.203125 480.039062 555.203125 Z M 480.039062 555.203125 " fill-opacity="1" fill-rule="nonzero"/></svg>